<?xml version="1.0" encoding="utf-8"?>
<!-- Generator: Adobe Illustrator 27.0.0, SVG Export Plug-In . SVG Version: 6.00 Build 0)  -->
<svg version="1.1" id="Layer_1" xmlns="http://www.w3.org/2000/svg" xmlns:xlink="http://www.w3.org/1999/xlink" x="0px" y="0px"
	 viewBox="0 0 216 323.8" style="enable-background:new 0 0 216 323.8;" xml:space="preserve">
<style type="text/css">
	.st0{fill:#0A090B;}
	.st1{fill:#11111B;}
	.st2{fill:#131325;}
	.st3{fill:#151425;}
	.st4{fill:#13121F;}
	.st5{fill:#1F3161;}
	.st6{fill:#1E2955;}
	.st7{fill:#21295B;}
	.st8{fill:#1D224D;}
	.st9{fill:#302421;}
	.st10{fill:#1E1E40;}
	.st11{fill:#141335;}
	.st12{fill:#17183E;}
	.st13{fill:#13132D;}
	.st14{fill:#1B1B46;}
</style>
<path class="st0" d="M198.3,167.4c0.2,0.4,0.3,0.7,0.4,1.1c0.5,1.7,0.7,3.5,0.7,5.3c0,2.8-0.6,5.6-1.5,8.3c-1.6,5-3.9,9.7-6.3,14.4
	c-1,1.9-2.8,3.3-4.3,4.8c-1,0.9-1.6,1.7-1,3.2c0.6,1.9,0.3,3.9,0.8,5.9c0.4,1.7-0.1,3.6,0,5.3s0.4,3.5,0.8,5.1
	c0.8,3.4,2.1,6.7,2.6,10.2c0.1,0.6,0.2,1.2,0.2,1.9c0,0.3,0,0.5,0.1,0.8c0,0.2,0,0.6,0.2,0.7c0.2,0.2,0.5,0.3,0.7,0.4
	c0.2,0.1,0.5,0.1,0.7,0.3c0,0,1.5,3,1.8,2.6c-0.1,0.2-0.3,0.4-0.5,0.5s-0.4,0.1-0.6,0.2c-0.4,0.2-0.9,0.4-1.3,0.7
	c-0.1,0.1-0.1,0.1-0.2,0.2c0,0.1-0.1,0.2-0.1,0.3c-0.1,0.2-0.2,0.4-0.3,0.5s-0.2,0.1-0.3,0.2c-0.1,0.1-0.1,0.2-0.1,0.3
	c0,0.2,0.1,0.5,0.3,0.7c0.2,0.3,0.5,0.4,0.8,0.6c1.3,0.6,2.7,1.2,3.7,2.1c0.1,0.1,0.1,0.1,0.2,0.2c0.1,0,0.2,0,0.3,0
	c0.7,0,1.2,0.5,1.8,0.8c0.7,0.4,1.5,0.5,2.1,0.9c0.7,0.4,1.2,1.1,1.8,1.6c1.1,1,2.4,1.7,3.7,2.5c1,0.6,2.1,1.3,2.7,2.4
	c0.2,0.4,0.2,0.8,0.3,1.3s0.2,1,0.3,1.4c0.3,0.9,0.7,1.8,0.9,2.7s0.9,1.4,1.5,2.1c0.4,0.5,0.7,1.1,1,1.7c1.8,4.2,1.7,8.9,2.3,13.4
	c0.2,1.4,0.4,2.8-0.1,4.1c-0.3,0.7-0.7,1.1-1.2,1.6c-0.5,0.6-0.8,1.2-1.1,1.9c-0.6,1.3-0.9,2.8-1.5,4.1c-0.4,0.8-0.9,1.6-1.3,2.3
	c-0.8,1.2-1.5,2.4-2.3,3.7c-0.3,0.6-0.6,1.3-1.1,1.7c-0.4,0.4-0.9,0.8-1.3,1.1c-1.9,1.6-3.9,3-6,4.2c-1.4,0.8-2.8,1.4-4.3,2
	c-2.3,0.9-4.7,1.6-6.9,2.5c-1.2,0.5-2.4,1.2-3.6,1.9c-3.8,2.3-8.1,3-12.4,3.7c-3.8,0.6-7.7,0.6-11.6,0.5c-1.4,0-2.5,0.9-3.8,1.4
	c-1.5,0.5-3,1-4.4,1.6c-0.7,0.3-1.5,0.6-2.2,0.8c-0.7,0.3-1.4,0.6-2.2,0.8c-0.6,0.2-1.3,0.2-2,0.3c-0.7,0.1-1.4,0.1-2.2,0.1
	c-0.7,0-1.4-0.1-2.1,0c-0.6,0.1-1.2,0.3-1.8,0.4c-0.3,0.1-0.6,0.2-0.9,0.3c-0.1,0-0.1,0-0.2,0.1c-0.1,0.1-0.1,0.1-0.2,0.2
	c-0.3,0.4-0.6,0.9,0,1.2c0.1,0,0.1,0.1,0.2,0.1c0.1,0,0.2,0.1,0.3,0.2c0.3,0.3-0.1,0.5-0.4,0.6c-0.3,0.1-0.7,0.3-1.1,0.4
	c-0.7,0.3-1.4,0.5-2.1,0.7c-1.4,0.4-2.9,0.7-4.4,1.1c-0.2,0-0.4,0.1-0.6,0.1c-2.2,0.5-4.3,1.3-6.5,2.1c-3,1.1-5.9,1.4-9,0.3
	c-0.5-0.2-1.1-0.1-1.6-0.1c-6.3,0.8-12.6,0.5-18.7-1.3c-3.1-0.9-5.8-2.5-8.5-4.3c-3.4-2.3-6.1-5.2-8.6-8.2c-3.1-3.8-7-6.7-10.8-9.6
	c-0.5-0.4-1.1-0.4-1.5,0c-1.6,1.3-3.1,0.9-4.8,0c-4.3-2.5-8.2-5.4-11.2-9.4c-2.2-2.9-2.3-6.2-1.9-9.6c0.3-2.8,1.8-4.9,3.7-6.7
	c0.3-0.3,0.7-0.6,0.6-1c-0.1-0.5-0.7-0.3-1-0.3c-0.5-0.1-1.1-0.1-1.7,0c-2.1,0.1-3.8-0.7-4.8-2.6s-2.7-2.8-4.2-4.1
	c-2-1.7-4.2-3.3-5.8-5.4c-1.3-1.7-2.9-3.2-4.3-4.9c-0.7-0.9-1.3-1.7-1.6-2.8c-0.5-1.8-1.3-3.4-2.4-4.9c-0.9-1.3-0.9-2.9-1.5-4.4
	c-0.3-0.6-0.4-1.2-0.9-1.7c-0.9-0.9-1.5-1.9-1.4-3.3c0.1-0.5-0.2-0.9-0.5-1.2c-1.5-1.4-1.9-3.3-2.1-5.2c-0.1-0.9-0.2-1.9-0.2-2.9
	c0-1.4-0.5-2.4-1.3-3.5c-0.4-0.5-0.8-1.1-1.1-1.7c-0.4-0.8-0.7-1.4-1.8-1.4c-0.7,0-1.6-1.3-1.3-2c0.5-1.2,0.3-2.9,1.8-3.6
	c0.2-0.1,0.4-0.4,0.4-0.6c-0.5-1.2,0.4-2.1,0.6-3.1c0.1-0.9-0.1-1.8-0.6-2.6c-0.7-1-1.4-2.1-1.9-3.2c-0.5-1.4-1.5-1.8-2.8-1.9
	c-0.9-0.1-1.9-0.2-2.8-0.3s-1.5-0.5-1.8-1.4c-1.4-4.3-2.5-8.6-3.2-13.1c-0.3-2.2-0.5-4.5-0.3-6.8c0.1-1-0.1-1.8-0.8-2.6
	c-1.6-1.8-2.2-3.7-0.8-6c0.8-1.3,1-2.9,1.3-4.4c0.1-0.5,0.2-1.1-0.1-1.6c-1.8-3.6-1.7-7.5-1.5-11.4c0.1-2.5,0.2-4.9,0.4-7.4
	c0.5-7.9,1.5-15.7,4.1-23.2c1.3-3.7,2.6-7.4,4.2-11c0.9-2.1,1.9-4.3,3-6.3c0.8-1.6,1.7-3.2,2.5-4.8c0.4-0.7,0.7-1.4,1.1-2.1
	c0.3-0.7,0.7-1.3,1.1-2c0.5-0.8,1.1-1.6,1.7-2.4c0.3-0.4,0.6-0.8,0.9-1.1c0.4-0.5,0.6-1.1,0.9-1.7c0.3-0.7,0.6-1.3,0.9-1.9
	c0.7-1.2,1.5-2.4,2.4-3.5c0.1-0.2,0.3-0.4,0.4-0.5c0.2-0.2,0.4-0.4,0.6-0.5c0.6-0.6,1.2-1.1,1.7-1.8c0.2-0.3,0.5-0.5,0.7-0.8
	s0.3-0.6,0.5-0.9c0.4-0.6,0.7-1.3,1.2-1.9c0.6-0.7,1.3-1.3,1.9-1.9c0.3-0.3,0.6-0.7,0.9-1.1s0.6-0.8,0.9-1.2
	c0.2-0.2,0.4-0.5,0.6-0.7c0.4-0.4,0.9-0.7,1.4-1.1c0.4-0.3,0.8-0.6,1.2-1c0.4-0.3,0.8-0.6,1.1-1c0.7-0.7,1.3-1.6,2-2.3
	c0.4-0.4,0.8-0.8,1.2-1.2c0.5-0.6,1-1.2,1.6-1.7c0.7-0.6,1.6-0.9,2.4-1.2c0.9-0.3,1.8-0.7,2.6-1.1c0.2-0.1,0.4-0.2,0.6-0.3
	c0.1-0.1,0.3-0.3,0.4-0.4c0.3-0.3,0.7-0.5,1-0.8c0.4-0.4,0.8-0.9,1.2-1.3c0.8-0.9,1.7-1.7,2.8-2.2c0.5-0.2,1-0.4,1.5-0.5
	c0.9-0.3,1.9-0.6,2.8-0.8c0.5-0.1,1.1-0.2,1.7-0.3c0.2,0,0.4-0.1,0.6-0.2c0.2-0.1,0.4-0.2,0.6-0.3c0.8-0.5,1.4-1.1,2.1-1.6
	c0.3-0.2,0.6-0.4,1-0.6c0.5-0.2,0.9-0.4,1.4-0.5c1.2-0.4,2.5-0.6,3.8-0.7c0.5,0,0.9-0.1,1.4-0.2c0.9-0.3,1.8-0.6,2.7-1.2
	c0.8-0.5,1.6-1.2,2.5-1.6c0.6-0.3,1.3-0.5,2-0.7c1.2-0.4,2.4-0.7,3.6-1.1c0.4-0.1,0.8-0.2,1.2-0.4c0.8-0.2,1.6-0.5,2.4-0.6
	c0.6,0,1.2,0,1.8,0c1.5,0.1,2.9,0.1,4.4-0.1c0.1,0,0.2,0,0.3,0c0.1,0,0.2-0.2,0.2-0.2c0.1-0.1,0.2-0.3,0.3-0.4
	c0.3-0.4,0.8-0.5,1.2-0.7c0.1,0,0.2-0.1,0.3-0.1c0.3,0,0.6,0.1,0.9,0.1c0.2,0,0.4,0.1,0.6,0c0.2,0,0.4-0.1,0.6-0.2
	c1-0.2,2.2,0.3,3,0.8s1.6,0.8,2.3,1.2c1,0.6,1.9,0.5,3,0c1.9-0.8,3.3-2.1,4.6-3.7c2.3-2.7,2.5-2,5.2-0.5c0.2,0.1,0.3,0.3,0.5,0.4
	c0.5,0.3,0.9,0.9,1.4,0.6c0.5-0.2,0.2-0.9,0.3-1.3c0.2-1.1,0.8-1.9,1.7-2.5c0.7-0.5,0.8-0.9,0.5-1.7c-0.7-1.5-0.2-2.5,1.4-2.9
	c1.2-0.3,2-1,2.5-2.2c0.4-0.9,0.8-1.8,1.8-2.1c0.3-0.1,0.5-0.4,0.5-0.7c0.4-2.6,2.2-4.6,3.4-6.8c0.9-1.7,1.7-3.4,2.2-5.3
	c0.9-3.1,2.1-6,4.6-8.2c0.5-0.5,1-1.1,1.3-1.7c1.3-2.4,3.3-4.3,5.3-5.9c2.5-1.9,5.1-4,8.4-4.7c2.7-0.6,5.2-1.7,7.9-2.1
	c4.5-0.6,9-1.8,13.6-1.5c0.7,0.1,1.4,0.2,2.1,0.4c1.9,0.7,3.9,1,5.8,1.5c0.6,0.2,1.2,0.5,1.6,0.9c1.5,1.5,3.3,2.5,5.2,3.4
	c2.4,1.1,4.4,2.8,6.2,4.6c0.5,0.5,0.9,1,1.5,1.4c3.2,2.5,5.2,5.9,7.2,9.3c0.9,1.7,1,3.7,1.6,5.5c1.2,3.5,1.2,7.3,1.7,10.9
	c0.4,2.8,0.4,5.7-0.2,8.5c-0.1,0.4-0.1,0.8,0,1.2c0.3,4.3-0.6,8.3-2.9,12c-2.1,3.3-3.5,7-5.6,10.3c-0.7,1.2-1.6,2.3-2.3,3.5
	c-0.2,0.3-0.4,0.4-0.7,0.4c-1-0.2-1.8,0.2-2.6,0.6c-1.3,0.6-2.7,0.4-4,0.6c-1.9,0.2-2.1,0.5-2.4,2.4c-0.4,0.2-0.7,0.9-1,1.1
	c-0.9,1-1.5,1.8-3.1,2c-0.2,0-0.5,0.3-0.7,0.6c-0.3,0.6-0.6,1.1-0.9,1.7c-1.1-0.1-1.7,0.2-1.5,1.5c0.1,1.2-0.6,2-1.5,2.7
	c-0.5,0.4-1.1,0.7-1.6,1c-0.7,0.4-1.2,1-1.4,1.8c-0.3,1.1-0.9,1.8-1.9,2.3c-0.4,0.2-0.9,0.3-1.4,0c-3.3-1.9-4.7-0.6-6.6,1
	c-0.9,0.8-1.9,1.4-3.1,1.8c-2.4,0.8-4.2-0.4-6.2-1.5c-3-1.6-5.6-3.7-7.9-6.1c-1-1-3.3-0.6-4,0.7c-0.3,0.5,0.1,0.8,0.3,1.2
	c2.3,3.8,5.5,6.9,8.9,9.7c1.2,1,2.3,2.1,3.2,3.3c1.6,2.2,2,4.7,1.6,7.4c-0.3,2.2,0,4.4,0.2,6.6c0.2,1.7,0.8,3.2,1.8,4.6
	c0.5,0.7,1.1,1.5,1,2.4c-0.1,1.9,0.6,3.7,0.9,5.5c0.2,1.4-0.2,2.9-0.1,4.3c0.1,1,0.4,2,0,3.1c-0.1,0.3-0.1,0.6-0.3,0.9
	c-0.6,1.1-0.4,2,0.2,3c1.5,2.3,1.4,3.7-0.6,5.6c-0.9,0.8-0.8,1.3,0.1,1.9c1.3,1,2.1,2.3,2.7,3.8c0.4,0.8,0.7,1,1.6,0.8
	c4.4-1.2,8.8-1.9,13.3-2.7c1.7-0.3,3.2,0.6,4.8,0.8s3.2,0.3,4.7,0.7c1.1,0.3,2.3,0.7,3.2,1.4c0.4,0.3,0.7,0.6,1.1,0.9
	c2.7,2.4,4.9,5.3,7.1,8.2c0.3,0.4,0.6,0.8,0.8,1.2s0.4,0.9,0.6,1.4C197.1,165,197.8,166.1,198.3,167.4z"/>
<path class="st1" d="M106.5,63.2c1.3,0.3,2.2,1.2,3.2,2c1.9,1.4,3.4,3.2,5,5c0.6,0.7,0.9,1.7,0.6,2.6c-0.5,1.6,0.2,3,0.3,4.5
	c0.1,1.3,0.6,2.6,1.1,3.9c0.3,0.8-0.1,1.2-0.8,1.4c-0.3,0.1-0.7,0.3-1,0.3c-1.6-0.1-3.3,0.3-4.9,0.2c-3.1-0.1-6.2,0.6-9.3,0.8
	c-2.5,0.2-5.1,0.4-7.6,0.7c-1.8,0.2-3.6,0.2-5.3,0.6c-2.2,0.5-4.3,0.6-6.4,0.7c-1.4,0.1-3,0.4-4.4-0.4c-0.6-0.3-1.3-0.2-1.7,0.4
	c-0.4,0.7-0.3,1.3,0.3,1.8c0.7,0.6,1.5,1,2.4,1c4.3,0,8.7,0.1,13-0.9c2-0.4,4-0.4,6-0.5c3.4-0.2,6.8-0.6,10.2-0.9
	c3.4-0.3,6.8-0.7,10.2-0.5c0.9,0,1.8,0.3,2.5,0.8c1.3,1,2.7,2,3.6,3.3c0.6,1,1.8,2,1.1,3.7c-0.3,0.6-0.1,1.8,0.8,2.4
	c0.6,0.4,0.8,0.9,0.6,1.6c-0.4,1.1-0.5,2.1,0.2,3.2c0.4,0.6-0.2,0.6-0.7,0.8c-2.4,0.7-5,0.5-7.5,0.8c-3.7,0.4-7.3,0.9-10.9,1.7
	c-3.6,0.8-7.2,2.1-10.8,2.9c-2.8,0.6-5.6,1.3-8.5,1.8c-1.5,0.3-3,0.5-4.5,0.7s-3-0.6-4.5-0.6c-2.2,0.1-3.8-1.5-5.9-1.7
	c-1.1-0.1-2.2,0.1-3.3,0.1c-0.8-0.1-1.6,0-2.2-0.6c-0.5-0.4-1.1-0.6-1.7-0.5c-1.7,0.4-3-0.4-4.5-0.9c-1.7-0.6-3.1-1.9-5-1.9
	c-0.4,0-0.8-0.1-1.2,0c-0.7,0.2-1.2,0-1.7-0.6c-0.7-0.8-1.7-0.9-2.8-1c-1.3-0.1-2.5,0.2-3.7,0.2c-3.7,0-6.9,1.4-9.9,3.4
	c-1.9,1.3-3.9,2.3-6.2,2.1c-1-0.1-1.5,0.7-2.3,1.1c-0.1,0-0.2,0.3-0.2,0.4c0.8,1.1-0.3,1.3-0.9,1.6c-1.4,0.8-2.6,1.7-3.5,3.1
	c-1,1.6-2.6,2.2-4.3,2.8c-2.1,0.8-4.4,1.6-6.3,2.9c-0.7,0.5-1.3,1.1-1.6,1.9c-1,2.2-2,4.4-3.4,6.5c-0.5,0.8-0.7,1.8-1.2,2.6
	c-0.2,0.4-0.6,1-1,0.9c-0.5-0.2-0.3-0.9-0.2-1.3c0.5-1.8,1-3.6,1.6-5.3c0.3-0.8,0.5-1.5,0.7-2.3c0.7-3,2.4-5.4,3.6-8.2
	c0.7-1.5,0.4-3.1,0.8-4.7c0.8-1.5,1.6-3,2.3-4.5c1,1,1.1,1,2-0.2c0.6-0.8,1.3-1.4,2-2.1c1.4-1.5,3-2.8,4-4.6
	c0.4-0.8,1.3-1.3,2.2-1.7c1.5-0.7,3.1-0.9,4.6-1.6c1.6-0.8,1.7-0.7,2.1,1.1c0.1,0.7,0.4,1.4,1,1.7c0.8,0.2,0.9-0.7,1.2-1.1
	c0.8-1.1,1.5-1.3,2.6-0.7c0.5,0.2,0.9,0.4,1.3,0.1c1.5-0.8,3.2-1,4.6-2c0.4-0.3,1-0.5,1.5-0.5c2.9-0.1,5.7-1,8.2-2.3
	c3.1-1.6,6.2-2.1,9.6-1.4c1.5,0.3,3.6-1.1,4.2-2.6c0.5-1.3,1.6-2.2,3-2.2c0.9,0,1.5-0.2,2.2-0.7c1.2-0.9,2.5-1.5,4-1.2
	c1.1,0.2,2.3,0.5,3.4,0.6c1.3,0.1,2.5,0.8,3.7,0.5c0.7-0.1,1.1,0,1.6,0.6c0.1-0.9,0.4-1.2,1.2-1.3c1.3-0.1,2.9,0.1,3.1-2
	c0-0.1,0.2-0.3,0.4-0.4c1.1-0.5,1.6-1.8,3-1.8c0.4,0,0.8-0.5,0.8-1c0-0.4,0.2-0.7,0.5-0.9c1.1-0.9,2.2-1.7,3.3-2.6
	c0.3-0.3,0.7-0.3,1.1,0c1,0.8,1.4,0.6,2-0.5c0.4-0.8,0.9-1.7,1.6-2.4c0.9-0.9,1.8-1.7,2.2-3c0.1-0.5,0.5-0.8,0.9-1.1
	C105.9,66.8,106.6,65.2,106.5,63.2L106.5,63.2z M59.3,101.9c0-0.1,0.1-0.2,0.1-0.2c0-0.1-0.1-0.1-0.2-0.1c0,0.1-0.1,0.2-0.1,0.2
	C59.1,101.9,59.2,101.9,59.3,101.9L59.3,101.9z"/>
<path class="st2" d="M106.5,63.2c0.1,2.1-0.6,3.6-2.5,4.6c-0.4,0.2-0.8,0.6-0.9,1.1c-0.4,1.3-1.2,2.1-2.2,3
	c-0.7,0.6-1.1,1.5-1.6,2.4c-0.6,1.1-1,1.3-2,0.5c-0.4-0.3-0.7-0.3-1.1,0c-1.1,0.8-2.2,1.7-3.3,2.6c-0.3,0.2-0.4,0.5-0.5,0.9
	c-0.1,0.5-0.4,0.9-0.8,1c-1.4,0.1-1.9,1.3-3,1.8c-0.2,0.1-0.4,0.3-0.4,0.4c-0.1,2.1-1.8,1.8-3.1,2c-0.8,0.1-1.2,0.4-1.2,1.3
	c-0.5-0.6-0.9-0.8-1.6-0.6c-1.2,0.2-2.5-0.5-3.7-0.5c-1.1-0.1-2.3-0.4-3.4-0.6c-1.5-0.3-2.8,0.3-4,1.2c-0.7,0.5-1.3,0.8-2.2,0.7
	c-1.3-0.1-2.5,0.9-3,2.2c-0.5,1.4-2.7,2.9-4.2,2.6c-3.4-0.7-6.5-0.2-9.7,1.4c-2.5,1.3-5.3,2.2-8.2,2.3c-0.5,0-1.1,0.2-1.5,0.5
	c-1.4,1-3.1,1.2-4.6,2c-0.4,0.2-0.9,0.1-1.3-0.1c-1.2-0.6-1.8-0.4-2.6,0.7c-0.3,0.4-0.5,1.3-1.2,1.1c-0.7-0.2-0.9-1-1-1.7
	c-0.4-1.8-0.5-1.9-2.1-1.1c-1.5,0.8-3.1,1-4.6,1.6c-0.9,0.4-1.8,0.9-2.2,1.7c-1,1.8-2.6,3.1-4,4.6c-0.7,0.7-1.4,1.3-2,2.1
	c-0.9,1.2-1,1.2-2.1,0.2c2.6-5.1,5.7-9.9,8.9-14.6c0.4,0.2,0.2,0.8,0.8,1c0,0.6-0.7,0.8-0.7,1.4c-0.6,0.5-0.9,1.2-1,1.9
	c-0.1,0-0.3,0-0.3,0.1c-1,1.6-1.8,3.2-3,4.7c-0.1,0.1,0,0.3,0.2,0.4c1.3-1.1,1.7-2.8,2.9-4c0.2-0.1,0.4-0.1,0.5-0.2
	c1.8-1,3.3-2.5,5-3.7c1.5-1.2,3.5-1.4,5.1-2.2c0.7-0.3,1.7-0.3,2.2,0.6c0.3,0.6,0.8,0.5,1.3,0.2c0.8-0.4,1.5-0.7,2-1.5
	c0.3-0.6,0.8-0.8,1.4-0.7c1.3,0.3,2.2-0.2,3.2-1.1c1.3-1.3,1.6-1.3,3,0c0.5,0.5,1,0.4,1.5,0.1c0.7-0.4,1.4-0.6,2-0.1
	s1.1,0.5,1.8,0.2c0.5-0.2,1-0.3,1.5-0.2c1.8,0.2,3.5-0.5,5.2-1.1s3.2-1.5,4.8-2.3c2.1-1.2,4.5-1.2,6.8-1.6c0.5-0.1,1.1,0,1.4-0.5
	c1.1-1.4,3.2-2.3,2.7-4.7c0-0.2,0.1-0.4,0.2-0.6c0.6-1.9,2.4-2.3,3.9-2.9s3.6-0.2,4.8-1.8c0.1-0.1,0.4-0.1,0.7-0.1
	c0.3,0,0.6-0.2,0.7-0.4c0.3-0.9,1.1-1.2,1.9-1.4c0.4-0.1,0.8-0.3,0.9-0.6c0.3-0.5,0.7-0.6,1.2-0.6s0.9-0.1,1.3-0.3
	c1.9-1.1,3.7-2.3,5.7-3.2c1.3-0.6,2.1-1.4,2.4-2.7c0.1-0.5,0.3-0.5,0.8-0.5c1.4-0.1,2.6-0.7,3.7-1.6
	C103.9,60.9,105.3,61.9,106.5,63.2L106.5,63.2z"/>
<path class="st3" d="M205.6,294.4c-0.6,0-0.9-0.2-0.5-0.8c0.9-1.6,1.6-3.4,3.1-4.7c0.8-0.7,1.1-1.8,1.3-2.9c0.2-1.5,0.7-3,2-4.1
	c1.6-1.3,1.6-3.3,2-5c0.2-0.8-0.6-1.7-0.7-2.7c-0.2-1.5-1.2-2.8-1.4-4.4c-0.1-0.7-0.6-1.3-1-1.9c-0.7-1-0.8-1.9,0.1-2.8
	c0.4-0.3,0.6-0.8,0.5-1.3c-0.3-1.5-0.2-3.1-1.1-4.5c-0.5-0.8-0.9-1.7-1-2.7c-0.6-3.5-2.9-5.5-5.8-7.1c-1-0.6-2-1-2.9-1.7
	c-0.3-0.3-0.7-0.4-1.1-0.5c-1.3-0.2-2.2-0.7-3.1-1.9c-0.6-0.9-2.1-1.3-3.3-1.7c-1.1-0.4-1.8-1.3-2.6-2.1c-0.4-0.4-0.4-0.8,0.1-1.3
	c0.7-0.6,1.1-1.3,0.8-2.3c-0.1-0.2-0.1-0.6,0.2-0.8s0.5,0.1,0.7,0.2c0.6,0.6,1.3,1.1,2,0.1c1.1,0,1.8,0.8,2.7,1.2
	c5.9,2.7,11,6.4,14.3,12.2c2,3.6,3.2,7.5,3.8,11.5c0.6,4.5,0.9,9,1.3,13.4c0.5,5.3-1.4,9.7-5.1,13.4
	C209.1,291.1,207.6,293,205.6,294.4L205.6,294.4z"/>
<path class="st4" d="M198.2,167.5C198.2,167.5,198.1,167.5,198.2,167.5c-0.4,0.6-0.6,1.4-1.2,1.3c-0.7-0.1-0.5-1-0.5-1.6
	c0-0.8-0.2-1.5-0.5-2.2c-1.2-2.5-2.9-4.7-5.5-6c-2.5-1.3-4.9-2.8-7.5-3.8c-3.2-1.3-6.4-0.9-9.6-0.7c-1.9,0.1-3.9-0.1-5.8,0.6
	c-0.5,0.2-1.1,0.3-1.6,0.5c-1.2,0.6-3.8,0.1-4.7-0.9c-0.2-0.2-0.4-0.4-0.2-0.7c0.1-0.2,0.4-0.2,0.6-0.2c1.6,0.1,3.2,0.1,4.7-0.4
	c1.5-0.4,3-0.6,4.5-0.7c0.8-0.1,1.6-0.3,2.4-0.7c1.2-0.7,2.5-0.9,3.9-0.5c1,0.2,1.9,0.1,2.5-0.9c0.2,0,0.3,0,0.5,0.1
	c0.4,0.3,0.8,0.3,1.2,0c2.7,0.3,5.4,0.6,7.5,2.6c3.7,3.4,7.5,6.9,8.9,12.1c0.1,0.4,0.1,0.8,0.2,1.2c-0.4,0.3-0.4,0.6,0.1,0.7
	C198.1,167.2,198.2,167.3,198.2,167.5L198.2,167.5z"/>
<path class="st4" d="M138.2,318.3c-1.3-0.7-2.6-1.2-3.7,0.2c-0.2,0.2-0.4,0.2-0.6,0.1c-1.2-0.3-2.3,0-3.4,0.4c-1,0.4-2,0.4-3,0.7
	c-1.2,0.3-1.7-0.6-2.5-1.1c-1.8-1.3-3.6-2.7-5.3-4c-0.2-0.2-0.7-0.3-0.5-0.7c0.1-0.4,0.6-0.4,0.9-0.4c2.8,0.5,5.6,0.3,8.5,0.4
	c3.9,0.1,7.8,0.5,11.6-0.5c2-0.5,4.1-0.4,6.2-0.4c0.8,0,1.3,0.4,0.8,1.3c-0.1,0.2-0.1,0.5-0.2,0.7
	C144,316.2,141.1,317.3,138.2,318.3L138.2,318.3z"/>
<path class="st5" d="M81.3,52.7c1.1-0.3,2.2-0.5,3.4-0.4c0.2,0.1,0.3,0.3,0.4,0.4c0.8,0.5,0.9,1.1-0.1,1.5c-0.4,0.2-0.8,0.5-1.2,0.6
	c-1.6,0.6-2.9,1.7-4.4,2.5c-2.9,1.7-5.8,3.3-8.8,4.8c-1.6,0.8-3.5,1.2-4.7,2.8c-0.5,0.6-1.3,0.8-2,0.2c-0.9-0.7-1.8-0.7-2.9-0.3
	c-1.4,0.5-1.8,0.2-1.4-1.2v-0.1c0.4-0.8,1.5-1.2,1.7-2.1c0.4-0.2,0.6-0.7,1.1-0.8c0.2,0,0.5,0,0.7-0.1c1.9-0.8,3.8-1.6,5.8-2.4
	c1-0.4,1.9-0.8,2.1-1.9c1.2-0.4,2.3-0.6,3.8-1.3c0.7,0.7,1.2,0.7,2.2,0.5C78.9,55.1,79.7,53.4,81.3,52.7L81.3,52.7z"/>
<path class="st6" d="M59.7,63.6L59.7,63.6c-0.3,1.4,0,1.8,1.4,1.3c1.1-0.4,2-0.4,2.9,0.3c0.8,0.6,1.6,0.4,2-0.2
	c1.2-1.6,3.1-1.9,4.7-2.8c3-1.5,5.9-3.1,8.8-4.8c1.4-0.9,2.8-1.9,4.4-2.5c0.4-0.2,0.8-0.4,1.2-0.6c1-0.5,0.8-1,0.1-1.5
	c-0.2-0.1-0.4-0.3-0.5-0.5c2.1,0,4.1-0.9,6.1-1.3c0.8,0.4,1.8,0.1,2.6,0.2c0,0.3,0,0.5,0.2,0.8c0.5,0.6,0,0.9-0.4,1.1
	c-0.6,0.2-1.2,0.4-1.8,0.5c-4.1,0.7-7.7,2.7-10.7,5.3c-2.4,2.1-5.3,3.2-8,4.7c-1.7,0.9-3.5,1.8-5.3,2.5c-1.9,0.8-3.4,2.3-5.3,3.1
	c-0.7,0.3-0.9,0.2-0.9-0.5c-0.1-1.4-0.4-1.5-1.8-1.6c-2.2-0.2-3.9,1.1-5.9,1.7c0-0.4-0.2-0.6-0.5-0.7c-1-0.6-1.3-1.3-0.5-2.3
	c0.4-0.5,0.4-1.1,0.1-1.7c0.4-0.4,0.9-0.6,1.4-0.8c0.1,0.5-0.1,1-0.3,1.5c-0.3,0.8-0.3,1.5,0.4,1.9s1.5,0.6,2.2,0
	c0.9-0.8,2.2-1.3,2.7-2.6C59,63.6,59.4,63.6,59.7,63.6L59.7,63.6z"/>
<path class="st3" d="M192.2,235.1c-2.2-0.4-3.9-1.6-4.9-3.5c-0.4-0.8,0.3-1.6,0.6-2.5c0.2-0.7,0.6-1.3,0.3-2.2
	c-0.3-0.8-0.6-1.5-1.7-1.5c-0.4,0-0.8-0.3-0.9-0.7c-0.3-1.2-0.6-2.4-0.8-3.6c-0.1-1.4-0.1-2.8-0.4-4.1c-0.2-0.8,0.1-1.8,0.2-2.7
	c0.1-0.5,0.2-0.9,0-1.4c-0.1-0.2-0.2-0.5,0.1-0.6s0.6,0.1,0.7,0.3c0.3,0.7,0.9,1.3,1.5,1.7c1.9,5.5,3.5,11.1,4.5,16.8
	C191.6,232.5,192.2,233.8,192.2,235.1L192.2,235.1z"/>
<path class="st7" d="M52.5,64c0.4,0.6,0.3,1.2-0.1,1.7c-0.8,1-0.5,1.7,0.5,2.3c0.3,0.2,0.5,0.4,0.5,0.7c-2.2,1.4-4.5,2.3-7,2.9
	c-1.1,0.2-1.6,1.3-2.3,2c-1,1-2,1.9-2.5,3.3c-0.5,0.1-0.4,0.7-0.7,0.9c-1.1-0.3-2.1-0.6-3.2-0.1c-0.8,0.4-1.5,0.9-2.2,1.4
	c-0.2,0.2-0.5,0.4-0.9,0.2c-0.2-0.1-0.2-0.3-0.2-0.5c0.1-0.4,0.4-0.5,0.7-0.5c0.5,0,0.9-0.3,1.2-0.7c1.3-1.2,2.5-2.7,4-3.8
	c0.7-0.5,0.8-1.2,0.2-1.8c0.3-0.4,0.8-0.8,1.3-1c0,0,0.1,0.1,0.2,0.1c0-0.1,0-0.2,0.1-0.3l0,0c0.7,0,1.5,0.6,2.2-0.2
	c1.4-1.4,3-2.7,4.8-3.5c1.3-0.6,2.2-1.6,2.8-2.8C52.1,64.3,52.3,64.1,52.5,64L52.5,64z"/>
<path class="st8" d="M40.5,72c0.6,0.7,0.4,1.4-0.2,1.8c-1.5,1.1-2.7,2.5-4,3.8c-0.3,0.3-0.7,0.7-1.2,0.7c-0.3,0-0.6,0.1-0.7,0.5
	c0,0.2,0,0.4,0.2,0.5c0.3,0.2,0.6,0,0.9-0.2c0.7-0.5,1.3-1.1,2.2-1.4c1.1-0.5,2.2-0.2,3.2,0.1c-0.1,0.3-0.5,0.6-0.5,1
	c-0.5,0.2-0.6,0.7-1,1c-0.9-0.1-1.7-0.2-2.6-0.1c-1.2,0.2-1.6,1.2-2.4,1.8c-1.2,0.8-1.8,1.9-2.4,3.2c-0.1,0.2-0.2,0.3-0.2,0.5
	C31,85.1,30.5,85.5,30,86s-1,0.9-1.7,0.9c0.2-0.2,0.3-0.5,0.5-0.7c1.1-0.9,1.7-2.3,2.7-3.2c0.8-0.8,1.4-1.6,0.9-2.8
	C34.9,77.2,37.3,74.2,40.5,72L40.5,72z"/>
<path class="st8" d="M59.8,63.7c-0.4,0-0.8,0-0.9,0.4c-0.5,1.3-1.8,1.7-2.7,2.6c-0.7,0.6-1.5,0.4-2.2,0s-0.7-1.2-0.4-1.9
	c0.2-0.5,0.4-1,0.3-1.5c0.4-0.2,0.8-0.4,1.2-0.5c0.4,0.6,1.1,0.6,1.7,0.5c1.3-0.2,3,0.4,3.8-1.3c0.1-0.2,0.6-0.2,1-0.3
	C61.3,62.6,60.3,62.9,59.8,63.7z"/>
<path class="st9" d="M176.3,82.8c0.3-0.6,0.5-1.1,0.8-1.7c0.2-0.3,0.4-0.8,0.6-0.8c1.6-0.2,2.3-1.4,3.2-2.4c0.3-0.3,0.9-0.3,1.2-0.5
	c-0.1,1.5-0.5,2.8-1.3,4.1c-0.9,1.4-2.1,1.9-3.7,1.5c-0.2-0.1-0.4-0.2-0.7-0.2L176.3,82.8z"/>
<path class="st10" d="M51.8,64.2c-0.6,1.3-1.3,2.4-2.7,3c-1.8,0.8-3.1,2.2-4.6,3.5c-0.8,0.7-1.8,0-2.5,0
	C45,68.2,47.8,65.5,51.8,64.2z"/>
<path class="st2" d="M61.5,61.7c-0.3,0.1-0.9,0.1-1,0.3c-0.8,1.7-2.5,1.2-3.8,1.3c-0.6,0.1-1.3,0.1-1.7-0.5c2.2-1.5,4.5-2.7,7.1-3.3
	c0.7,0.2,0.5,0.9,0.5,1.4C62.1,61,61.9,61.5,61.5,61.7L61.5,61.7z"/>
<path class="st8" d="M62.5,60.7c0-0.5,0.3-1-0.4-1.2c3-1,5.8-2.5,8.9-3.3c-0.2,1.1-0.9,1.6-1.9,2c-2,0.7-3.9,1.6-5.8,2.4
	C63,60.7,62.8,60.7,62.5,60.7L62.5,60.7z"/>
<path class="st11" d="M28.8,86.2c-0.2,0.2-0.3,0.5-0.5,0.7c-1.3,1.4-2.2,3.1-3.6,4.3c-0.5-0.1-0.3-0.8-0.8-1c1.4-2,3-3.9,4.6-5.7
	C29,85,28.7,85.6,28.8,86.2L28.8,86.2z"/>
<path class="st10" d="M28.8,86.2c-0.1-0.6,0.2-1.2-0.2-1.7c1.2-1.5,2.4-3,3.8-4.3c0.5,1.2,0,1.9-0.9,2.8
	C30.5,83.9,29.9,85.2,28.8,86.2L28.8,86.2z"/>
<path class="st10" d="M81.3,52.7c-1.6,0.7-2.4,2.4-4.2,2.8c-1,0.2-1.8,0.3-2.5-0.5C76.7,53.8,79.1,53.6,81.3,52.7L81.3,52.7z"/>
<path class="st12" d="M93.3,51.2c-0.9-0.1-1.8,0.2-2.6-0.2c1.3-0.2,2.2-0.2,3.4,0c0,0.1,0,0.1,0,0.2l0,0
	C93.8,51.2,93.5,51.2,93.3,51.2L93.3,51.2z"/>
<path class="st0" d="M198.1,167c-0.5-0.1-0.6-0.4-0.1-0.7C198.2,166.5,198.1,166.7,198.1,167z"/>
<path class="st0" d="M181.4,150.5c-0.4,0.3-0.8,0.3-1.2,0C180.6,150.4,180.9,150.3,181.4,150.5z"/>
<path class="st10" d="M42,70.8c0,0.1,0,0.2-0.1,0.3c0,0-0.1-0.1-0.2-0.1C41.8,71,41.9,70.9,42,70.8z"/>
<path class="st13" d="M102.4,60c-1.1,0.9-2.3,1.5-3.7,1.6c-0.5,0-0.7,0.1-0.8,0.5c-0.3,1.4-1.1,2.1-2.4,2.7c-2,0.9-3.8,2.1-5.7,3.2
	c-0.4,0.3-0.9,0.4-1.3,0.3c-0.5,0-0.9,0.1-1.2,0.6c-0.2,0.4-0.5,0.5-0.9,0.6c-0.8,0.2-1.6,0.5-1.9,1.4c-0.1,0.3-0.3,0.4-0.7,0.4
	c-0.2,0-0.6,0-0.7,0.1c-1.2,1.6-3.2,1.1-4.8,1.8c-1.6,0.7-3.3,1-3.9,2.9c-0.1,0.2-0.2,0.4-0.2,0.6c0.6,2.4-1.5,3.3-2.7,4.7
	c-0.3,0.4-0.9,0.4-1.4,0.5c-2.3,0.5-4.7,0.5-6.8,1.6c-1.6,0.9-3.1,1.7-4.8,2.3c-1.7,0.6-3.4,1.2-5.2,1.1c-0.5,0-1,0-1.5,0.2
	c-0.6,0.3-1.2,0.3-1.8-0.2s-1.3-0.3-2,0.1c-0.5,0.3-1,0.4-1.5-0.1c-1.3-1.2-1.6-1.3-3,0c-0.9,0.9-1.8,1.5-3.2,1.1
	c-0.6-0.2-1,0.1-1.4,0.7c-0.4,0.8-1.2,1.1-2,1.5c-0.5,0.3-1,0.3-1.3-0.2c-0.6-0.9-1.6-1-2.2-0.6c-1.7,0.9-3.6,1.1-5.1,2.2
	c-1.6,1.3-3.1,2.7-5,3.7c-0.2,0.1-0.4,0.1-0.5,0.2c0-0.6,0.5-0.8,0.7-1.2c0.1-0.1,0.2-0.2,0.2-0.2c0.5-0.1,1-0.2,0.7-1
	c0-0.2,0-0.4,0.2-0.5c0.9,0.1,1.6-0.3,2-0.9c1.5-2.5,3.9-3.7,6.2-5.1c1.3-0.8,2.9-1.2,4.4-0.2c1.5,1.1,1.5,1.1,2.7-0.3
	c0.2-0.2,0.2-0.4,0.4-0.6c1.2-1.4,2.6-2.5,4.6-1.8c0.3,0.1,0.6,0,0.9-0.1c0.8-0.4,1.7-0.5,2.5,0.1c1.1,0.8,1.9,0.3,2.8-0.3
	c1.5-1,3-1.5,4.9-0.9c1.5,0.5,3.3,0.8,4.5-1c0.1-0.2,0.5-0.3,0.7-0.4c1.9-0.5,3.6-1.3,5.6-1.5c1.1-0.1,1.3-0.6,0.9-1.6
	c-0.6-1.3-0.1-2.7,0.8-3.7c0.8-0.8,1.9-0.9,2.9-1.3c1.6-0.8,3.1-1.9,4.9-2.4c0.4-0.1,0.8-0.3,1.2-0.5c2-1.3,3.9-2.6,5.9-3.9
	c0.7-0.5,1.5-0.7,2.1-1.4c2-2.1,4.2-3.8,7.2-4.4c2.3-0.5,4.6-1.5,6.8-2.3C100.7,58.7,101.6,59.3,102.4,60L102.4,60z"/>
<path class="st11" d="M99.8,58.1c-2.3,0.8-4.5,1.9-6.8,2.3c-3,0.6-5.2,2.3-7.2,4.4c-0.6,0.6-1.4,0.9-2.1,1.4c-2,1.3-3.9,2.7-5.9,3.9
	c-0.4,0.2-0.8,0.4-1.2,0.5c-1.8,0.5-3.3,1.5-4.9,2.4c-0.9,0.5-2,0.5-2.9,1.3c-1,0.9-1.4,2.4-0.8,3.7c0.4,1,0.2,1.5-0.9,1.6
	c-2,0.2-3.8,1-5.6,1.5c-0.3,0.1-0.6,0.2-0.7,0.4c-1.2,1.8-2.9,1.5-4.5,1c-1.9-0.6-3.5-0.1-4.9,0.9c-1,0.6-1.7,1.1-2.8,0.3
	c-0.8-0.6-1.7-0.5-2.5-0.1C45.6,84,45.3,84.1,45,84c-2-0.7-3.4,0.5-4.6,1.8c-0.2,0.2-0.3,0.4-0.4,0.6c-1.2,1.4-1.2,1.3-2.7,0.3
	s-3-0.6-4.4,0.2c-2.3,1.4-4.7,2.6-6.2,5.1c-0.4,0.6-1.1,1.1-2,0.9c0-0.1,0-0.2,0-0.2c0.4-0.6,0.9-1.1,1.4-1.4c0.6-0.1,0.9-0.4,1-1
	c0.2-0.2,0.3-0.3,0.5-0.5c1.7-1.8,3.8-3.1,5.5-4.9c0.8-0.9,1.9-1.4,3-1.2c1.1,0.2,1.6-0.1,2.1-1c0.6-1,1.9-1.1,2.6-0.2
	c0.9,1.1,1,1.1,2,0.2s2.2-1.6,3.5-1.4c1.6,0.2,3.1-0.1,4.7-0.7c1.6-0.5,2.9-1.6,4.5-2.2s3.1-1.2,4.5-2.3c1.7-1.4,3.8-2.3,5.8-3.2
	c1.7-0.7,3.6-1,5-2.4c0.7-0.7,1.6-1,2.5-1.2c0.7-0.2,1.5-0.5,2.1-0.9c1.5-1.1,3.1-2.1,4.8-2.8c0.9-0.4,2-0.7,2.7-1.5
	c1.4-1.5,2.9-2.9,4.6-3.9c2.2-1.3,4.5-2.4,7.1-2.8c1.1-0.2,2.1-0.7,2.5-1.9C98.2,56.3,99,57.2,99.8,58.1L99.8,58.1z"/>
<path class="st12" d="M97.2,55.5c-0.4,1.2-1.4,1.7-2.5,1.9c-2.6,0.4-4.9,1.6-7.1,2.8c-1.8,1-3.2,2.4-4.6,3.9
	c-0.7,0.8-1.8,1.1-2.7,1.5c-1.7,0.8-3.3,1.7-4.8,2.8c-0.6,0.4-1.3,0.7-2.1,0.9c-1,0.2-1.9,0.5-2.5,1.2c-1.4,1.4-3.3,1.7-5,2.4
	c-2.1,0.8-4.1,1.8-5.8,3.2c-1.4,1.1-2.9,1.7-4.5,2.3C54,79,52.7,80,51.1,80.6c-1.5,0.5-3,0.9-4.7,0.7c-1.4-0.2-2.5,0.5-3.5,1.4
	s-1.2,0.9-2-0.2c-0.7-0.9-2-0.8-2.6,0.2c-0.5,0.9-1,1.2-2.1,1s-2.2,0.4-3,1.2c-1.6,1.8-3.8,3.1-5.5,4.9c0-0.8,0.5-1.2,1-1.8
	c1-1.1,2.5-1.6,3-3.1c0.1-0.2,0.2-0.3,0.2-0.5c0.8-0.3,1.4-0.8,2-1.4c0.9-0.8,1.9-1.5,3.1-1.5c1.3,0,2-0.5,2.3-1.9
	c0.3-0.3,0.5-0.8,1-1c0.5-0.1,1-0.3,1.5-0.2c0.6,0,0.9,0.3,0.8,0.8c-0.2,0.7-0.2,1.2,0.5,1.5s1-0.4,1.4-0.7c1.7-1.1,3.2-2.7,5.5-2.2
	c0.4,0.1,0.9,0,1.3-0.2c2.2-1,4.5-2,6.7-2.9c3.1-1.2,5.3-4,8.5-5.1c1.2-0.4,2.3-1.1,3.5-1.5s2.5-0.8,3.6-1.6
	c1.2-0.9,2.4-1.8,3.6-2.7c1.2-0.8,2.4-1.5,3.6-2.3c2.3-1.6,4.3-3.7,6.9-4.9c0.5-0.2,1-0.6,1.5-0.7c2-0.4,3.9-0.8,5.9-1.2
	c0.6-0.1,0.8-0.4,0.8-1l0,0C96.6,54.3,96.8,55,97.2,55.5L97.2,55.5z"/>
<path class="st2" d="M68.7,297.5c-1.8-0.5-3.3-1.6-4.7-2.7c-2.1-1.6-4.2-3.1-6.1-4.9c-2.8-2.6-4.8-5.6-4.9-9.6
	c0-0.9-0.3-1.8-0.2-2.7c0-0.8,0.3-1.1,1.1-1.3c2.5-0.5,2.5-0.5,2.5,2.1c0,1.1,0.2,2.2,0.5,3.2c0.7,2,0.9,4.3,2.4,6
	c1,1.2,2.3,1.8,3.4,2.8c0.6,0.5,1.3,1,1.7,1.7C65.5,294.1,67.3,295.7,68.7,297.5L68.7,297.5z"/>
<path class="st9" d="M168.6,80.7c-0.4-2.4,1-3.8,2.5-5.2c0.6-0.5,1.3-0.6,1.7-0.1c0.2,0.3,0.5,0.5,0.6,0.9c0.2,0.4,0,0.8-0.2,1.1
	c-0.2,0.2-0.3,0.4-0.5,0.6c-0.1,0.1-0.2,0.3-0.3,0.4s-0.1,0.2-0.2,0.3c-0.1,0.3-0.3,0.5-0.5,0.7s-0.3,0.3-0.5,0.5
	c0,0-0.1,0.1-0.1,0.2s0,0.1-0.1,0.2c-0.1,0.2-0.1,0.4-0.2,0.6c0,0.2,0,0.4,0,0.6s0.1,0.4,0.1,0.5c0,0,0,0,0,0.1
	c0.5,1.4,0.2,2.7-0.5,4c-0.5,0.9-1,0.8-1.5,0c-1-1.5-1.5-3-0.5-4.7C168.6,81.1,168.6,80.8,168.6,80.7z"/>
<path class="st12" d="M94.1,51.1c0.9,0.1,1.8,1.5,1.9,2.9l0,0c-0.4,0-0.6-0.3-0.9-0.5C94.9,52.7,94.1,52.1,94.1,51.1
	C94,51.2,94.1,51.1,94.1,51.1z"/>
<path class="st0" d="M59.3,101.9c-0.1,0-0.2,0-0.2-0.1s0-0.1,0.1-0.2c0.1,0,0.2,0,0.2,0.1C59.4,101.8,59.3,101.8,59.3,101.9z"/>
<path class="st14" d="M31.7,85c-0.5,1.5-2.1,2-3,3.1c-0.5,0.5-1,1-1,1.8c-0.2,0.2-0.3,0.3-0.5,0.5c-0.6,0.1-0.9,0.4-1,1
	c-0.6,0.4-1,0.9-1.4,1.4c-0.2,0-0.5,0-0.7,0c0-0.6,0.8-0.8,0.7-1.4c1.4-1.2,2.4-2.9,3.6-4.3c0.7,0,1.2-0.4,1.7-0.9
	C30.5,85.6,31,85.1,31.7,85L31.7,85z"/>
<path class="st11" d="M23.5,94.6c-0.2,0.4-0.8,0.6-0.7,1.2c-1.1,1.2-1.6,2.9-2.9,4c-0.2,0-0.3-0.2-0.2-0.4c1.1-1.5,2-3.1,3-4.7
	c0-0.1,0.2-0.1,0.3-0.1C23.2,94.6,23.3,94.6,23.5,94.6L23.5,94.6z"/>
<path class="st12" d="M23.5,94.6c-0.2,0-0.3,0-0.5,0c0.1-0.8,0.4-1.4,1-1.9c0.2,0,0.5,0,0.7,0c0,0.1,0,0.2,0,0.2
	c-0.2,0.1-0.2,0.3-0.2,0.5c-0.4,0.2-0.7,0.5-0.7,1C23.7,94.4,23.6,94.5,23.5,94.6L23.5,94.6z"/>
<path class="st8" d="M94,51.2c0.1,0.9,0.9,1.5,1,2.4c-0.9,0.8-2.1,0.8-3.1,0.9c-3,0.3-5.4,1.7-7.8,3.4c-2.3,1.6-4.5,3.4-6.9,4.8
	c-1.4,0.8-2.9,1.5-4.2,2.3c-2,1.2-4.1,2.4-6.4,2.9c-2.5,0.5-4.4,1.8-6.1,3.4c-1.5,1.5-3.4,1.8-5.4,2.1c0.1-0.4,0.3-0.5,0.5-0.7
	c0.9-0.8,1.6-1.7,1.8-2.9c0.2-1.1-0.6-1.8-1.6-1.4c-0.6,0.2-1.3,0.4-1.9,0.7c-1.5,0.8-3.2,1.3-4.2,2.9c-0.5,0.8-1.1,1.5-1.7,2.2
	c-0.6,0.7-1.2,1.4-2.4,1c-0.8-0.3-1.7,0-2.4,0.7c-0.4,0.4-0.9,0.8-1.5,0.9c0.5-1.3,1.5-2.3,2.5-3.3c0.7-0.7,1.2-1.7,2.3-2
	c2.5-0.6,4.9-1.4,7-2.9c1.9-0.6,3.7-1.9,5.9-1.7c1.4,0.2,1.7,0.3,1.8,1.6c0,0.8,0.2,0.8,0.9,0.5c2-0.7,3.4-2.3,5.3-3.1
	c1.8-0.8,3.6-1.6,5.3-2.5c2.7-1.5,5.6-2.6,8-4.7c3.1-2.7,6.6-4.6,10.7-5.3c0.6-0.1,1.2-0.3,1.8-0.5c0.4-0.2,0.9-0.5,0.4-1.1
	c-0.2-0.2-0.2-0.5-0.2-0.8C93.6,51.2,93.8,51.2,94,51.2L94,51.2z"/>
<path class="st14" d="M41.5,76.8c0.6-0.1,1.1-0.5,1.5-0.9c0.7-0.7,1.6-1,2.4-0.7c1.2,0.4,1.8-0.3,2.4-1c0.6-0.7,1.2-1.4,1.7-2.2
	c1-1.5,2.7-2.1,4.2-2.9c0.6-0.3,1.2-0.5,1.9-0.7c1-0.3,1.8,0.3,1.6,1.4c-0.2,1.2-0.9,2.1-1.8,2.9c-0.2,0.2-0.4,0.2-0.5,0.7
	c2-0.3,3.9-0.6,5.4-2.1c1.7-1.6,3.6-2.9,6.1-3.4c2.3-0.4,4.4-1.7,6.4-2.9c1.4-0.8,2.9-1.5,4.2-2.3c2.4-1.4,4.6-3.2,6.9-4.8
	c2.3-1.7,4.8-3.1,7.8-3.4c1.1-0.1,2.2-0.1,3.1-0.9c0.3,0.1,0.5,0.5,0.9,0.5c0.1,0.6-0.2,0.9-0.8,1c-2,0.4-3.9,0.8-5.9,1.2
	c-0.6,0.1-1,0.4-1.5,0.7c-2.6,1.2-4.6,3.3-6.9,4.9c-1.2,0.8-2.4,1.5-3.6,2.3s-2.4,1.8-3.6,2.7c-1.1,0.8-2.4,1.1-3.6,1.6
	c-1.2,0.4-2.3,1.1-3.5,1.5c-3.2,1.1-5.4,3.8-8.5,5.1C55.5,76,53.3,77,51.1,78c-0.4,0.2-0.8,0.3-1.3,0.2c-2.3-0.5-3.8,1.1-5.5,2.2
	c-0.5,0.3-0.8,0.9-1.4,0.7c-0.7-0.3-0.7-0.8-0.5-1.5c0.1-0.5-0.2-0.8-0.8-0.8c-0.5,0-1,0.2-1.5,0.2c0-0.4,0.3-0.6,0.5-1
	C41.1,77.5,41,76.9,41.5,76.8L41.5,76.8z"/>
<path class="st14" d="M39.3,79.7c-0.3,1.4-1,1.9-2.3,1.9s-2.2,0.7-3.1,1.5c-0.6,0.6-1.2,1.1-2,1.4c0.6-1.2,1.3-2.4,2.4-3.2
	c0.8-0.6,1.2-1.6,2.4-1.8C37.7,79.4,38.5,79.6,39.3,79.7z"/>
<path class="st11" d="M23.8,94.3c0-0.5,0.3-0.8,0.7-1C24.8,94.1,24.3,94.2,23.8,94.3z"/>
<path class="st12" d="M26.1,91.2c0.1-0.6,0.4-0.9,1-1C27,90.8,26.7,91.1,26.1,91.2z"/>
</svg>
