<?xml version="1.0" encoding="utf-8"?>
<!-- Generator: Adobe Illustrator 27.0.0, SVG Export Plug-In . SVG Version: 6.00 Build 0)  -->
<svg version="1.1" id="Layer_1" xmlns="http://www.w3.org/2000/svg" xmlns:xlink="http://www.w3.org/1999/xlink" x="0px" y="0px"
	 viewBox="0 0 1242.3 314.3" style="enable-background:new 0 0 1242.3 314.3;" xml:space="preserve">
<style type="text/css">
	.st0{fill:currentColor;}
</style>
<g>
	<path class="st0" d="M0,7.7h55.4v157.4l71.2-81.4h70.2l-77.3,80.4l80.3,134.4h-68.7l-52.3-92.2l-23.4,24.3v67.9H0V7.7z"/>
	<path class="st0" d="M294.5,84.7c10.5,5,19.3,12.3,26.4,22L313.6,4.1L370.6,0l20.8,290.6l-54.7,3.9l-2.1-29.8
		c-7.1,13.3-15.6,23.3-25.5,29.8c-9.9,6.5-22.4,10.3-37.7,11.4c-25.1,1.8-47-6.9-65.7-26s-29.1-44.6-31.4-76.4
		c-2.6-36.7,3.8-66.2,19.2-88.5c15.4-22.3,37.3-34.4,65.6-36.5C272.2,77.7,284,79.7,294.5,84.7L294.5,84.7z M319.3,237.1
		c7.4-12.4,10.5-28.1,9.1-46.9c-1.9-26.3-9.9-44.7-24-55c-8.6-6.3-18.4-9-29.2-8.2c-16.5,1.2-28.1,8.3-34.9,21.2
		c-6.8,13-9.6,28.7-8.2,47.1c1.4,19.9,6.5,35.5,15.2,46.8c8.7,11.4,21,16.5,36.9,15.3C300.2,256.3,311.9,249.5,319.3,237.1
		L319.3,237.1z"/>
	<path class="st0" d="M522.3,77.7c0.7,0.1,2.3,0.2,4.8,0.3v57.8c-3.6-0.4-6.7-0.7-9.5-0.8c-2.8-0.1-5-0.2-6.7-0.2
		c-22.7,0-37.9,7.4-45.7,22.2c-4.4,8.3-6.5,21.1-6.5,38.4v103.1h-56.8V82.7h53.8v37.6c8.7-14.4,16.3-24.2,22.8-29.5
		c10.6-8.8,24.3-13.3,41.2-13.3C520.6,77.6,521.5,77.6,522.3,77.7L522.3,77.7z"/>
	<path class="st0" d="M1000.3,83.3c9.2,3.7,17.6,10.2,25.1,19.4c6.1,7.5,10.2,16.8,12.3,27.7c1.3,7.3,2,17.9,2,31.9l-0.4,136h-57.8
		V160.9c0-8.2-1.3-14.9-4-20.2c-5-10-14.2-15-27.7-15c-15.6,0-26.3,6.5-32.3,19.4c-3,6.9-4.5,15.1-4.5,24.7v128.5h-56.8V169.8
		c0-12.8-1.3-22.1-4-27.9c-4.8-10.4-14-15.6-27.9-15.6c-16.1,0-26.9,5.2-32.5,15.6c-3,5.9-4.5,14.8-4.5,26.5v129.8h-57.2V82.9H785
		v31.5c7-11.2,13.6-19.2,19.8-23.9c11-8.4,25.1-12.7,42.6-12.7c16.5,0,29.8,3.6,40,10.9c8.2,6.7,14.4,15.4,18.6,25.9
		c7.4-12.7,16.6-22,27.5-27.9c11.6-5.9,24.5-8.9,38.8-8.9C981.7,77.8,991.1,79.6,1000.3,83.3L1000.3,83.3z"/>
	<path class="st0" d="M689,99.4c-18.5-9.1-39.7-13.5-63.4-13.2c-36.5,0.5-62,10.3-76.8,29.5c-9.2,12.3-14.3,27.8-15.3,46.7l54.4-0.7
		c1.2-8.3,3.8-15,7.8-19.9c5.5-6.7,15-10.1,28.6-10.3c12-0.2,21.2,1.4,27.5,4.7s9.5,9.3,9.6,18.2c0.1,7.3-3.9,12.7-12,16.2
		c-4.5,2-12,3.8-22.5,5.2l-19.3,2.6c-21.9,3.1-38.5,7.9-49.7,14.5c-20.4,12.1-30.5,31.5-30.1,58c0.3,20.5,6.9,36.2,19.8,47.1
		c13,11,29.2,16.3,48.9,16.1c15.4-0.2,29.2-3.9,41.3-11c10.1-6.1,19.1-13.4,26.8-21.9l0.3,25.3l5.2-0.1l9.6-0.1l39.7-0.5l-0.7-54.8
		l-0.2-12.3l-1.2-86.7C717,126.1,707.5,108.5,689,99.4L689,99.4z M662,222.7c-0.2,18.9-5.4,31.9-15.7,39.2
		c-10.3,7.3-21.6,11-33.9,11.1c-7.8,0.1-14.4-2-19.9-6.2c-5.5-4.2-8.3-11.1-8.4-20.8c-0.1-10.8,4.2-18.9,13-24.1
		c5.2-3.1,13.8-5.8,25.8-8.1l12.8-2.6c6.4-1.3,11.4-2.6,15.1-4.1c3.7-1.4,7.3-3.3,10.9-5.6L662,222.7L662,222.7z"/>
	<path class="st0" d="M1211.1,86.9c-18.6-9.1-39.7-13.4-63.4-13c-36.4,0.6-62,10.6-76.6,29.8c-9.2,12.3-14.2,27.9-15.1,46.8
		l54.4-0.9c1.2-8.3,3.8-15,7.7-19.9c5.5-6.7,15-10.2,28.5-10.4c12-0.2,21.2,1.3,27.5,4.6s9.5,9.3,9.6,18.1
		c0.1,7.3-3.8,12.7-11.9,16.2c-4.5,2.1-12,3.8-22.4,5.3l-19.3,2.7c-21.9,3.1-38.4,8.1-49.6,14.7c-20.4,12.2-30.4,31.6-29.9,58.1
		c0.3,20.5,7,36.1,20,47.1c13,10.9,29.3,16.2,49,15.9c15.4-0.3,29.1-4,41.2-11.2c10.1-6.1,19-13.5,26.7-22l0.4,25.3l5.2-0.1l9.6-0.2
		l39.7-0.7l-0.9-54.8l-0.2-12.3l-1.5-86.7C1239.2,113.5,1229.7,96,1211.1,86.9L1211.1,86.9z M1184.6,210.3
		c-0.1,18.9-5.2,32-15.5,39.3c-10.3,7.3-21.6,11.1-33.9,11.3c-7.8,0.1-14.4-1.9-19.9-6.1c-5.5-4.2-8.3-11.1-8.5-20.7
		c-0.2-10.8,4.1-18.9,12.9-24.2c5.2-3.1,13.8-5.8,25.8-8.2l12.8-2.6c6.4-1.3,11.4-2.7,15.1-4.1c3.7-1.4,7.3-3.3,10.8-5.6
		L1184.6,210.3L1184.6,210.3z"/>
</g>
</svg>
