<?xml version="1.0" encoding="UTF-8"?>
<svg id="Layer_1" data-name="Layer 1" xmlns="http://www.w3.org/2000/svg" viewBox="0 0 216 323.79">
  <defs>
    <style>
      .cls-1 {
        fill: #141335;
      }

      .cls-2 {
        fill: #131325;
      }

      .cls-3 {
        fill: #13132d;
      }

      .cls-4 {
        fill: #13121f;
      }

      .cls-5 {
        fill: #17183e;
      }

      .cls-6 {
        fill: #1e1e40;
      }

      .cls-7 {
        fill: #1e2955;
      }

      .cls-8 {
        fill: #1f3161;
      }

      .cls-9 {
        fill: #21295b;
      }

      .cls-10 {
        fill: #151425;
      }

      .cls-11 {
        fill: #11111b;
      }

      .cls-12 {
        fill: #1d224d;
      }

      .cls-13 {
        fill: #0a090b;
      }

      .cls-14 {
        fill: #1b1b46;
      }

      .cls-15 {
        fill: #302421;
      }
    </style>
  </defs>
  <path class="cls-13" d="M198.16,167.47c1.81,4.97,1.11,9.83-.4,14.74-1.55,5.04-3.91,9.71-6.33,14.35-1.01,1.94-2.76,3.28-4.29,4.78-.96,.94-1.55,1.66-1.02,3.21,.63,1.85,.27,3.95,.76,5.89,.34,1.34,.08,2.68,0,4.02-.66-.44-1.18-1-1.51-1.74-.12-.26-.36-.47-.68-.31-.28,.14-.2,.4-.11,.62,.2,.48,.04,.92-.04,1.39-.15,.89-.42,1.86-.22,2.69,.34,1.38,.29,2.75,.42,4.13,.11,1.21,.46,2.4,.76,3.59,.1,.4,.45,.69,.9,.66,1.08-.09,1.39,.62,1.72,1.46,.32,.82-.05,1.46-.29,2.16-.28,.81-1.01,1.7-.6,2.47,1.04,1.93,2.74,3.12,4.94,3.51,.32,1.02,.71,2,1.68,2.61-.7,.99-1.33,.53-1.96-.09-.2-.2-.42-.43-.73-.25-.3,.17-.27,.52-.18,.75,.39,1-.07,1.76-.75,2.32-.58,.47-.5,.89-.13,1.3,.74,.82,1.42,1.68,2.56,2.08,1.19,.42,2.69,.8,3.34,1.71,.84,1.18,1.73,1.74,3.05,1.93,.38,.05,.76,.22,1.07,.49,.86,.73,1.89,1.16,2.87,1.71,2.87,1.61,5.16,3.67,5.76,7.15,.16,.92,.55,1.85,1.03,2.66,.83,1.4,.76,2.97,1.08,4.46,.11,.49-.15,.96-.5,1.3-.92,.91-.76,1.81-.1,2.78,.4,.59,.92,1.21,1.01,1.88,.22,1.55,1.14,2.86,1.38,4.37,.15,.96,.94,1.94,.74,2.69-.44,1.72-.43,3.71-1.99,4.99-1.3,1.06-1.72,2.53-1.96,4.08-.17,1.09-.49,2.21-1.26,2.91-1.45,1.31-2.11,3.07-3.05,4.67-.36,.61-.06,.77,.49,.79-3.38,3.24-7.26,5.67-11.59,7.44-2.29,.94-4.68,1.57-6.95,2.55-1.25,.54-2.43,1.2-3.59,1.88-3.83,2.26-8.09,3.03-12.38,3.66-3.83,.57-7.71,.57-11.59,.54-1.37-.01-2.53,.94-3.83,1.37-2.98,.97-5.91,2.13-8.85,3.21,.06-.23,.07-.48,.18-.68,.52-.93,.05-1.27-.79-1.29-2.07-.05-4.15-.14-6.17,.37-3.83,.97-7.74,.61-11.6,.46-2.81-.1-5.65,.17-8.45-.36-.34-.06-.78-.06-.91,.37-.13,.41,.3,.49,.54,.68,1.77,1.34,3.51,2.73,5.32,4.02,.74,.53,1.33,1.48,2.48,1.14,.98-.29,2.02-.29,3-.68,1.05-.42,2.2-.71,3.38-.39,.26,.07,.49,.07,.65-.13,1.15-1.43,2.42-.92,3.7-.24-2.76,1.24-5.71,1.79-8.63,2.47-2.19,.51-4.33,1.31-6.46,2.08-2.97,1.07-5.94,1.38-8.97,.3-.54-.19-1.05-.14-1.62-.07-6.32,.81-12.58,.52-18.71-1.34-3.07-.93-5.81-2.55-8.47-4.34-3.36-2.26-6.07-5.17-8.62-8.25-3.12-3.75-6.98-6.67-10.79-9.63-.52-.4-1.09-.41-1.54-.05-1.62,1.3-3.08,.92-4.75-.05-4.29-2.48-8.24-5.35-11.23-9.35-2.15-2.87-2.33-6.18-1.94-9.58,.32-2.76,1.8-4.88,3.74-6.74,.29-.28,.72-.57,.61-.97-.13-.48-.68-.26-1.05-.31-.55-.07-1.12-.08-1.68-.05-2.13,.12-3.83-.73-4.78-2.57-.98-1.88-2.68-2.84-4.2-4.1-2.02-1.68-4.18-3.32-5.77-5.37-1.34-1.74-2.92-3.23-4.31-4.91-.7-.85-1.28-1.74-1.56-2.79-.48-1.8-1.33-3.42-2.36-4.94-.9-1.33-.88-2.95-1.52-4.37-.26-.58-.43-1.21-.87-1.69-.87-.94-1.55-1.92-1.35-3.3,.07-.46-.22-.85-.54-1.16-1.49-1.43-1.86-3.3-2.06-5.22-.1-.95-.22-1.93-.19-2.85,.05-1.41-.48-2.44-1.31-3.46-.42-.52-.84-1.09-1.1-1.7-.35-.84-.74-1.4-1.79-1.39-.74,.01-1.6-1.29-1.31-1.98,.52-1.25,.34-2.86,1.82-3.63,.19-.1,.43-.45,.38-.57-.49-1.18,.43-2.08,.59-3.12,.14-.93-.05-1.77-.63-2.59-.72-1-1.43-2.06-1.85-3.2-.52-1.41-1.5-1.81-2.81-1.92-.95-.08-1.9-.19-2.85-.28-.91-.09-1.49-.47-1.8-1.43-1.4-4.27-2.5-8.63-3.15-13.06-.33-2.22-.54-4.52-.33-6.79,.09-1.01-.13-1.84-.83-2.62-1.62-1.79-2.15-3.73-.8-5.99,.8-1.34,.97-2.93,1.34-4.44,.13-.53,.17-1.12-.09-1.65-1.77-3.63-1.69-7.51-1.45-11.37,.15-2.47,.19-4.95,.36-7.42,.54-7.9,1.49-15.67,4.1-23.25,1.98-5.78,4.14-11.43,6.96-16.83,.2-.38,.46-.73,.69-1.1-.37,1.53-.12,3.13-.77,4.67-1.17,2.74-2.9,5.23-3.59,8.18-.18,.76-.38,1.52-.66,2.27-.64,1.75-1.15,3.54-1.64,5.34-.1,.39-.29,1.11,.24,1.27,.43,.13,.83-.47,1.04-.86,.44-.84,.64-1.83,1.15-2.62,1.32-2.06,2.35-4.25,3.36-6.47,.35-.76,.87-1.43,1.61-1.89,1.98-1.23,4.18-2.01,6.34-2.86,1.64-.65,3.28-1.18,4.26-2.81,.83-1.37,2.1-2.25,3.45-3.06,.54-.32,1.67-.45,.87-1.58-.05-.07,.06-.36,.16-.41,.77-.35,1.29-1.14,2.32-1.06,2.35,.17,4.36-.88,6.23-2.14,3-2.02,6.18-3.37,9.88-3.38,1.22,0,2.41-.25,3.68-.18,1.12,.06,2.05,.16,2.77,1,.48,.57,1.01,.77,1.68,.56,.4-.13,.77-.03,1.16-.03,1.93,0,3.33,1.31,5.01,1.89,1.43,.5,2.78,1.38,4.46,.95,.52-.13,1.2,.04,1.66,.47,.64,.6,1.37,.54,2.2,.59,1.1,.06,2.15-.2,3.27-.08,2.08,.23,3.7,1.82,5.88,1.72,1.5-.07,2.94,.75,4.47,.56,1.52-.19,3.04-.36,4.53-.66,2.83-.57,5.65-1.2,8.46-1.84,3.63-.83,7.16-2.05,10.79-2.9,3.6-.84,7.25-1.33,10.9-1.73,2.48-.27,5.01-.07,7.46-.76,.43-.12,1.05-.14,.66-.75-.68-1.07-.58-2.14-.18-3.2,.28-.77,.02-1.27-.56-1.64-.95-.6-1.12-1.77-.82-2.41,.76-1.65-.43-2.71-1.06-3.68-.86-1.32-2.28-2.32-3.55-3.34-.67-.54-1.54-.78-2.46-.82-3.4-.14-6.79,.22-10.16,.53-3.39,.31-6.76,.76-10.16,.93-2.02,.1-4.08,.11-6.04,.54-4.29,.94-8.62,.89-12.96,.87-.89,0-1.69-.38-2.37-.98-.6-.52-.77-1.13-.34-1.8,.41-.64,1.08-.76,1.69-.42,1.42,.8,2.99,.52,4.4,.42,2.14-.15,4.31-.23,6.45-.72,1.7-.38,3.54-.39,5.32-.57,2.53-.26,5.05-.51,7.59-.68,3.09-.2,6.14-.86,9.26-.79,1.62,.03,3.25-.3,4.89-.24,.34,.01,.69-.16,1.03-.28,.7-.24,1.05-.63,.76-1.45-.45-1.26-.95-2.52-1.06-3.88-.12-1.5-.8-2.95-.31-4.52,.29-.91,.03-1.86-.61-2.59-1.55-1.76-3.07-3.57-4.99-4.96-1.02-.74-1.91-1.71-3.22-1.98-1.19-1.25-2.62-2.21-4.07-3.12-.79-.76-1.7-1.35-2.63-1.92-.79-.97-1.68-1.85-2.64-2.65-.41-.47-.58-1.13-1.19-1.44-.13-1.38-1.04-2.75-1.92-2.88,0-.07-.01-.13-.01-.2,1.2-.18,2.28,.13,3.31,.74,.75,.45,1.55,.82,2.32,1.24,1.02,.57,1.89,.46,3-.03,1.89-.85,3.28-2.12,4.6-3.67,2.28-2.66,2.52-2.02,5.23-.55,.17,.09,.29,.28,.46,.38,.47,.26,.87,.89,1.45,.64,.51-.22,.19-.86,.27-1.31,.19-1.09,.81-1.91,1.71-2.48,.72-.46,.81-.93,.47-1.69-.65-1.47-.15-2.48,1.38-2.91,1.19-.34,2.01-1.04,2.5-2.19,.37-.87,.77-1.77,1.79-2.14,.31-.11,.49-.41,.54-.74,.44-2.61,2.18-4.57,3.37-6.8,.9-1.69,1.67-3.4,2.21-5.26,.88-3.07,2.07-6.03,4.58-8.23,.53-.47,.99-1.06,1.33-1.68,1.32-2.39,3.26-4.34,5.33-5.92,2.53-1.94,5.12-3.99,8.44-4.69,2.68-.57,5.25-1.73,7.94-2.1,4.51-.63,8.98-1.83,13.62-1.46,.73,.06,1.43,.17,2.1,.42,1.86,.72,3.85,.96,5.75,1.51,.63,.18,1.2,.48,1.64,.93,1.48,1.52,3.29,2.54,5.19,3.37,2.44,1.06,4.36,2.77,6.21,4.6,.48,.48,.93,.99,1.46,1.41,3.17,2.51,5.22,5.89,7.17,9.32,.95,1.68,1,3.67,1.62,5.47,1.22,3.54,1.22,7.27,1.67,10.92,.35,2.84,.4,5.69-.17,8.53-.08,.39-.05,.8-.03,1.2,.28,4.29-.6,8.3-2.86,11.97-2.05,3.33-3.54,6.96-5.57,10.29-.72,1.19-1.58,2.29-2.34,3.46-.18,.27-.37,.44-.67,.38-.97-.2-1.81,.18-2.63,.57-1.28,.61-2.66,.4-4,.58-1.87,.25-2.1,.45-2.39,2.31-.35,.18-.78,.3-1.03,.57-.93,.99-1.62,2.25-3.19,2.43-.24,.03-.45,.51-.63,.82-.31,.55-.58,1.12-.86,1.68-1.13-.14-1.66,.17-1.49,1.48,.15,1.16-.61,2.02-1.53,2.66-.52,.36-1.08,.67-1.63,.99-.72,.42-1.2,.97-1.42,1.81-.28,1.05-.94,1.84-1.95,2.3-.44,.2-.91,.3-1.37,.03-3.29-1.92-4.71-.57-6.62,.99-.94,.77-1.92,1.38-3.08,1.77-2.4,.8-4.24-.44-6.16-1.48-2.97-1.61-5.55-3.74-7.94-6.1-1.04-1.03-3.33-.61-4,.69-.26,.5,.05,.84,.27,1.2,2.33,3.83,5.46,6.93,8.91,9.74,1.21,.99,2.31,2.07,3.23,3.35,1.61,2.23,1.99,4.69,1.62,7.37-.3,2.21-.04,4.42,.2,6.64,.18,1.74,.82,3.17,1.75,4.59,.47,.72,1.1,1.48,1.04,2.37-.12,1.92,.61,3.66,.93,5.48,.25,1.43-.19,2.86-.13,4.3,.05,1.02,.45,2.04-.02,3.07-.13,.28-.15,.63-.31,.89-.64,1.07-.41,2.03,.25,3,1.52,2.26,1.39,3.73-.62,5.57-.86,.79-.81,1.26,.06,1.93,1.26,.97,2.06,2.32,2.69,3.76,.35,.78,.71,1.02,1.65,.77,4.36-1.2,8.82-1.93,13.27-2.67,1.65-.27,3.18,.5,4.76,.8,.32,.06,.83-.2,1.02,.33-.57,1.01-1.5,1.16-2.49,.91-1.4-.35-2.68-.18-3.92,.52-.74,.42-1.54,.68-2.38,.74-1.51,.11-2.99,.28-4.46,.67-1.52,.4-3.12,.43-4.7,.35-.26-.01-.48,0-.63,.23-.21,.33,.06,.51,.24,.71,.87,.97,3.42,1.48,4.66,.92,.51-.23,1.07-.32,1.57-.51,1.9-.7,3.88-.48,5.8-.56,3.19-.13,6.4-.55,9.57,.72,2.64,1.05,5.03,2.5,7.51,3.83,2.56,1.38,4.24,3.51,5.49,6.04,.34,.68,.55,1.4,.53,2.18-.02,.57-.21,1.42,.47,1.56,.63,.14,.84-.69,1.11-1.2,.02-.03,.06-.05,.09-.07ZM68.73,297.5c-1.49-1.82-3.28-3.36-4.41-5.43-.4-.72-1.04-1.17-1.66-1.67-1.14-.91-2.45-1.58-3.42-2.75-1.48-1.78-1.62-4.02-2.36-6.05-.36-.99-.53-2.07-.51-3.16,.03-2.59,.01-2.56-2.48-2.11-.78,.14-1.08,.5-1.12,1.26-.05,.93,.21,1.82,.24,2.73,.15,3.96,2.14,7.02,4.9,9.6,1.91,1.79,4.02,3.37,6.12,4.93,1.44,1.07,2.89,2.18,4.7,2.66ZM168.17,80.84c-.03,.12-.02,.34-.12,.5-1.01,1.68-.46,3.17,.5,4.63,.53,.81,1.04,.84,1.5,0,.68-1.21,.92-2.56,.48-3.87-.44-1.31,.12-2.22,.89-3.12,.38-.46,.71-.96,1.14-1.36,.87-.81,.05-1.47-.29-1.95-.38-.53-1.15-.41-1.69,.09-1.47,1.35-2.83,2.76-2.41,5.1Z"/>
  <path class="cls-11" d="M106.51,63.15c1.31,.28,2.2,1.24,3.22,1.98,1.92,1.39,3.43,3.2,4.99,4.96,.64,.72,.89,1.67,.61,2.59-.49,1.57,.19,3.02,.31,4.52,.11,1.35,.61,2.61,1.06,3.88,.29,.82-.05,1.21-.76,1.45-.34,.11-.69,.29-1.03,.28-1.64-.06-3.26,.27-4.89,.24-3.12-.06-6.17,.6-9.26,.79-2.53,.16-5.06,.42-7.59,.68-1.78,.18-3.62,.18-5.32,.57-2.15,.48-4.31,.57-6.45,.72-1.41,.1-2.99,.38-4.4-.42-.61-.34-1.28-.22-1.69,.42-.44,.68-.26,1.28,.34,1.8,.69,.59,1.48,.98,2.37,.98,4.34,.01,8.66,.07,12.96-.87,1.96-.43,4.02-.44,6.04-.54,3.4-.17,6.78-.62,10.16-.93,3.37-.31,6.76-.67,10.16-.53,.92,.04,1.79,.28,2.46,.82,1.27,1.02,2.68,2.02,3.55,3.34,.64,.98,1.82,2.03,1.06,3.68-.29,.64-.13,1.81,.82,2.41,.58,.37,.84,.87,.56,1.64-.39,1.06-.5,2.13,.18,3.2,.39,.61-.23,.63-.66,.75-2.45,.69-4.98,.49-7.46,.76-3.65,.4-7.3,.89-10.9,1.73-3.63,.85-7.16,2.07-10.79,2.9-2.81,.64-5.63,1.28-8.46,1.84-1.5,.3-3.02,.47-4.53,.66-1.54,.19-2.97-.62-4.47-.56-2.17,.1-3.79-1.49-5.88-1.72-1.12-.12-2.17,.14-3.27,.08-.82-.05-1.56,0-2.2-.59-.46-.43-1.14-.6-1.66-.47-1.67,.43-3.03-.45-4.46-.95-1.68-.59-3.09-1.89-5.01-1.89-.39,0-.76-.1-1.16,.03-.67,.21-1.2,.01-1.68-.56-.71-.83-1.65-.93-2.77-1-1.26-.07-2.46,.18-3.68,.18-3.69,0-6.88,1.36-9.88,3.38-1.87,1.26-3.88,2.31-6.23,2.14-1.04-.07-1.55,.72-2.32,1.06-.1,.04-.21,.34-.16,.41,.8,1.13-.33,1.26-.87,1.58-1.35,.8-2.62,1.69-3.45,3.06-.98,1.63-2.62,2.16-4.26,2.81-2.15,.85-4.35,1.63-6.34,2.86-.74,.46-1.27,1.13-1.61,1.89-1.01,2.21-2.04,4.41-3.36,6.47-.51,.79-.71,1.77-1.15,2.62-.21,.4-.6,.99-1.04,.86-.53-.16-.34-.88-.24-1.27,.48-1.8,1-3.59,1.64-5.34,.27-.75,.48-1.51,.66-2.27,.69-2.96,2.42-5.44,3.59-8.18,.66-1.54,.41-3.14,.77-4.67,.77-1.51,1.55-3.02,2.32-4.53,1.01,1,1.12,.96,2.05-.22,.59-.75,1.31-1.4,1.96-2.09,1.39-1.47,2.98-2.75,3.97-4.6,.44-.82,1.32-1.33,2.22-1.74,1.49-.68,3.15-.86,4.61-1.64,1.59-.85,1.74-.72,2.11,1.08,.14,.66,.36,1.45,1.03,1.66,.75,.24,.87-.66,1.21-1.09,.83-1.07,1.46-1.31,2.62-.68,.47,.25,.92,.36,1.35,.11,1.45-.84,3.2-.98,4.58-2,.39-.29,.96-.46,1.46-.47,2.93-.06,5.66-1.02,8.19-2.29,3.13-1.56,6.25-2.06,9.65-1.37,1.49,.3,3.63-1.13,4.15-2.57,.46-1.3,1.63-2.22,2.96-2.16,.86,.04,1.54-.22,2.21-.71,1.19-.87,2.47-1.47,4-1.22,1.13,.19,2.26,.52,3.4,.57,1.28,.06,2.49,.77,3.74,.53,.7-.13,1.1,.04,1.62,.62,.08-.93,.44-1.22,1.23-1.3,1.29-.12,2.95,.13,3.05-1.96,0-.14,.24-.32,.41-.4,1.07-.48,1.63-1.76,3-1.82,.36-.02,.75-.48,.8-.96,.04-.39,.19-.69,.48-.92,1.09-.86,2.18-1.71,3.28-2.56,.35-.27,.67-.29,1.06,.03,.96,.77,1.4,.59,1.96-.51,.43-.84,.9-1.73,1.56-2.37,.91-.88,1.79-1.72,2.16-2.97,.14-.47,.5-.84,.93-1.06,1.88-.98,2.64-2.56,2.5-4.62Zm-47.2,38.76c.03-.07,.09-.15,.07-.2-.02-.05-.12-.06-.19-.09-.03,.07-.09,.15-.08,.2,.02,.05,.12,.06,.19,.09Z"/>
  <path class="cls-2" d="M106.51,63.15c.14,2.06-.61,3.64-2.5,4.62-.43,.22-.79,.59-.93,1.06-.37,1.26-1.25,2.09-2.16,2.97-.67,.64-1.13,1.53-1.56,2.37-.56,1.1-1,1.28-1.96,.51-.4-.32-.71-.3-1.06-.03-1.1,.85-2.19,1.7-3.28,2.56-.29,.23-.44,.54-.48,.92-.05,.48-.44,.94-.8,.96-1.37,.06-1.93,1.34-3,1.82-.17,.08-.4,.26-.41,.4-.09,2.09-1.76,1.83-3.05,1.96-.79,.08-1.15,.37-1.23,1.3-.52-.59-.92-.75-1.62-.62-1.25,.24-2.46-.47-3.74-.53-1.14-.06-2.26-.39-3.4-.57-1.53-.26-2.81,.35-4,1.22-.67,.49-1.35,.75-2.21,.71-1.33-.06-2.5,.86-2.96,2.16-.52,1.45-2.66,2.88-4.15,2.57-3.4-.69-6.52-.19-9.65,1.37-2.54,1.26-5.26,2.23-8.19,2.29-.49,0-1.06,.18-1.46,.47-1.38,1.02-3.13,1.16-4.58,2-.44,.25-.88,.14-1.35-.11-1.15-.62-1.79-.39-2.62,.68-.33,.43-.45,1.33-1.21,1.09-.67-.22-.89-1.01-1.03-1.66-.38-1.8-.53-1.93-2.11-1.08-1.46,.78-3.12,.96-4.61,1.64-.9,.41-1.78,.92-2.22,1.74-.99,1.85-2.57,3.13-3.97,4.6-.66,.7-1.37,1.34-1.96,2.09-.93,1.18-1.04,1.22-2.05,.22,2.56-5.13,5.67-9.91,8.93-14.6,.41,.2,.25,.85,.75,.98,.05,.62-.74,.83-.71,1.44-.63,.48-.9,1.15-.98,1.91-.11,.04-.27,.04-.32,.12-.99,1.56-1.84,3.21-2.96,4.69-.08,.11-.03,.31,.21,.36,1.27-1.08,1.73-2.76,2.86-3.96,.18-.07,.38-.12,.55-.21,1.83-.99,3.31-2.46,4.95-3.72,1.52-1.17,3.46-1.36,5.12-2.23,.65-.34,1.67-.29,2.23,.62,.34,.55,.8,.53,1.34,.25,.76-.38,1.55-.74,1.98-1.49,.34-.6,.82-.8,1.39-.65,1.34,.35,2.22-.21,3.15-1.13,1.31-1.3,1.63-1.26,2.95-.03,.54,.51,.98,.38,1.49,.07,.66-.4,1.37-.6,2.01-.08,.59,.47,1.14,.47,1.77,.18,.48-.22,1-.27,1.52-.23,1.84,.15,3.53-.46,5.22-1.06,1.69-.59,3.24-1.46,4.8-2.33,2.07-1.15,4.51-1.16,6.79-1.63,.51-.1,1.09-.04,1.43-.47,1.14-1.41,3.2-2.32,2.65-4.7-.04-.16,.12-.37,.18-.56,.62-1.92,2.38-2.27,3.95-2.93,1.57-.66,3.55-.2,4.78-1.78,.11-.14,.45-.12,.68-.14,.3-.03,.55-.15,.65-.45,.31-.91,1.11-1.21,1.9-1.44,.42-.12,.77-.27,.95-.64,.26-.52,.68-.63,1.19-.59,.49,.04,.91-.09,1.35-.35,1.87-1.11,3.73-2.27,5.69-3.2,1.26-.6,2.11-1.37,2.4-2.73,.1-.48,.32-.53,.83-.55,1.4-.07,2.64-.69,3.74-1.57,1.46,.91,2.88,1.87,4.07,3.12Z"/>
  <path class="cls-10" d="M205.62,294.36c-.55-.02-.85-.18-.49-.79,.94-1.6,1.59-3.36,3.05-4.67,.78-.7,1.09-1.82,1.26-2.91,.24-1.55,.66-3.02,1.96-4.08,1.56-1.28,1.55-3.27,1.99-4.99,.19-.75-.59-1.73-.74-2.69-.24-1.51-1.16-2.82-1.38-4.37-.09-.66-.61-1.29-1.01-1.88-.66-.97-.82-1.87,.1-2.78,.35-.34,.6-.81,.5-1.3-.32-1.49-.24-3.06-1.08-4.46-.48-.81-.87-1.74-1.03-2.66-.6-3.48-2.89-5.54-5.76-7.15-.97-.55-2.01-.98-2.87-1.71-.32-.27-.69-.44-1.07-.49-1.32-.18-2.21-.74-3.05-1.93-.65-.91-2.15-1.3-3.34-1.71-1.14-.4-1.82-1.26-2.56-2.08-.37-.4-.45-.82,.13-1.3,.69-.56,1.15-1.32,.75-2.32-.09-.23-.12-.58,.18-.75,.31-.17,.53,.06,.73,.25,.63,.62,1.26,1.08,1.96,.09,1.08-.03,1.79,.8,2.68,1.21,5.9,2.74,11,6.45,14.28,12.22,2.03,3.57,3.19,7.49,3.78,11.51,.65,4.45,.89,8.95,1.33,13.43,.52,5.31-1.4,9.7-5.13,13.35-1.7,1.67-3.18,3.58-5.17,4.95Z"/>
  <path class="cls-4" d="M198.16,167.47s-.08,.04-.09,.07c-.27,.51-.48,1.34-1.11,1.2-.68-.15-.49-.99-.47-1.56,.02-.79-.19-1.5-.53-2.18-1.25-2.54-2.93-4.67-5.49-6.04-2.47-1.33-4.86-2.78-7.51-3.83-3.17-1.27-6.38-.85-9.57-.72-1.92,.08-3.9-.14-5.8,.56-.5,.18-1.06,.28-1.57,.51-1.24,.57-3.8,.05-4.66-.92-.18-.2-.45-.39-.24-.71,.15-.23,.37-.24,.63-.23,1.58,.08,3.18,.05,4.7-.35,1.47-.39,2.96-.56,4.46-.67,.84-.06,1.64-.32,2.38-.74,1.23-.7,2.52-.87,3.92-.52,.99,.24,1.92,.1,2.49-.91,.16,.02,.31,.04,.47,.07,.4,.3,.8,.31,1.19,0,2.69,.32,5.42,.63,7.51,2.55,3.74,3.44,7.5,6.88,8.89,12.06,.1,.38,.15,.78,.22,1.16-.44,.34-.39,.58,.14,.74,.02,.16,.03,.32,.05,.48Z"/>
  <path class="cls-4" d="M138.17,318.28c-1.28-.69-2.55-1.19-3.7,.24-.16,.2-.39,.2-.65,.13-1.17-.32-2.32-.03-3.38,.39-.98,.39-2.02,.39-3,.68-1.15,.34-1.74-.61-2.48-1.14-1.8-1.3-3.55-2.68-5.32-4.02-.24-.18-.67-.26-.54-.68,.13-.43,.57-.44,.91-.37,2.8,.53,5.64,.26,8.45,.36,3.85,.14,7.76,.51,11.6-.46,2.02-.51,4.11-.42,6.17-.37,.84,.02,1.32,.36,.79,1.29-.11,.2-.12,.45-.18,.68-2.85,1.21-5.75,2.26-8.67,3.27Z"/>
  <path class="cls-8" d="M81.3,52.71c1.1-.34,2.23-.48,3.38-.36,.15,.12,.3,.26,.45,.37,.75,.55,.94,1.06-.07,1.54-.39,.19-.75,.46-1.15,.63-1.59,.64-2.94,1.68-4.38,2.55-2.86,1.73-5.81,3.29-8.78,4.81-1.59,.82-3.46,1.18-4.65,2.75-.47,.62-1.26,.82-2.03,.24-.9-.68-1.83-.72-2.92-.32-1.43,.53-1.76,.18-1.44-1.17,0-.04,0-.08,0-.12,.43-.82,1.46-1.17,1.7-2.14,.42-.19,.6-.73,1.12-.78,.23-.02,.49,.02,.7-.06,1.94-.78,3.85-1.63,5.81-2.37,1.01-.38,1.73-.93,1.94-2.02,1.2-.41,2.41-.81,3.61-1.22,.73,.74,1.5,.67,2.5,.46,1.83-.38,2.65-2.1,4.2-2.78Z"/>
  <path class="cls-7" d="M59.73,63.63s0,.08,0,.12c-.33,1.35,.01,1.7,1.44,1.17,1.09-.4,2.01-.36,2.92,.32,.77,.58,1.56,.38,2.03-.24,1.19-1.57,3.05-1.93,4.65-2.75,2.97-1.52,5.92-3.09,8.78-4.81,1.44-.87,2.8-1.91,4.38-2.55,.4-.16,.76-.44,1.15-.63,1-.48,.82-.99,.07-1.54-.16-.12-.3-.25-.45-.37,2.09-.04,3.98-1.02,6-1.38,.85,.44,1.76,.09,2.64,.2,0,.28,.01,.55,.2,.79,.48,.6,.01,.89-.43,1.07-.59,.23-1.21,.41-1.83,.51-4.12,.69-7.66,2.65-10.72,5.33-2.4,2.1-5.28,3.2-7.99,4.68-1.73,.94-3.53,1.78-5.35,2.53-1.92,.79-3.39,2.31-5.34,3.05-.74,.28-.89,.22-.94-.53-.1-1.38-.39-1.49-1.79-1.64-2.22-.24-3.94,1.06-5.88,1.7,0-.36-.21-.56-.5-.74-.98-.59-1.27-1.32-.5-2.33,.38-.5,.42-1.09,.06-1.66,.42-.36,.88-.63,1.43-.75,.07,.54-.13,1.03-.31,1.51-.29,.76-.26,1.49,.42,1.93,.68,.44,1.54,.63,2.23,0,.93-.84,2.24-1.27,2.74-2.57,.15-.4,.54-.43,.91-.42Z"/>
  <path class="cls-10" d="M192.18,235.08c-2.2-.39-3.9-1.58-4.94-3.51-.41-.77,.32-1.65,.6-2.47,.24-.7,.62-1.34,.29-2.16-.33-.84-.64-1.54-1.72-1.46-.45,.04-.8-.26-.9-.66-.3-1.19-.65-2.38-.76-3.59-.12-1.38-.08-2.75-.42-4.13-.2-.83,.07-1.8,.22-2.69,.08-.48,.24-.92,.04-1.39-.09-.22-.17-.49,.11-.62,.32-.15,.56,.05,.68,.31,.33,.74,.85,1.3,1.51,1.74,1.94,5.48,3.5,11.07,4.52,16.81,.23,1.28,.81,2.49,.77,3.83Z"/>
  <path class="cls-9" d="M52.31,63.94c.36,.57,.32,1.16-.06,1.66-.77,1.01-.47,1.74,.5,2.33,.29,.18,.5,.38,.5,.74-2.15,1.42-4.52,2.31-7.03,2.87-1.09,.25-1.56,1.28-2.28,1.99-.99,.97-1.96,1.95-2.45,3.29-.49,.13-.38,.71-.72,.95-1.06-.27-2.08-.6-3.21-.11-.83,.36-1.48,.9-2.16,1.45-.23,.18-.53,.42-.86,.18-.17-.12-.25-.31-.2-.52,.08-.38,.37-.52,.71-.5,.55,.04,.86-.33,1.21-.65,1.33-1.25,2.49-2.68,3.98-3.77,.65-.48,.82-1.15,.23-1.85,.33-.44,.77-.75,1.27-.98,.05,.04,.1,.08,.15,.12,.02-.1,.04-.2,.06-.3,0,0,.04-.04,.04-.04,.74,.04,1.45,.57,2.23-.17,1.44-1.36,2.96-2.68,4.75-3.53,1.34-.64,2.21-1.55,2.77-2.85,.19-.1,.37-.21,.56-.31Z"/>
  <path class="cls-12" d="M40.48,71.99c.59,.7,.42,1.37-.23,1.85-1.49,1.09-2.65,2.52-3.98,3.77-.35,.33-.66,.69-1.21,.65-.34-.02-.63,.12-.71,.5-.05,.22,.03,.4,.2,.52,.34,.24,.64,0,.86-.18,.68-.54,1.33-1.09,2.16-1.45,1.13-.49,2.15-.16,3.21,.11-.13,.34-.51,.55-.48,.96-.47,.17-.61,.67-.96,.96-.86-.08-1.67-.25-2.58-.12-1.22,.18-1.61,1.21-2.43,1.77-1.16,.79-1.81,1.95-2.43,3.15-.08,.16-.16,.32-.24,.48-.68,.15-1.17,.59-1.64,1.05-.48,.48-.98,.9-1.72,.87,.16-.24,.32-.48,.49-.72,1.1-.92,1.71-2.26,2.7-3.25,.83-.83,1.37-1.59,.88-2.77,2.49-2.93,4.89-5.96,8.11-8.17Z"/>
  <path class="cls-12" d="M59.73,63.63c-.37-.01-.76,.02-.91,.42-.5,1.31-1.81,1.73-2.74,2.57-.69,.63-1.55,.44-2.23,0-.68-.44-.71-1.17-.42-1.93,.18-.48,.39-.97,.31-1.51,.4-.18,.8-.37,1.2-.55,.44,.62,1.1,.59,1.71,.51,1.34-.19,2.95,.36,3.8-1.34,.11-.21,.64-.21,.98-.31-.23,.98-1.27,1.32-1.7,2.14Z"/>
  <path class="cls-15" d="M176.32,82.8c.29-.56,.55-1.14,.86-1.68,.17-.3,.39-.79,.63-.82,1.58-.18,2.26-1.44,3.19-2.43,.26-.27,.68-.38,1.03-.57-.14,1.46-.27,2.91-1.11,4.21-.9,1.38-2.07,1.92-3.67,1.49-.31-.08-.62-.14-.93-.2Z"/>
  <path class="cls-6" d="M51.75,64.25c-.56,1.3-1.44,2.21-2.77,2.85-1.79,.85-3.32,2.17-4.75,3.53-.78,.74-1.48,.21-2.23,.17,2.98-2.58,5.84-5.34,9.75-6.55Z"/>
  <path class="cls-2" d="M61.42,61.49c-.34,.1-.87,.1-.98,.31-.85,1.7-2.46,1.15-3.8,1.34-.61,.09-1.28,.11-1.71-.51,2.2-1.51,4.61-2.52,7.2-3.12,.72,.2,.43,.74,.41,1.19-.52,.05-.7,.59-1.12,.78Z"/>
  <path class="cls-12" d="M62.55,60.7c.02-.45,.31-.99-.41-1.19,3-.97,5.8-2.45,8.86-3.27-.21,1.1-.93,1.64-1.94,2.02-1.96,.74-3.87,1.58-5.81,2.37-.21,.08-.46,.05-.7,.06Z"/>
  <path class="cls-1" d="M28.79,86.17c-.16,.24-.32,.48-.49,.72-1.26,1.39-2.18,3.07-3.61,4.32-.51-.13-.34-.77-.75-.98,1.41-2.02,2.98-3.91,4.63-5.73,.42,.51,.12,1.11,.22,1.66Z"/>
  <path class="cls-6" d="M28.79,86.17c-.09-.55,.2-1.15-.22-1.66,1.17-1.54,2.42-3,3.8-4.35,.49,1.17-.05,1.93-.88,2.77-.99,.99-1.6,2.32-2.7,3.25Z"/>
  <path class="cls-6" d="M81.3,52.71c-1.55,.68-2.37,2.4-4.2,2.78-1,.21-1.77,.28-2.5-.46,2.07-1.22,4.5-1.45,6.69-2.31Z"/>
  <path class="cls-5" d="M93.32,51.17c-.88-.11-1.79,.25-2.64-.2,1.12-.07,2.24-.18,3.36-.02,0,.07,0,.13,.01,.2l-.04,.04c-.23,0-.47-.01-.7-.02Z"/>
  <path class="cls-13" d="M198.11,166.99c-.54-.15-.58-.4-.14-.74,.22,.21,.17,.48,.14,.74Z"/>
  <path class="cls-13" d="M181.35,150.47c-.39,.32-.79,.31-1.19,0,.4-.05,.79-.17,1.19,0Z"/>
  <path class="cls-6" d="M41.96,70.84c-.02,.1-.04,.2-.06,.3-.05-.04-.1-.08-.15-.12,.07-.06,.14-.12,.21-.18Z"/>
  <path class="cls-3" d="M102.44,60.03c-1.1,.88-2.33,1.5-3.74,1.57-.5,.02-.72,.07-.83,.55-.29,1.36-1.14,2.13-2.4,2.73-1.96,.93-3.81,2.09-5.69,3.2-.44,.26-.86,.39-1.35,.35-.51-.04-.93,.07-1.19,.59-.18,.37-.53,.52-.95,.64-.8,.23-1.59,.53-1.9,1.44-.1,.3-.34,.42-.65,.45-.23,.02-.57,0-.68,.14-1.23,1.58-3.21,1.12-4.78,1.78-1.57,.66-3.33,1.01-3.95,2.93-.06,.19-.22,.4-.18,.56,.55,2.38-1.51,3.29-2.65,4.7-.34,.42-.93,.36-1.43,.47-2.29,.47-4.72,.48-6.79,1.63-1.57,.87-3.12,1.74-4.8,2.33-1.68,.59-3.38,1.21-5.22,1.06-.52-.04-1.04,0-1.52,.23-.63,.29-1.18,.3-1.77-.18-.64-.51-1.35-.32-2.01,.08-.51,.31-.95,.44-1.49-.07-1.32-1.24-1.64-1.28-2.95,.03-.92,.92-1.81,1.48-3.15,1.13-.57-.15-1.05,.05-1.39,.65-.43,.75-1.23,1.11-1.98,1.49-.55,.28-1.01,.3-1.34-.25-.56-.91-1.58-.96-2.23-.62-1.66,.87-3.6,1.06-5.12,2.23-1.64,1.26-3.12,2.73-4.95,3.72-.17,.09-.36,.14-.55,.21-.03-.56,.55-.76,.72-1.2,.08-.08,.16-.16,.24-.24,.51-.12,1.02-.23,.72-.96,0-.2,.05-.37,.24-.47,.85,.1,1.58-.33,1.95-.95,1.45-2.47,3.93-3.66,6.2-5.09,1.34-.85,2.94-1.19,4.39-.2,1.55,1.06,1.51,1.13,2.72-.28,.15-.18,.25-.41,.41-.58,1.24-1.36,2.57-2.51,4.62-1.84,.32,.1,.63,.04,.92-.12,.84-.45,1.73-.48,2.5,.06,1.1,.78,1.87,.28,2.81-.35,1.47-.98,3.02-1.52,4.93-.92,1.52,.48,3.29,.78,4.45-1.01,.14-.21,.45-.35,.7-.42,1.86-.54,3.64-1.35,5.6-1.53,1.1-.1,1.35-.61,.92-1.6-.58-1.31-.14-2.74,.85-3.69,.84-.81,1.93-.86,2.87-1.33,1.63-.82,3.13-1.9,4.94-2.36,.42-.11,.84-.28,1.2-.51,1.98-1.3,3.95-2.62,5.92-3.95,.69-.46,1.49-.73,2.1-1.36,2.02-2.1,4.21-3.83,7.24-4.44,2.34-.48,4.56-1.53,6.84-2.33,.93,.56,1.84,1.16,2.63,1.92Z"/>
  <path class="cls-1" d="M99.81,58.11c-2.27,.8-4.5,1.86-6.84,2.33-3.03,.62-5.22,2.35-7.24,4.44-.61,.63-1.41,.89-2.1,1.36-1.97,1.33-3.93,2.65-5.92,3.95-.36,.24-.78,.41-1.2,.51-1.81,.46-3.31,1.53-4.94,2.36-.94,.48-2.04,.52-2.87,1.33-.99,.95-1.43,2.38-.85,3.69,.43,.99,.18,1.5-.92,1.6-1.96,.18-3.75,.99-5.6,1.53-.26,.07-.57,.21-.7,.42-1.16,1.79-2.93,1.49-4.45,1.01-1.91-.6-3.46-.06-4.93,.92-.95,.63-1.72,1.13-2.81,.35-.77-.55-1.65-.51-2.5-.06-.3,.16-.6,.22-.92,.12-2.05-.67-3.38,.49-4.62,1.84-.16,.17-.26,.4-.41,.58-1.21,1.41-1.17,1.33-2.72,.28-1.45-.99-3.05-.64-4.39,.2-2.26,1.43-4.74,2.62-6.2,5.09-.37,.62-1.09,1.05-1.95,.95,0-.08,0-.16,0-.24,.38-.58,.87-1.05,1.44-1.44,.57-.07,.89-.39,.96-.96,.16-.16,.32-.32,.48-.48,1.66-1.8,3.82-3.05,5.47-4.87,.8-.88,1.88-1.41,2.97-1.25,1.08,.15,1.62-.13,2.11-1.01,.57-1.01,1.88-1.06,2.58-.17,.86,1.1,1.01,1.09,2.05,.18,1-.89,2.16-1.56,3.55-1.36,1.64,.24,3.13-.13,4.66-.65,1.59-.54,2.9-1.62,4.49-2.17,1.59-.55,3.12-1.15,4.5-2.27,1.71-1.38,3.76-2.32,5.83-3.17,1.71-.7,3.63-.99,5-2.43,.67-.71,1.57-1.03,2.53-1.25,.72-.17,1.47-.47,2.06-.9,1.51-1.12,3.1-2.05,4.81-2.84,.92-.43,1.96-.73,2.69-1.49,1.4-1.47,2.87-2.87,4.64-3.88,2.24-1.28,4.54-2.41,7.13-2.84,1.14-.19,2.11-.71,2.51-1.92,.96,.8,1.85,1.68,2.64,2.65Z"/>
  <path class="cls-5" d="M97.17,55.46c-.4,1.21-1.36,1.73-2.51,1.92-2.59,.42-4.89,1.56-7.13,2.84-1.77,1.01-3.24,2.41-4.64,3.88-.74,.77-1.77,1.07-2.69,1.49-1.7,.79-3.3,1.72-4.81,2.84-.59,.44-1.34,.74-2.06,.9-.96,.22-1.86,.54-2.53,1.25-1.37,1.45-3.3,1.74-5,2.43-2.07,.85-4.13,1.78-5.83,3.17-1.38,1.12-2.91,1.72-4.5,2.27-1.59,.55-2.9,1.62-4.49,2.17-1.53,.52-3.02,.89-4.66,.65-1.39-.2-2.54,.47-3.55,1.36-1.03,.91-1.18,.92-2.05-.18-.7-.89-2.01-.84-2.58,.17-.5,.88-1.03,1.17-2.11,1.01-1.09-.15-2.17,.37-2.97,1.25-1.65,1.82-3.81,3.06-5.47,4.87,.01-.78,.54-1.22,1.04-1.75,.98-1.05,2.49-1.57,3.04-3.05,.08-.16,.16-.32,.24-.48,.81-.26,1.39-.85,2-1.4,.9-.81,1.88-1.47,3.14-1.47,1.35,0,2-.5,2.3-1.93,.35-.29,.49-.79,.96-.96,.51-.09,.99-.28,1.52-.25,.56,.04,.89,.35,.77,.83-.18,.68-.16,1.21,.52,1.5,.66,.28,.96-.36,1.41-.65,1.69-1.1,3.19-2.69,5.53-2.16,.43,.1,.87-.02,1.28-.2,2.24-.98,4.47-2.01,6.74-2.9,3.12-1.23,5.3-4,8.54-5.07,1.18-.39,2.27-1.08,3.48-1.49,1.23-.42,2.51-.8,3.59-1.55,1.22-.86,2.36-1.83,3.58-2.69,1.17-.82,2.44-1.5,3.61-2.33,2.29-1.63,4.29-3.67,6.86-4.92,.5-.24,.96-.56,1.52-.67,1.97-.38,3.93-.81,5.9-1.17,.6-.11,.83-.4,.78-.97l.03-.03c.61,.31,.78,.97,1.19,1.44Z"/>
  <path class="cls-2" d="M68.73,297.5c-1.81-.48-3.26-1.59-4.7-2.66-2.1-1.56-4.21-3.14-6.12-4.93-2.76-2.58-4.75-5.64-4.9-9.6-.03-.91-.29-1.8-.24-2.73,.04-.76,.34-1.13,1.12-1.26,2.49-.45,2.51-.47,2.48,2.11-.01,1.09,.15,2.16,.51,3.16,.74,2.03,.88,4.27,2.36,6.05,.97,1.17,2.28,1.84,3.42,2.75,.63,.5,1.27,.95,1.66,1.67,1.14,2.07,2.93,3.61,4.41,5.43Z"/>
  <path class="cls-15" d="M168.17,80.84c-.42-2.34,.94-3.75,2.41-5.1,.54-.5,1.31-.61,1.69-.09,.35,.48,1.17,1.14,.29,1.95-.43,.4-.76,.91-1.14,1.36-.76,.91-1.33,1.81-.89,3.12,.45,1.32,.2,2.66-.48,3.87-.47,.84-.97,.81-1.5,0-.96-1.46-1.51-2.96-.5-4.63,.1-.16,.09-.38,.12-.5Z"/>
  <path class="cls-5" d="M94.05,51.14c.88,.13,1.79,1.5,1.92,2.88,0,0-.03,.03-.03,.03-.41,.02-.62-.35-.95-.49-.09-.89-.89-1.49-.98-2.38l.04-.04Z"/>
  <path class="cls-13" d="M59.31,101.91c-.07-.03-.17-.04-.19-.09-.02-.05,.05-.13,.08-.2,.07,.03,.17,.04,.19,.09,.02,.05-.05,.13-.08,.2Z"/>
  <path class="cls-14" d="M31.67,84.97c-.55,1.47-2.06,2-3.04,3.05-.49,.53-1.03,.96-1.04,1.75-.16,.16-.32,.32-.48,.48-.57,.07-.89,.39-.96,.96-.57,.39-1.05,.87-1.44,1.44-.24,0-.48,0-.73,0-.03-.61,.76-.82,.71-1.44,1.43-1.25,2.35-2.93,3.61-4.32,.74,.04,1.23-.39,1.72-.87,.47-.46,.96-.91,1.64-1.05Z"/>
  <path class="cls-1" d="M23.51,94.57c-.17,.44-.75,.64-.72,1.2-1.12,1.2-1.59,2.88-2.86,3.96-.24-.04-.29-.25-.21-.36,1.11-1.48,1.96-3.13,2.96-4.69,.05-.08,.21-.08,.32-.12,.17,0,.33,0,.5,0Z"/>
  <path class="cls-5" d="M23.51,94.57c-.17,0-.33,0-.5,0,.08-.77,.35-1.43,.98-1.91,.24,0,.48,0,.73,0,0,.08,0,.16,0,.24-.2,.1-.24,.28-.24,.47-.39,.21-.7,.47-.72,.96-.08,.08-.16,.16-.24,.24Z"/>
  <path class="cls-12" d="M94.02,51.18c.09,.89,.89,1.49,.98,2.38-.89,.82-2.05,.83-3.13,.94-2.96,.29-5.42,1.72-7.76,3.37-2.31,1.63-4.51,3.4-6.95,4.84-1.39,.82-2.87,1.48-4.25,2.31-2.02,1.22-4.07,2.43-6.38,2.87-2.48,.47-4.41,1.76-6.13,3.4-1.54,1.46-3.38,1.8-5.41,2.08,.08-.41,.29-.51,.47-.66,.89-.76,1.57-1.67,1.77-2.87,.18-1.07-.58-1.76-1.63-1.42-.64,.21-1.3,.41-1.9,.72-1.49,.79-3.15,1.35-4.17,2.87-.51,.76-1.1,1.46-1.7,2.15-.63,.73-1.22,1.41-2.42,1.04-.84-.26-1.72,.03-2.42,.71-.42,.41-.88,.8-1.5,.92,.49-1.34,1.46-2.32,2.45-3.29,.72-.71,1.18-1.74,2.28-1.99,2.51-.57,4.88-1.45,7.03-2.87,1.93-.64,3.65-1.94,5.88-1.7,1.4,.15,1.69,.26,1.79,1.64,.05,.75,.2,.81,.94,.53,1.95-.74,3.42-2.26,5.34-3.05,1.82-.75,3.62-1.59,5.35-2.53,2.71-1.47,5.59-2.57,7.99-4.68,3.06-2.68,6.6-4.64,10.72-5.33,.62-.1,1.24-.28,1.83-.51,.45-.18,.91-.47,.43-1.07-.19-.24-.2-.51-.2-.79,.23,0,.47,.01,.7,.02Z"/>
  <path class="cls-14" d="M41.5,76.82c.62-.11,1.08-.5,1.5-.92,.69-.68,1.57-.97,2.42-.71,1.2,.37,1.8-.31,2.42-1.04,.6-.69,1.19-1.39,1.7-2.15,1.02-1.52,2.67-2.07,4.17-2.87,.59-.32,1.25-.51,1.9-.72,1.05-.34,1.81,.35,1.63,1.42-.2,1.2-.88,2.11-1.77,2.87-.18,.15-.39,.25-.47,.66,2.03-.29,3.87-.62,5.41-2.08,1.72-1.64,3.65-2.94,6.13-3.4,2.3-.43,4.36-1.65,6.38-2.87,1.38-.83,2.86-1.49,4.25-2.31,2.44-1.44,4.64-3.21,6.95-4.84,2.34-1.65,4.8-3.08,7.76-3.37,1.08-.11,2.25-.11,3.13-.94,.33,.14,.54,.51,.95,.49,.05,.57-.18,.86-.78,.97-1.97,.36-3.93,.79-5.9,1.17-.57,.11-1.02,.42-1.52,.67-2.57,1.25-4.56,3.29-6.86,4.92-1.17,.83-2.43,1.51-3.61,2.33-1.22,.85-2.36,1.83-3.58,2.69-1.08,.76-2.36,1.14-3.59,1.55-1.21,.41-2.31,1.11-3.48,1.49-3.24,1.06-5.42,3.84-8.54,5.07-2.28,.89-4.5,1.93-6.74,2.9-.41,.18-.85,.29-1.28,.2-2.34-.53-3.84,1.06-5.53,2.16-.45,.29-.75,.94-1.41,.65-.68-.29-.7-.83-.52-1.5,.12-.47-.21-.79-.77-.83-.54-.04-1.02,.15-1.52,.25-.04-.42,.35-.63,.48-.96,.34-.24,.23-.83,.72-.95Z"/>
  <path class="cls-14" d="M39.34,79.7c-.3,1.43-.95,1.94-2.3,1.93-1.26,0-2.24,.66-3.14,1.47-.61,.55-1.19,1.14-2,1.4,.62-1.2,1.27-2.36,2.43-3.15,.82-.56,1.21-1.59,2.43-1.77,.91-.14,1.72,.04,2.58,.12Z"/>
  <path class="cls-1" d="M23.75,94.33c.02-.49,.33-.75,.72-.96,.3,.73-.21,.84-.72,.96Z"/>
  <path class="cls-5" d="M26.15,91.21c.07-.57,.39-.89,.96-.96-.07,.57-.39,.89-.96,.96Z"/>
</svg>