<?xml version="1.0" encoding="UTF-8"?>
<svg id="Layer_1" data-name="Layer 1" xmlns="http://www.w3.org/2000/svg" viewBox="0 0 13.56 10.5">
  <defs>
    <style>
      .cls-1 {
        fill: #bebdbd;
      }
    </style>
  </defs>
  <path class="cls-1" d="M13.56,5.26c0,1.21,0,2.42,0,3.63,0,.08,0,.16,0,.24,0,.2-.07,.37-.27,.46-.19,.09-.35,.02-.49-.11-.58-.5-1.2-.97-1.74-1.52-.56-.58-1.15-.76-2-.76-.38,0-.79,.01-1.18,0-.39,0-.57-.17-.57-.55,0-.95,0-1.9,0-2.85,0-.39,.17-.55,.57-.55,.68,0,1.36,0,2.04,0,.2,0,.36-.05,.51-.19,.76-.67,1.53-1.32,2.29-1.99,.17-.15,.35-.27,.58-.16,.23,.11,.26,.32,.26,.54,0,1.26,0,2.53,0,3.79Z"/>
</svg>