<?xml version="1.0" encoding="UTF-8"?>
<svg id="Layer_1" data-name="Layer 1" xmlns="http://www.w3.org/2000/svg" viewBox="0 0 13.56 10.5">
  <defs>
    <style>
      .cls-1 {
        fill: #bebdbd;
      }
    </style>
  </defs>
  <g>
    <path class="cls-1" d="M13.56,5.27c-.02,1.85-.6,3.51-1.73,4.97-.15,.2-.34,.3-.59,.24-.21-.05-.33-.21-.37-.41-.05-.21,.08-.37,.2-.53,.72-.95,1.18-2.01,1.36-3.19,.29-1.88-.13-3.59-1.2-5.15-.09-.13-.2-.26-.28-.4-.16-.26-.11-.53,.11-.69,.23-.17,.5-.14,.7,.09,.4,.46,.72,.98,.98,1.53,.54,1.12,.83,2.3,.81,3.55Z"/>
    <path class="cls-1" d="M10.73,5.32c0-1.15-.3-2.15-.91-3.06-.04-.06-.09-.12-.12-.19-.15-.27-.08-.57,.15-.72,.23-.15,.5-.1,.69,.14,.31,.39,.55,.83,.74,1.3,.85,2.14,.62,4.17-.64,6.1-.03,.05-.06,.09-.1,.13-.2,.24-.47,.29-.69,.14-.24-.16-.3-.45-.15-.72,.16-.28,.35-.55,.5-.84,.37-.74,.55-1.52,.54-2.29Z"/>
    <path class="cls-1" d="M9.85,5.15c.03,.95-.22,1.72-.67,2.43-.13,.21-.32,.32-.58,.25-.22-.06-.35-.22-.38-.44-.03-.17,.07-.31,.15-.45,.28-.48,.44-.99,.46-1.54,.03-.64-.13-1.25-.45-1.8-.09-.15-.19-.3-.16-.48,.04-.24,.19-.39,.42-.44,.25-.05,.42,.08,.54,.27,.39,.6,.62,1.26,.66,1.98,0,.11,0,.22,0,.23Z"/>
  </g>
  <path class="cls-1" d="M6.26,5.26c0,1.21,0,2.42,0,3.63,0,.08,0,.16,0,.24,0,.2-.07,.37-.27,.46-.19,.09-.35,.02-.49-.11-.58-.5-1.2-.97-1.74-1.52-.56-.58-1.15-.76-2-.76-.38,0-.79,.01-1.18,0-.39,0-.57-.17-.57-.55,0-.95,0-1.9,0-2.85,0-.39,.17-.55,.57-.55,.68,0,1.36,0,2.04,0,.2,0,.36-.05,.51-.19,.76-.67,1.53-1.32,2.29-1.99,.17-.15,.35-.27,.58-.16,.23,.11,.26,.32,.26,.54,0,1.26,0,2.53,0,3.79Z"/>
</svg>