<?xml version="1.0" encoding="UTF-8"?>
<svg id="Layer_1" data-name="Layer 1" xmlns="http://www.w3.org/2000/svg" viewBox="0 0 48 25.27">
  <defs>
    <style>
      .cls-1 {
        fill: #fdce58;
      }

      .cls-2 {
        fill: #fdce5e;
      }

      .cls-3 {
        fill: #fdcb57;
      }

      .cls-4 {
        fill: #fdcc57;
      }

      .cls-5 {
        fill: #fede00;
      }

      .cls-6 {
        fill: #fede01;
      }

      .cls-7 {
        fill: #fcce58;
      }

      .cls-8 {
        fill: #fccf59;
      }

      .cls-9 {
        fill: #fccd5a;
      }

      .cls-10 {
        fill: #fece5c;
      }

      .cls-11 {
        fill: #dc270f;
      }
    </style>
  </defs>
  <g id="e3mgyt">
    <g>
      <path class="cls-11" d="M-.03,25.35c0-8.44,0-16.88,0-25.32,0-.09,.03-.11,.14-.11,15.93,0,31.86,0,47.79,0,.11,0,.14,.02,.14,.11,0,8.41,0,16.81,0,25.22,0,.09-.03,.11-.14,.11-15.98,0-31.95,0-47.93,0Z"/>
      <path class="cls-5" d="M5.57,7.87s-.04,.02-.06,.03c-.18,.1-.34,.22-.51,.34h0c-.22,.14-.43,.28-.64,.43h0c-.17,.11-.35,.21-.5,.34-.09,.06-.17,.12-.26,.18,0,0-.02-.01-.03-.02,.04-.13,.09-.27,.13-.4,.23-.65,.45-1.3,.69-1.95,.04-.12,.03-.19-.08-.26-.44-.33-.88-.67-1.31-1.01-.16-.15-.33-.27-.51-.39-.06-.05-.12-.09-.19-.14,.06-.04,.1-.02,.14-.02,.79,0,1.58,0,2.37,0,.12,0,.16-.04,.2-.15,.26-.79,.52-1.58,.79-2.37,.01-.04,.03-.08,.05-.13,.06,.06,.07,.13,.09,.2,.26,.77,.52,1.55,.77,2.33,.03,.09,.07,.13,.17,.13,.79,0,1.58,0,2.37,0,.05,0,.09-.01,.16,.03-.11,.08-.21,.16-.32,.24-.19,.11-.35,.26-.53,.39-.22,.16-.43,.32-.64,.5-.2,.14-.38,.3-.58,.43-.03,.02-.06,.05-.08,.09,.24,.7,.49,1.4,.73,2.09,.03,.09,.06,.18,.09,.27,0,.03,.03,.07,0,.1-.02,.02-.04,0-.06-.02-.58-.39-1.17-.77-1.75-1.17-.11-.07-.22-.14-.32-.21-.06-.05-.12-.05-.18,0-.06,.05-.14,.08-.19,.14Z"/>
      <path class="cls-5" d="M10.74,1.71c.18,.02,.34,.09,.52,.13,.33,.09,.23,.12,.44-.15,.11-.13,.21-.27,.32-.4,0,0,.02-.01,.03-.02,.04,.04,.02,.08,.03,.12,0,.2,.02,.4,.02,.61,0,.08,.03,.12,.11,.15,.19,.07,.37,.14,.56,.21,.04,.01,.08,.02,.11,.07-.17,.06-.34,.12-.51,.17-.29,.09-.29,.09-.28,.39,0,.19,0,.37,0,.56-.05,0-.07-.03-.09-.06-.13-.16-.26-.32-.39-.48-.05-.07-.11-.09-.19-.06-.19,.06-.38,.11-.57,.16-.04,.01-.08,.02-.13,.03,0-.06,.03-.09,.06-.12,.12-.17,.24-.33,.37-.49,.06-.07,.06-.12,0-.2-.13-.16-.24-.34-.36-.5-.02-.03-.04-.05-.04-.09Z"/>
      <path class="cls-5" d="M10.87,10.55c.22,.07,.43,.14,.64,.22,.1,.04,.17,.02,.23-.06,.11-.14,.24-.28,.36-.42,.03-.03,.06-.07,.11-.12,0,.23,0,.43,0,.63,0,.27-.05,.21,.21,.32,.17,.08,.35,.15,.54,.24-.1,.07-.19,.07-.28,.1-.15,.05-.3,.09-.45,.12-.08,.02-.1,.06-.1,.13,0,.25,0,.51-.02,.76-.12-.07-.17-.18-.24-.28-.08-.1-.16-.21-.23-.32-.04-.06-.09-.08-.16-.06-.2,.05-.41,.09-.62,.13-.03,0-.07,.01-.12,.02,.02-.08,.07-.12,.11-.17,.12-.15,.24-.29,.37-.44,.05-.05,.05-.1,0-.16-.12-.17-.22-.35-.33-.52-.02-.03-.06-.07-.05-.13Z"/>
      <path class="cls-5" d="M13.44,9.73c.06-.18,.12-.36,.19-.54q.1-.28-.14-.45c-.14-.1-.28-.21-.42-.31,0,0,0-.01-.01-.03,.17-.03,.34-.03,.51-.03,.3,0,.3,0,.41-.29,.06-.17,.12-.33,.19-.52,.1,.18,.14,.35,.2,.51,.11,.3,.11,.3,.43,.31,.17,0,.33,.02,.51,.05-.16,.12-.33,.24-.49,.36-.18,.13-.18,.13-.11,.35,.07,.2,.14,.4,.21,.6-.05,.02-.07,0-.09-.02-.18-.12-.36-.23-.54-.35-.07-.05-.13-.06-.2,0-.17,.12-.34,.23-.52,.34-.03,.02-.06,.06-.12,.04Z"/>
      <path class="cls-6" d="M15.29,5.39c-.19-.01-.38-.02-.56-.03q-.29-.02-.43,.25c-.08,.16-.16,.32-.25,.5-.05-.05-.05-.11-.06-.16-.04-.19-.08-.39-.11-.58-.01-.09-.06-.12-.14-.13-.24-.02-.47-.05-.71-.08-.01-.06,.03-.06,.06-.08,.17-.11,.35-.23,.52-.33,.07-.04,.09-.1,.07-.18-.05-.23-.08-.47-.13-.71,.06,0,.09,.04,.12,.07,.16,.13,.31,.26,.46,.39,.06,.05,.1,.06,.17,.02,.18-.1,.36-.19,.54-.28,.03-.02,.06-.05,.12-.03-.09,.21-.18,.42-.28,.63-.05,.1-.04,.17,.05,.24,.15,.12,.3,.25,.44,.38,.03,.03,.08,.05,.1,.12Z"/>
      <path class="cls-10" d="M6.26,7.93c.4,.26,.79,.52,1.19,.79,.18,.12,.35,.23,.52,.35,.06,.04,.1,.05,.1-.04,.02,.05,.04,.11,.07,.16,0,0-.01,.01-.02,.02-.12-.08-.24-.16-.36-.24-.48-.32-.96-.64-1.44-.96-.02-.02-.04-.03-.06-.05-.01,0-.01-.02,0-.02Z"/>
      <path class="cls-1" d="M7.9,6.14c.24-.19,.47-.37,.71-.56,.11-.09,.22-.17,.33-.25,.04-.03,.08-.08,.14-.07-.38,.3-.76,.6-1.15,.88-.01,.01-.02,0-.03,0Z"/>
      <path class="cls-4" d="M7.9,6.14s.02,0,.03,0c-.22,.17-.45,.35-.67,.52,0-.04,.02-.07,.05-.09,.2-.15,.39-.29,.59-.44Z"/>
      <path class="cls-2" d="M6.26,7.93s0,.02,0,.02c-.12-.06-.23-.14-.34-.22-.06-.04-.1-.04-.16,0-.06,.05-.13,.08-.2,.13,.05-.1,.16-.14,.25-.19,.04-.02,.08,0,.11,.02,.11,.08,.22,.15,.33,.23Z"/>
      <path class="cls-8" d="M4.35,8.67c.04-.08,.12-.11,.19-.15,.15-.09,.28-.22,.45-.28-.2,.16-.42,.31-.64,.43Z"/>
      <path class="cls-3" d="M2.48,5.17c.2,.1,.38,.22,.51,.39-.18-.12-.35-.25-.51-.39Z"/>
      <path class="cls-9" d="M5,8.24c.15-.14,.32-.26,.51-.34-.16,.12-.33,.25-.51,.34Z"/>
      <path class="cls-7" d="M3.85,9.02c0-.05,.06-.07,.09-.1,.14-.08,.25-.2,.41-.25-.15,.14-.33,.24-.5,.35Z"/>
    </g>
  </g>
</svg>