<?xml version="1.0" encoding="UTF-8"?>
<svg id="Layer_1" data-name="Layer 1" xmlns="http://www.w3.org/2000/svg" viewBox="0 0 48 25.27">
  <defs>
    <style>
      .cls-1 {
        fill: #002654;
      }

      .cls-2 {
        fill: #fff;
      }

      .cls-3 {
        fill: #ce1126;
      }
    </style>
  </defs>
  <path class="cls-2" d="M32.05,25.27H16.03c.02-.06,.01-.12,.01-.18,0-8.3,0-16.6,0-24.9,0-.21,.04-.18-.23-.18-5.2,0-10.4,0-15.6,0-.07,0-.14,0-.21,0C.01,.02-.01,0,.02,0c.05,0,.1,0,.15,0H48.07c0,8.38,0,16.76,0,25.14,0,.04,.04,.1-.04,.13,0-.06,0-.12,0-.18,0-8.3,0-16.59,0-24.89q0-.19-.24-.19c-5.16,0-10.33,0-15.49,0-.3,0-.26-.03-.26,.2,0,8.3,0,16.59,0,24.89,0,.05,0,.11,0,.16Z"/>
  <path class="cls-1" d="M0,.03c.07,0,.14,0,.21,0,5.2,0,10.4,0,15.6,0,.26,0,.23-.03,.23,.18,0,8.3,0,16.6,0,24.9,0,.06,.01,.12-.01,.18H0V.03Z"/>
  <path class="cls-3" d="M32.05,25.27c0-.05,0-.11,0-.16,0-8.3,0-16.59,0-24.89,0-.23-.05-.2,.26-.2,5.16,0,10.33,0,15.49,0q.24,0,.24,.19c0,8.3,0,16.59,0,24.89,0,.06,0,.12,0,.18h-15.98Z"/>
</svg>