<?xml version="1.0" encoding="UTF-8"?>
<svg id="Layer_1" data-name="Layer 1" xmlns="http://www.w3.org/2000/svg" viewBox="0 0 48 25.27">
  <defs>
    <style>
      .cls-1 {
        fill: none;
      }

      .cls-2 {
        fill: #fefefe;
      }

      .cls-3 {
        fill: #d40e17;
      }

      .cls-4 {
        fill: #101d86;
      }

      .cls-5 {
        fill: #070606;
      }
    </style>
  </defs>
  <g id="DWxNEU.tif">
    <g>
      <path class="cls-2" d="M0,25.27V0H48V25.27H0Z"/>
      <path class="cls-4" d="M29.58,15.57c0,.07-.04,.13-.07,.19-.8,1.38-1.95,2.33-3.46,2.85-.8,.28-1.63,.38-2.48,.32-2.73-.2-5.06-2.13-5.7-4.85-.35-1.5-.17-2.95,.53-4.32,.02-.03,.04-.07,.06-.1,.06,.07,0,.14-.02,.21-.11,.32-.17,.65-.17,.99,0,.46,.09,.91,.29,1.33,.43,.9,1.12,1.49,2.08,1.72,.96,.23,1.86,.05,2.66-.56,.28-.21,.51-.48,.71-.77,.53-.76,1.25-1.21,2.15-1.35,.94-.15,1.79,.1,2.53,.7,.68,.56,1.05,1.28,1.14,2.15,.05,.51,.02,1.02-.25,1.49Z"/>
      <path class="cls-3" d="M29.58,15.57c.17-.44,.26-.89,.22-1.36-.07-1.04-.54-1.86-1.4-2.45-.45-.31-.96-.49-1.5-.52-1.2-.07-2.15,.38-2.85,1.36-.43,.61-.97,1.05-1.68,1.28-1.76,.57-3.64-.5-4.04-2.3-.13-.6-.1-1.18,.1-1.76,.02-.06,.05-.11,.04-.17,.16-.32,.36-.62,.58-.9,1.03-1.3,2.36-2.09,3.99-2.35,3.29-.52,6.39,1.58,7.14,4.82,.34,1.46,.16,2.88-.5,4.23-.02,.04-.02,.11-.09,.12Z"/>
      <path class="cls-5" d="M14.4,2.42c.29,.2,.58,.39,.88,.58-1.17,1.75-2.33,3.5-3.5,5.25-.29-.2-.58-.39-.88-.58,1.17-1.76,2.33-3.5,3.5-5.25Z"/>
      <path class="cls-5" d="M17.02,21.1c-1.17-1.76-2.33-3.5-3.5-5.25,.29-.2,.58-.39,.86-.58,.05,.03,.07,.07,.09,.11,1.12,1.67,2.23,3.34,3.34,5.02,.01,.02,.02,.03,.03,.05,.05,.06,.03,.09-.03,.13-.26,.17-.53,.35-.8,.53Z"/>
      <path class="cls-5" d="M31.47,3.88c.28-.19,.55-.37,.82-.55,.03-.02,.06-.03,.09,.01,.02,.03,.03,.05,.05,.07,1.11,1.67,2.23,3.34,3.34,5.02,.02,.04,.05,.07,.08,.12-.16,.1-.31,.21-.46,.31-.11,.07-.21,.14-.32,.21-.1,.06-.1,.06-.17-.04-1.13-1.7-2.26-3.39-3.39-5.09-.01-.02-.02-.03-.04-.06Z"/>
      <path class="cls-5" d="M14.4,10.01c-.29-.19-.58-.39-.87-.58,1.17-1.75,2.33-3.5,3.5-5.25,.1,.06,.18,.12,.27,.18,.17,.11,.34,.22,.5,.34,.1,.07,.1,.07,.04,.17-.19,.29-.38,.57-.57,.86-.92,1.39-1.85,2.77-2.77,4.16-.03,.04-.06,.09-.1,.14Z"/>
      <path class="cls-5" d="M15.27,22.27c-.3,.2-.58,.39-.88,.58-1.17-1.75-2.33-3.5-3.5-5.25,.3-.2,.58-.39,.88-.58,1.17,1.75,2.33,3.5,3.5,5.25Z"/>
      <path class="cls-5" d="M16.59,3.88c-.03,.05-.06,.09-.09,.13-1.11,1.66-2.21,3.32-3.32,4.98q-.09,.14-.23,.05c-.24-.16-.48-.32-.72-.48-.01-.05,.02-.07,.04-.1,1.12-1.69,2.25-3.37,3.37-5.06,.01-.02,.02-.03,.03-.05,.03-.05,.06-.05,.11-.02,.27,.18,.53,.36,.81,.54Z"/>
      <path class="cls-5" d="M33.64,22.84s-.03-.02-.05-.03c-.25-.17-.5-.34-.75-.5-.08-.05-.03-.1,0-.14,.44-.66,.88-1.32,1.32-1.98,.06-.09,.12-.18,.18-.27,.03-.05,.06-.06,.11-.02,.25,.17,.5,.34,.75,.5,.09,.05,.03,.1,0,.14-.42,.63-.84,1.26-1.26,1.89-.08,.12-.16,.24-.24,.36-.01,.02-.02,.05-.06,.05Z"/>
      <path class="cls-5" d="M31.76,7.16c-.54-.8-1.07-1.6-1.61-2.41,.29-.2,.58-.39,.86-.58,.05,.02,.06,.07,.09,.1,.48,.73,.97,1.45,1.45,2.18,.01,.02,.02,.03,.03,.05,.04,.05,.04,.08-.02,.12-.27,.17-.53,.35-.81,.54Z"/>
      <path class="cls-5" d="M34.54,9.42c-.29,.2-.58,.39-.88,.59-.54-.8-1.07-1.6-1.61-2.41,.29-.2,.58-.39,.88-.58,.54,.8,1.07,1.6,1.61,2.41Z"/>
      <path class="cls-5" d="M37.15,17.59c0,.06-.04,.09-.07,.13-.48,.73-.97,1.45-1.45,2.18,0,0,0,0,0,.01-.07,.1-.05,.12-.16,.04-.23-.15-.46-.31-.69-.46-.09-.06-.09-.06-.03-.15,.4-.6,.8-1.21,1.2-1.81,.1-.15,.2-.3,.3-.44,.02-.03,.04-.07,.09-.04,.27,.18,.55,.37,.82,.55Z"/>
      <path class="cls-5" d="M36.29,8.26c-.54-.8-1.07-1.6-1.61-2.41,.16-.11,.32-.21,.47-.32,.11-.07,.21-.14,.32-.21,.1-.07,.09-.04,.14,.03,.09,.14,.18,.27,.27,.41,.39,.59,.79,1.18,1.18,1.77,.02,.03,.04,.06,.06,.09,.03,.04,.03,.07-.02,.1-.27,.18-.54,.36-.82,.55Z"/>
      <path class="cls-5" d="M31.03,21.1c-.28-.19-.55-.37-.82-.55-.04-.03-.05-.06-.02-.09,0-.01,.02-.02,.03-.04,.49-.74,.99-1.48,1.48-2.23,.02-.03,.03-.06,.07-.08,.28,.19,.57,.38,.86,.57-.54,.8-1.07,1.6-1.61,2.41Z"/>
      <path class="cls-5" d="M16.59,21.39c-.23,.16-.46,.31-.68,.46-.06,.04-.12,.12-.19,.11-.07-.01-.09-.11-.13-.17-.47-.7-.94-1.41-1.41-2.11-.07-.1-.09-.09,.04-.18,.23-.15,.46-.3,.69-.46,.06-.04,.09-.04,.14,.03,.51,.77,1.03,1.54,1.55,2.33Z"/>
      <path class="cls-5" d="M32.35,21.97c-.3-.2-.58-.39-.88-.58,.05-.08,.1-.16,.15-.23,.45-.68,.91-1.36,1.36-2.04,.01-.02,.03-.04,.04-.06,.03-.06,.07-.07,.13-.03,.2,.14,.4,.27,.6,.4,.06,.04,.14,.08,.2,.14-.53,.8-1.06,1.59-1.6,2.4Z"/>
      <path class="cls-5" d="M32.79,3c.13-.09,.26-.17,.38-.26,.14-.09,.28-.18,.42-.28,.06-.04,.09-.04,.12,.03,0,.01,.02,.02,.02,.04,.49,.73,.97,1.46,1.46,2.19,0,.01,.02,.03,.03,.04,.04,.05,.04,.08-.02,.12-.25,.16-.5,.33-.75,.5-.05,.03-.08,.02-.11-.02-.08-.12-.16-.25-.25-.37-.41-.61-.81-1.22-1.22-1.83-.03-.04-.06-.09-.09-.14Z"/>
      <path class="cls-5" d="M33.66,15.26c.3,.2,.58,.39,.88,.58-.53,.8-1.07,1.6-1.6,2.41-.29-.19-.58-.38-.88-.58,.54-.8,1.07-1.6,1.61-2.41Z"/>
      <path class="cls-5" d="M14.69,18.55c-.21,.14-.41,.28-.62,.41-.09,.06-.16,.13-.26,.16-.06-.08-.11-.16-.17-.24-.45-.67-.89-1.34-1.34-2-.02-.03-.04-.06-.06-.09-.03-.04-.03-.07,.01-.1,.26-.17,.52-.34,.77-.52,.04-.03,.06-.02,.08,.02,0,.02,.02,.03,.03,.05,.5,.75,.99,1.49,1.49,2.24,.01,.02,.03,.04,.04,.07Z"/>
      <path class="cls-5" d="M34.98,16.14c.29,.19,.57,.38,.85,.57,0,.05-.03,.08-.05,.11-.49,.73-.97,1.46-1.46,2.19q-.08,.12-.19,.04c-.23-.15-.46-.31-.69-.46-.06-.04-.06-.07-.02-.13,.51-.76,1.02-1.52,1.53-2.29,0-.01,.02-.02,.04-.04Z"/>
    </g>
  </g>
  <rect class="cls-1" y="-.76" width="48" height="25.28"/>
</svg>