<?xml version="1.0" encoding="UTF-8"?>
<svg id="Layer_1" data-name="Layer 1" xmlns="http://www.w3.org/2000/svg" viewBox="0 0 48 25.28">
  <defs>
    <style>
      .cls-1 {
        fill: #fefefe;
      }

      .cls-2 {
        fill: #b5302b;
      }

      .cls-3 {
        fill: #304496;
      }
    </style>
  </defs>
  <g id="F89rnr">
    <g>
      <path class="cls-1" d="M0,8.44c0-2.77,0-5.54,0-8.3C0,.03,.02,0,.16,0,16.05,0,31.95,0,47.84,0c.14,0,.16,.03,.16,.13,0,2.77,0,5.54,0,8.3-.08,0-.16,0-.24,0-15.84,0-31.68,0-47.52,0-.08,0-.16,0-.24,0Z"/>
      <path class="cls-2" d="M48,16.84c0,2.76,0,5.53,0,8.29,0,.12-.03,.15-.18,.15-15.94,0-31.88,0-47.81,0,0-2.81,0-5.62,0-8.43,.08,0,.16,0,.24,0,15.84,0,31.68,0,47.51,0,.08,0,.16,0,.24,0Z"/>
      <path class="cls-3" d="M48,16.84c-.08,0-.16,0-.24,0-15.84,0-31.68,0-47.51,0-.08,0-.16,0-.24,0,0-2.8,0-5.6,0-8.4,.08,0,.16,0,.24,0,15.84,0,31.68,0,47.52,0,.08,0,.16,0,.24,0v8.4Z"/>
    </g>
  </g>
</svg>