<?xml version="1.0" encoding="UTF-8"?>
<svg id="Layer_1" data-name="Layer 1" xmlns="http://www.w3.org/2000/svg" viewBox="0 0 48 25.28">
  <defs>
    <style>
      .cls-1 {
        fill: #fefdfe;
      }

      .cls-2 {
        fill: #b10124;
      }

      .cls-3 {
        fill: #091043;
      }
    </style>
  </defs>
  <g id="Nq0rE8.tif">
    <g>
      <path class="cls-1" d="M0,23.32c0-.65,0-1.3,0-1.95,.03,0,.07,0,.1,0,15.92,0,31.84,0,47.75,0,.01,0,.03,0,.04,0,.07,.01,.09-.02,.09-.09,0-.57,0-1.15,0-1.72q0-.13-.13-.13c-15.91,0-31.81,0-47.72,0-.04,0-.09,0-.13,0,0-.64,0-1.29,0-1.93,.04,0,.08,0,.12,0,12.73,0,25.46,0,38.19,0,3.18,0,6.37,0,9.55,0,.1,0,.12-.03,.12-.12,0-.56,0-1.13,0-1.7q0-.13-.13-.13c-15.91,0-31.81,0-47.72,0-.04,0-.09,0-.13,0,0-.64,0-1.29,0-1.93,.04,0,.08,0,.12,0,6.32,0,12.63,0,18.95,0,.04,0,.08,0,.12,0,.05,0,.09,0,.14,0,8.61,0,17.22,0,25.82,0,.91,0,1.82,0,2.73,0,.08,0,.1-.01,.1-.1,0-.56,0-1.12,0-1.69q0-.16-.16-.16c-9.54,0-19.08,0-28.63,0,0-.65,0-1.3,0-1.94,.04,0,.09,0,.13,0,9.51,0,19.03,0,28.54,0,.09,0,.11-.02,.11-.11,0-.57,0-1.14,0-1.7q0-.13-.13-.13c-9.51,0-19.01,0-28.52,0-.05,0-.09,0-.14,0v-1.94c8.51,0,17.02,0,25.53,0,1.05,0,2.1,0,3.15,0,.09,0,.1-.03,.1-.11,0-.57,0-1.14,0-1.7q0-.13-.13-.13c-9.51,0-19.02,0-28.52,0-.04,0-.09,0-.13,0V1.97s.09,0,.13,0c9.51,0,19.03,0,28.54,0,.09,0,.11-.02,.11-.11,0-.57,0-1.14,0-1.71q0-.12-.12-.12c-9.52,0-19.03,0-28.55,0-.04,0-.07,0-.11,0-.03,0-.07,0-.1,0-6.36,0-12.73,0-19.09,0C0,.02,0,0,.01,0c.02,0,.05,0,.07,0C16.03,0,31.97,0,47.91,0c.08,0,.09,.02,.09,.09,0,8.36,0,16.73,0,25.09,0,.07-.01,.09-.09,.09-15.94,0-31.88,0-47.82,0-.03,0-.06,.02-.08-.02,.04,0,.08,0,.12,0,9.53,0,19.05,0,28.58,0,6.39,0,12.78,0,19.17,0,.08,0,.11-.02,.11-.1,0-.57,0-1.14,0-1.71q0-.12-.12-.12c-15.91,0-31.83,0-47.74,0-.04,0-.07,0-.11,0Z"/>
      <path class="cls-3" d="M19.2,9.73c0,.65,0,1.3,0,1.94,0,.04,0,.08,0,.12,0,.61,0,1.21,0,1.82-.04,0-.08,0-.12,0-6.32,0-12.63,0-18.95,0-.04,0-.08,0-.12,0,0-4.53,0-9.07,0-13.6,6.36,0,12.73,0,19.09,0,.03,0,.07,0,.1,0,0,.65,0,1.29,0,1.94,0,.65,0,1.29,0,1.94,0,.65,0,1.3,0,1.95,0,.65,0,1.29,0,1.94,0,.65,0,1.29,0,1.94Zm-1.17-7.73h0s0,0,0,0c.03-.03,0-.06,0-.09-.04-.12-.07-.23-.11-.34-.03-.07-.02-.11,.05-.15,.12-.08,.24-.17,.37-.27-.18,0-.33,0-.49,0-.06,0-.08-.02-.1-.07-.04-.15-.1-.3-.15-.46-.05,.17-.1,.31-.15,.46-.02,.06-.05,.08-.11,.07-.15,0-.3,0-.48,0,.14,.1,.25,.19,.37,.26,.07,.05,.08,.09,.05,.17-.05,.13-.09,.27-.14,.43,.15-.11,.28-.2,.4-.29,.03-.02,.05-.05,.09-.01,.13,.1,.27,.19,.4,.3Zm-16.85,0c.12-.09,.25-.18,.37-.28,.05-.04,.08-.03,.12,0,.12,.09,.25,.18,.39,.28-.05-.17-.1-.32-.15-.46-.02-.06,0-.09,.04-.12,.12-.09,.25-.18,.39-.28-.16,0-.3,0-.44,0-.09,0-.13-.02-.15-.11-.03-.14-.09-.27-.14-.43-.05,.17-.11,.31-.15,.45-.02,.06-.04,.08-.11,.08-.15,0-.3,0-.48,0,.14,.1,.26,.2,.38,.28,.06,.04,.07,.07,.04,.14-.04,.12-.08,.24-.12,.35,0,.03-.03,.06,0,.09,0,0,0,0,0,0,0,0,0,0,0,0,0,0,0,0,0,0Zm7.26,0h0s0,0,0,0c.03-.03,0-.06,0-.09-.04-.12-.07-.23-.11-.34-.03-.07-.02-.11,.05-.15,.12-.08,.24-.17,.37-.27-.18,0-.33,0-.49,0-.06,0-.08-.02-.1-.07-.04-.15-.1-.3-.15-.46-.05,.17-.1,.31-.15,.46-.02,.06-.05,.08-.11,.07-.15,0-.3,0-.48,0,.14,.1,.25,.19,.37,.26,.07,.05,.08,.09,.05,.17-.05,.13-.09,.27-.14,.43,.15-.11,.28-.2,.4-.29,.03-.02,.05-.05,.09-.01,.13,.1,.27,.19,.4,.3Zm2.34,0c.12-.09,.25-.18,.37-.28,.05-.04,.08-.03,.12,0,.12,.09,.25,.18,.39,.28-.05-.17-.1-.32-.15-.46-.02-.06,0-.09,.04-.12,.12-.09,.25-.18,.39-.28-.16,0-.3,0-.44,0-.09,0-.13-.02-.15-.11-.03-.14-.09-.27-.14-.43-.05,.17-.11,.31-.15,.45-.02,.06-.04,.08-.11,.08-.15,0-.3,0-.48,0,.14,.1,.26,.2,.38,.28,.06,.04,.07,.07,.04,.14-.04,.12-.08,.24-.12,.35,0,.03-.03,.06,0,.09,0,0,0,0,0,0,0,0,0,0,0,0,0,0,0,0,0,0ZM4.37,12.85c.14-.08,.25-.18,.38-.27,.04-.03,.06-.03,.1,0,.13,.09,.24,.19,.38,.27,0,0,0,0,0,.01,0,0,0,0,0-.01,0,0,0,0-.01,0,.03-.03,0-.06,0-.08-.04-.12-.07-.24-.12-.35-.02-.05-.01-.09,.04-.12,.13-.09,.25-.18,.4-.29-.17,0-.31,0-.44,0-.1,0-.14-.03-.16-.12-.04-.13-.08-.26-.13-.41-.05,.15-.09,.27-.13,.39q-.05,.14-.19,.14c-.13,0-.26,0-.42,0,.15,.11,.27,.2,.4,.29,.05,.03,.06,.07,.04,.12-.05,.14-.09,.28-.14,.43,0,0,0,.02,0,.02,0,0,.01,0,.01-.01Zm10.46,0s0,0,0,.01c0,0,0,0,0-.01,0,0,0,0-.01,0,.03-.03,0-.06,0-.08-.04-.12-.07-.24-.12-.35-.02-.05-.01-.09,.04-.12,.13-.09,.25-.18,.4-.29-.17,0-.31,0-.44,0-.1,0-.14-.03-.16-.12-.04-.13-.08-.26-.13-.41-.05,.15-.09,.27-.13,.39q-.05,.14-.19,.14c-.13,0-.26,0-.42,0,.15,.11,.27,.2,.4,.29,.05,.03,.06,.07,.04,.12-.05,.14-.09,.28-.14,.43,0,0,0,.02,0,.02,0,0,.01,0,.01-.01,.14-.08,.25-.18,.38-.27,.04-.03,.06-.03,.1,0,.13,.09,.24,.19,.38,.27Zm-13.66,0c.14-.07,.25-.17,.38-.26,.05-.03,.08-.03,.12,0,.12,.09,.25,.18,.39,.29-.05-.17-.09-.31-.15-.45-.03-.07,0-.1,.05-.14,.12-.08,.24-.18,.39-.28-.17,0-.31,0-.46,0-.08,0-.12-.02-.14-.1-.04-.14-.09-.28-.14-.43-.05,.15-.1,.29-.14,.43-.02,.08-.05,.11-.14,.1-.14,0-.29,0-.46,0,.15,.11,.27,.2,.4,.29,.05,.03,.05,.06,.03,.11-.04,.15-.11,.29-.13,.44,0,0,0,0-.01,0,0,0,0,0,0,0,0,0,0,0,0-.01Zm9.6,0c.14-.07,.25-.17,.38-.26,.05-.03,.08-.03,.12,0,.12,.09,.25,.18,.39,.29-.05-.17-.09-.31-.15-.45-.03-.07,0-.1,.05-.14,.12-.08,.24-.18,.39-.28-.17,0-.31,0-.46,0-.08,0-.12-.02-.14-.1-.04-.14-.09-.28-.14-.43-.05,.15-.1,.29-.14,.43-.02,.08-.05,.11-.14,.1-.14,0-.29,0-.46,0,.15,.11,.27,.2,.4,.29,.05,.03,.05,.06,.03,.11-.04,.15-.11,.29-.13,.44,0,0,0,0-.01,0,0,0,0,0,0,0,0,0,0,0,0-.01Zm-1.59-9.51c.14-.08,.25-.18,.38-.27,.04-.03,.06-.03,.1,0,.13,.09,.24,.19,.38,.27,0,0,0,.02,.01,.01,0,0,0-.01,0-.02-.04-.14-.08-.27-.13-.41-.02-.07-.02-.1,.04-.14,.13-.08,.24-.17,.39-.28-.18,0-.33,0-.49,0-.07,0-.09-.02-.11-.08-.04-.14-.09-.28-.15-.45-.05,.16-.11,.3-.14,.44-.02,.08-.06,.09-.13,.09-.15,0-.29,0-.47,0,.14,.1,.26,.19,.38,.27,.06,.04,.08,.07,.05,.15-.05,.13-.09,.27-.13,.41,0,0,0,.02,0,.02,0,0,.01,0,.01-.01Zm6.39,0s.04-.01,.05-.02c.11-.08,.21-.15,.32-.23,.05-.04,.08-.04,.13,0,.12,.09,.25,.18,.39,.28-.05-.15-.09-.27-.13-.4q-.04-.14,.07-.22c.11-.08,.21-.15,.32-.23-.16-.02-.32-.02-.48-.02-.05,0-.08-.01-.09-.07-.05-.15-.1-.3-.15-.47-.05,.17-.11,.31-.15,.47-.02,.05-.04,.07-.09,.07-.16,0-.31,0-.5,0,.15,.11,.27,.2,.4,.29,.05,.03,.05,.06,.04,.12-.05,.14-.11,.28-.13,.43,0,0,0,0-.01,0,0,0,0,0,0,0,0,0,0,0,0-.01Zm-2.32,0s0,0,0,.01c0,0,0,0,0,0,0,0,0,0-.01,0-.03-.14-.08-.28-.13-.42-.02-.07-.01-.1,.05-.14,.12-.08,.24-.18,.39-.28-.17,0-.31,0-.45,0-.1,0-.13-.03-.16-.12-.03-.13-.09-.26-.14-.41-.05,.17-.1,.31-.15,.46-.02,.06-.04,.08-.1,.08-.15,0-.31,0-.49,0,.15,.11,.27,.2,.39,.29,.05,.03,.06,.06,.04,.12-.05,.15-.1,.29-.15,.46,.12-.09,.23-.17,.33-.24,.12-.09,.12-.08,.24,0,.11,.07,.2,.17,.32,.21Zm-7.28,0s.04-.01,.05-.02c.11-.08,.21-.15,.32-.23,.05-.04,.08-.04,.13,0,.12,.09,.25,.18,.39,.28-.05-.15-.09-.27-.13-.4q-.04-.14,.07-.22c.11-.08,.21-.15,.32-.23-.16-.02-.32-.02-.48-.02-.05,0-.08-.01-.09-.07-.05-.15-.1-.3-.15-.47-.05,.17-.11,.31-.15,.47-.02,.05-.04,.07-.09,.07-.16,0-.31,0-.5,0,.15,.11,.27,.2,.4,.29,.05,.03,.05,.06,.04,.12-.05,.14-.11,.28-.13,.43,0,0,0,0-.01,0,0,0,0,0,0,0,0,0,0,0,0-.01Zm-2.32,0s0,0,0,.01c0,0,0,0,0,0,0,0,0,0-.01,0-.03-.14-.08-.28-.13-.42-.02-.07-.01-.1,.05-.14,.12-.08,.24-.18,.39-.28-.17,0-.31,0-.45,0-.1,0-.13-.03-.16-.12-.03-.13-.09-.26-.14-.41-.05,.17-.1,.31-.15,.46-.02,.06-.04,.08-.1,.08-.15,0-.31,0-.49,0,.15,.11,.27,.2,.39,.29,.05,.03,.06,.06,.04,.12-.05,.15-.1,.29-.15,.46,.12-.09,.23-.17,.33-.24,.12-.09,.12-.08,.24,0,.11,.07,.2,.17,.32,.21Zm0,2.72s0,0,0,.01c0,0,0,0,0,0,0,0,0,0,0-.01-.03-.14-.08-.27-.12-.4-.03-.09-.01-.13,.06-.17,.12-.08,.23-.17,.37-.27-.18,0-.33,0-.48,0-.07,0-.09-.02-.11-.08-.04-.15-.09-.29-.15-.45-.05,.16-.1,.31-.14,.45-.02,.06-.05,.08-.11,.08-.15,0-.3,0-.48,0,.15,.11,.27,.2,.39,.29,.05,.03,.06,.06,.04,.12-.05,.14-.1,.29-.15,.46,.09-.07,.17-.12,.24-.17,.07-.05,.14-.14,.21-.14,.07,0,.14,.09,.21,.14,.08,.05,.13,.13,.23,.15Zm9.6,0s0,0,0,.01h0s0,0,0-.01c-.02-.11-.06-.2-.09-.3-.06-.2-.06-.2,.1-.32,.07-.05,.14-.1,.2-.15,.02-.02,.06-.02,.06-.06-.15,0-.3,0-.45,0-.07,0-.09-.02-.11-.08-.04-.15-.09-.29-.15-.45-.05,.16-.1,.31-.14,.45-.02,.06-.05,.08-.11,.08-.15,0-.3,0-.48,0,.15,.11,.27,.2,.39,.29,.05,.03,.06,.06,.04,.12-.05,.14-.1,.29-.15,.46,.09-.07,.17-.12,.24-.17,.07-.05,.14-.14,.21-.14,.07,0,.14,.09,.21,.14,.08,.05,.13,.13,.23,.15Zm-7.28,0s.05-.02,.07-.03c.11-.07,.21-.15,.31-.23,.04-.03,.07-.03,.11,0,.12,.09,.25,.18,.4,.29-.06-.17-.1-.32-.15-.47-.02-.05-.01-.08,.03-.11,.05-.03,.1-.07,.15-.11,.08-.06,.15-.11,.25-.18-.17,0-.32,0-.46,0-.08,0-.12-.02-.14-.1-.04-.14-.09-.28-.14-.44-.05,.16-.1,.31-.15,.45-.02,.06-.04,.08-.11,.08-.15,0-.3,0-.48,0,.15,.11,.27,.2,.4,.29,.05,.03,.06,.06,.04,.11-.05,.14-.11,.28-.13,.44,0,0,0,0,0,.01,0,0,0,0,0,0,0,0,0,0,0-.01Zm9.6,0s.05-.02,.07-.03c.11-.07,.21-.15,.31-.23,.04-.03,.07-.03,.11,0,.12,.09,.25,.18,.4,.29-.06-.17-.1-.32-.15-.47-.02-.05-.01-.08,.03-.11,.05-.03,.1-.07,.15-.11,.08-.06,.15-.11,.25-.18-.17,0-.32,0-.46,0-.08,0-.12-.02-.14-.1-.04-.14-.09-.28-.14-.44-.05,.16-.1,.31-.15,.45-.02,.06-.04,.08-.11,.08-.15,0-.3,0-.48,0,.15,.11,.27,.2,.4,.29,.05,.03,.06,.06,.04,.11-.05,.14-.11,.28-.13,.44,0,0,0,0,0,.01,0,0,0,0,0,0,0,0,0,0,0-.01ZM3.64,8.77s0,0,0,.01c0,0,0,0,0,0,0,0,0,0,0-.01-.03-.14-.08-.28-.13-.42-.02-.06-.01-.1,.04-.14,.12-.08,.24-.18,.36-.26-.16-.02-.31-.02-.46-.02-.06,0-.09-.02-.1-.08-.04-.15-.1-.29-.15-.46-.05,.16-.1,.31-.15,.46-.02,.06-.04,.08-.1,.08-.06,0-.12,0-.18,0-.09,0-.19,0-.28,0,.11,.1,.21,.18,.32,.25,.09,.05,.11,.11,.07,.2-.05,.13-.09,.26-.13,.41,.15-.11,.28-.2,.41-.3,.04-.03,.06-.03,.1,0,.11,.08,.23,.17,.34,.25,.01,.01,.03,.04,.05,.02Zm9.6,0s0,0,0,.01c0,0,0,0,0,0,0,0,0,0,0-.01-.03-.14-.08-.28-.13-.42-.02-.06-.01-.1,.04-.14,.12-.08,.24-.18,.36-.26-.16-.02-.31-.02-.46-.02-.06,0-.09-.02-.1-.08-.04-.15-.1-.29-.15-.46-.05,.16-.1,.31-.15,.46-.02,.06-.04,.08-.1,.08-.06,0-.12,0-.18,0-.09,0-.19,0-.28,0,.11,.1,.21,.18,.32,.25,.09,.05,.11,.11,.07,.2-.05,.13-.09,.26-.13,.41,.15-.11,.28-.2,.41-.3,.04-.03,.06-.03,.1,0,.11,.08,.23,.17,.34,.25,.01,.01,.03,.04,.05,.02Zm-4.35-.83s0,.01,0,.02c.13,.09,.25,.18,.38,.27,.05,.03,.05,.06,.03,.11-.05,.15-.1,.3-.16,.47,.15-.11,.27-.2,.4-.29,.04-.03,.07-.03,.11,0,.13,.1,.25,.19,.4,.29-.05-.17-.1-.31-.15-.46-.02-.05-.02-.09,.04-.12,.13-.08,.25-.18,.4-.29-.18,0-.33,0-.47,0-.07,0-.1-.02-.12-.09-.04-.14-.09-.28-.14-.44-.06,.17-.11,.31-.15,.46-.02,.06-.05,.08-.1,.08-.15,0-.3,0-.46,0Zm6.66,.84s.01,0,.02,0c.13-.09,.25-.18,.38-.27,.04-.03,.06-.03,.1,0,.13,.1,.26,.19,.4,.29-.03-.09-.05-.16-.07-.23-.03-.1-.1-.2-.08-.29,.02-.09,.16-.13,.24-.2,.06-.05,.13-.08,.18-.15-.17,0-.32,0-.47,0-.06,0-.08-.02-.1-.07-.04-.15-.09-.3-.15-.46-.06,.17-.11,.31-.15,.46-.02,.06-.04,.07-.1,.07-.15,0-.31,0-.49,0,.14,.11,.27,.2,.39,.29,.05,.03,.06,.07,.04,.12-.05,.14-.09,.29-.14,.43Zm-9.15-1.37c-.05,.15-.1,.28-.13,.42-.02,.09-.06,.13-.16,.12-.14-.01-.28,0-.44,0,.14,.1,.25,.19,.36,.26,.07,.05,.09,.09,.06,.18-.05,.13-.09,.27-.14,.42,.14-.1,.26-.18,.38-.27,.05-.04,.09-.05,.15,0,.12,.09,.24,.18,.38,.28-.04-.12-.07-.21-.1-.3q-.08-.23,.12-.37c.08-.06,.16-.12,.26-.19-.18,0-.34,0-.49,0-.06,0-.08-.01-.1-.07-.04-.15-.09-.3-.15-.46Zm2.49-2.18s0,.01,0,.02c.12,.09,.23,.18,.35,.26,.06,.04,.08,.08,.05,.15-.05,.14-.09,.28-.14,.44,.14-.1,.27-.19,.4-.29,.05-.03,.07-.03,.12,0,.12,.09,.25,.18,.4,.29-.04-.11-.07-.2-.1-.3-.02-.08-.08-.16-.06-.23,.02-.07,.12-.11,.19-.16,.08-.06,.15-.11,.25-.19-.18,0-.32,0-.47,0-.07,0-.1-.01-.12-.09-.04-.14-.09-.28-.14-.45-.06,.17-.11,.31-.15,.46-.02,.06-.04,.08-.1,.08-.15,0-.3,0-.46,0Zm8.25,7.66c.14-.11,.27-.19,.39-.29,.05-.04,.08-.04,.13,0,.12,.09,.24,.18,.39,.28-.06-.17-.1-.32-.15-.47-.02-.05,0-.08,.03-.11,.13-.09,.26-.18,.4-.29-.18,0-.33,0-.48,0-.06,0-.09-.01-.11-.08-.04-.15-.09-.29-.15-.45-.05,.15-.1,.29-.14,.42-.02,.08-.05,.11-.14,.11-.14,0-.29,0-.46,0,.15,.11,.27,.2,.4,.29,.04,.03,.05,.06,.04,.11-.05,.15-.1,.29-.15,.47Zm-9.88-.87c.13,.09,.23,.18,.35,.25,.09,.06,.12,.11,.07,.22-.05,.12-.08,.25-.13,.4,.14-.1,.27-.19,.38-.28,.05-.04,.09-.04,.14,0,.12,.09,.24,.17,.36,.26-.03-.15-.07-.3-.12-.44-.02-.06-.01-.09,.04-.13,.13-.08,.25-.18,.39-.28-.17,0-.32,0-.47,0-.08,0-.11-.03-.13-.1-.04-.14-.09-.28-.14-.43-.05,.16-.1,.3-.14,.44-.02,.07-.05,.1-.13,.1-.15,0-.29,0-.47,0Zm-3.2-2.72c.15,.11,.27,.2,.4,.29,.05,.03,.06,.06,.04,.11-.05,.15-.1,.3-.15,.47,.13-.09,.24-.16,.34-.25,.09-.08,.15-.07,.24,0,.1,.09,.21,.16,.34,.25-.05-.17-.1-.32-.15-.46-.02-.06,0-.09,.04-.12,.13-.09,.25-.18,.39-.28-.18,0-.34,0-.49,0-.06,0-.08-.02-.1-.07-.05-.15-.09-.29-.14-.44-.07,.15-.11,.29-.16,.44-.01,.05-.04,.07-.09,.07-.16,0-.31,0-.5,0Zm11.07,0c-.18,0-.34,0-.49,0-.06,0-.08-.02-.1-.07-.05-.15-.09-.29-.14-.44-.07,.15-.11,.29-.16,.44-.01,.05-.04,.07-.09,.07-.16,0-.31,0-.5,0,.15,.11,.27,.2,.4,.29,.05,.03,.06,.06,.04,.11-.05,.15-.1,.3-.15,.47,.13-.09,.24-.16,.34-.25,.09-.08,.15-.07,.24,0,.1,.09,.21,.16,.34,.25-.05-.17-.1-.32-.15-.46-.02-.06,0-.09,.04-.12,.13-.09,.25-.18,.4-.28Zm-3.94-.53c-.05,.16-.11,.31-.15,.46-.02,.06-.04,.08-.1,.08-.15,0-.31,0-.49,0,.09,.07,.16,.12,.23,.17,.07,.05,.18,.1,.2,.17,.02,.07-.04,.17-.07,.26-.02,.08-.06,.16-.07,.26,.13-.09,.25-.17,.36-.26,.06-.05,.1-.05,.16,0,.11,.09,.24,.17,.38,.27-.05-.15-.08-.28-.13-.41-.04-.09-.03-.15,.06-.2,.12-.07,.22-.16,.35-.25-.18,0-.34,0-.5,0-.05,0-.08-.02-.09-.07-.05-.15-.1-.3-.15-.47Zm-9.6,0c-.05,.16-.1,.3-.14,.45-.02,.07-.05,.09-.12,.09-.15,0-.3,0-.47,0,.13,.1,.24,.18,.36,.26,.08,.05,.1,.09,.06,.19-.05,.13-.09,.26-.14,.42,.14-.11,.27-.19,.39-.28,.05-.04,.08-.04,.14,0,.12,.09,.24,.18,.39,.28-.05-.15-.09-.29-.14-.41-.04-.09-.03-.14,.06-.2,.12-.07,.22-.16,.36-.26-.18,0-.34,0-.5,0-.05,0-.07-.01-.08-.06-.05-.15-.1-.3-.15-.47Zm15.26,.53c.12,.09,.21,.16,.31,.23q.15,.11,.09,.28c-.04,.11-.07,.22-.11,.33,.12-.06,.22-.14,.32-.21q.13-.09,.25,0c.1,.07,.2,.14,.3,.22-.03-.15-.07-.29-.12-.43-.02-.06-.01-.1,.04-.14,.12-.08,.24-.18,.39-.28-.18,0-.33,0-.48,0-.07,0-.09-.02-.11-.08-.04-.15-.09-.29-.15-.45-.05,.17-.1,.31-.15,.46-.02,.05-.04,.07-.1,.07-.15,0-.31,0-.49,0Zm-8.43,.85s.01,0,.02-.01c-.05-.14-.09-.29-.14-.43-.02-.06,0-.08,.04-.11,.13-.09,.25-.18,.4-.29-.18,0-.34,0-.49,0-.06,0-.08-.01-.1-.07-.04-.15-.1-.3-.15-.46-.05,.16-.1,.29-.14,.43-.02,.07-.05,.1-.13,.1-.15,0-.29,0-.46,0,.13,.1,.24,.18,.36,.26,.09,.05,.1,.1,.06,.2-.05,.13-.09,.26-.14,.41,.14-.11,.27-.19,.39-.28,.05-.04,.09-.04,.14,0,.11,.09,.24,.17,.35,.26Zm5.23-3.56c.15,.11,.27,.2,.4,.29,.05,.03,.05,.06,.04,.11-.05,.15-.1,.3-.15,.47,.14-.1,.27-.19,.39-.29,.05-.04,.08-.03,.13,0,.12,.09,.25,.18,.39,.28-.06-.17-.1-.32-.15-.47-.02-.05-.01-.08,.03-.11,.13-.09,.25-.18,.4-.29-.18,0-.34,0-.49,0-.06,0-.08-.02-.1-.07-.04-.15-.09-.29-.15-.47-.06,.17-.11,.31-.15,.46-.02,.06-.05,.08-.11,.08-.15,0-.3,0-.48,0Zm-9.6,0c.15,.11,.27,.2,.4,.29,.05,.03,.05,.06,.04,.11-.05,.15-.1,.3-.15,.47,.14-.1,.27-.19,.39-.29,.05-.04,.08-.03,.13,0,.12,.09,.25,.18,.39,.28-.06-.17-.1-.32-.15-.47-.02-.05-.01-.08,.03-.11,.13-.09,.25-.18,.4-.29-.18,0-.34,0-.49,0-.06,0-.08-.02-.1-.07-.04-.15-.09-.29-.15-.46-.06,.17-.11,.31-.15,.45-.02,.07-.05,.09-.12,.09-.15,0-.29,0-.47,0Zm-2.91,.83s.01,0,.02,.01c.12-.08,.24-.16,.35-.25,.06-.05,.11-.04,.17,0,.11,.09,.23,.17,.37,.27-.05-.16-.09-.3-.14-.43-.03-.07-.02-.12,.05-.16,.12-.08,.24-.17,.37-.27-.18,0-.34,0-.49,0-.05,0-.08-.02-.09-.07-.05-.15-.1-.3-.15-.47-.05,.15-.1,.29-.14,.42-.02,.09-.06,.12-.15,.11-.14,0-.28,0-.45,0,.14,.11,.27,.2,.39,.28,.05,.03,.06,.06,.04,.12-.05,.14-.09,.29-.14,.43Zm10.78-.83c-.18,0-.33,0-.49,0-.06,0-.08-.01-.1-.07-.04-.15-.09-.3-.15-.47-.05,.16-.1,.3-.14,.44-.02,.08-.06,.11-.14,.1-.14,0-.29,0-.45,0,.14,.1,.26,.2,.39,.28,.06,.04,.07,.07,.04,.14-.05,.14-.09,.28-.14,.42,.14-.08,.27-.17,.39-.26,.04-.03,.07-.03,.11,0,.12,.09,.25,.18,.4,.29-.05-.17-.09-.31-.15-.45-.02-.06,0-.09,.04-.13,.12-.09,.24-.18,.39-.28Zm-3.2,0c-.18,0-.32,0-.47,0-.08,0-.11-.03-.13-.1-.04-.14-.09-.28-.14-.44-.05,.17-.1,.31-.15,.46-.02,.06-.04,.08-.1,.08-.15,0-.31,0-.48,0,.14,.1,.26,.19,.38,.28,.05,.04,.07,.07,.05,.14-.05,.14-.09,.28-.15,.45,.15-.11,.27-.19,.39-.29,.05-.04,.08-.03,.13,0,.12,.09,.24,.18,.36,.26-.03-.15-.07-.3-.12-.43-.02-.06-.02-.09,.04-.13,.13-.08,.25-.18,.39-.28Zm8.12,0c.14,.1,.26,.2,.39,.28,.05,.04,.06,.07,.04,.13-.05,.14-.09,.29-.15,.45,.14-.1,.27-.19,.39-.28,.05-.04,.08-.04,.13,0,.12,.09,.24,.18,.37,.27-.03-.14-.06-.28-.11-.41-.04-.09-.01-.13,.06-.18,.12-.08,.23-.16,.36-.26-.18,0-.34,0-.49,0-.05,0-.07-.02-.09-.07-.05-.15-.1-.3-.15-.47-.05,.16-.1,.29-.14,.43-.02,.08-.05,.11-.14,.11-.14,0-.29,0-.46,0Zm-2.01-1.85c-.06-.17-.1-.32-.15-.47-.02-.05-.01-.08,.03-.11,.13-.09,.25-.18,.4-.29-.18,0-.33,0-.48,0-.06,0-.09-.02-.1-.07-.04-.15-.09-.29-.15-.46-.06,.17-.11,.32-.15,.47-.02,.05-.04,.07-.1,.07-.15,0-.31,0-.49,0,.14,.11,.27,.2,.4,.29,.05,.03,.05,.06,.04,.11-.05,.15-.1,.3-.15,.47,.14-.11,.27-.19,.4-.29,.04-.03,.07-.04,.12,0,.12,.09,.25,.18,.4,.29Zm-9.6,0c-.05-.16-.09-.29-.14-.42-.03-.09-.02-.14,.06-.19,.12-.07,.23-.16,.36-.26h-.41c-.15,0-.15,0-.19-.14-.04-.12-.08-.25-.13-.39-.06,.17-.11,.31-.15,.45-.02,.06-.05,.09-.11,.08-.15,0-.3,0-.47,0,.15,.11,.27,.2,.4,.29,.05,.03,.05,.06,.03,.11-.05,.15-.1,.3-.15,.47,.14-.1,.27-.19,.39-.29,.05-.04,.08-.04,.13,0,.12,.09,.25,.18,.39,.29Zm12.34-1.4c-.04,.13-.08,.24-.11,.35q-.06,.19-.26,.19h-.36c.13,.1,.24,.19,.36,.26,.09,.05,.09,.1,.06,.19-.05,.13-.09,.26-.14,.42,.15-.1,.27-.19,.39-.28,.05-.04,.08-.04,.13,0,.12,.09,.24,.18,.37,.27-.02-.13-.06-.25-.1-.36q-.05-.15,.08-.25c.1-.07,.2-.15,.32-.23-.18,0-.33,0-.49,0-.06,0-.08-.02-.1-.07-.04-.15-.1-.3-.15-.47Zm-6.85,1.4c.15-.11,.28-.2,.4-.29,.04-.03,.07-.03,.11,0,.12,.09,.25,.18,.4,.29-.05-.17-.09-.31-.15-.45-.02-.06-.01-.09,.04-.13,.12-.08,.24-.18,.39-.28-.18,0-.34,0-.49,0-.05,0-.08-.02-.09-.07-.05-.15-.1-.3-.15-.47-.05,.17-.11,.32-.15,.47-.02,.06-.04,.07-.1,.07-.15,0-.31,0-.49,0,.15,.11,.27,.2,.39,.28,.05,.03,.06,.07,.04,.12-.05,.14-.09,.29-.15,.46Zm-2.74-1.4c-.05,.17-.1,.31-.14,.45-.02,.07-.05,.09-.12,.09-.15,0-.3,0-.47,0,.14,.1,.25,.19,.37,.26,.07,.05,.08,.09,.06,.17-.05,.13-.09,.27-.14,.43,.14-.1,.27-.19,.38-.28,.06-.04,.09-.04,.14,0,.12,.09,.24,.17,.36,.26-.03-.16-.07-.3-.13-.44-.02-.05-.01-.08,.04-.11,.13-.09,.25-.18,.4-.29-.17,0-.32,0-.46,0-.08,0-.11-.03-.13-.1-.04-.14-.09-.28-.14-.44Zm-5.66,.54c-.17,0-.31,0-.45,0-.08,0-.12-.02-.14-.1-.04-.14-.09-.28-.14-.44-.06,.17-.11,.32-.15,.46-.02,.06-.04,.07-.1,.07-.15,0-.31,0-.49,0,.09,.07,.16,.12,.23,.17,.07,.05,.18,.1,.2,.17,.02,.07-.04,.17-.07,.26-.02,.08-.06,.16-.07,.25,.13-.09,.25-.17,.36-.26,.06-.05,.1-.05,.16,0,.11,.09,.24,.17,.35,.26-.03-.15-.07-.28-.12-.41-.03-.08-.02-.13,.06-.18,.12-.07,.23-.16,.37-.26ZM5.51,1.16v-.02c-.14,0-.28,0-.41,0-.1,0-.14-.03-.16-.12-.04-.13-.08-.26-.13-.42-.06,.18-.11,.32-.15,.47-.01,.05-.04,.07-.09,.07-.15,0-.31,0-.49,0,.14,.11,.26,.2,.39,.28,.05,.03,.06,.07,.04,.12-.05,.15-.1,.29-.15,.46,.14-.1,.27-.19,.39-.29,.05-.04,.08-.04,.13,0,.12,.09,.25,.18,.39,.28-.06-.17-.1-.32-.16-.47-.02-.04,0-.07,.03-.1,.13-.09,.25-.18,.38-.27Zm8.15-.02c.14,.11,.26,.2,.39,.28,.05,.03,.06,.07,.04,.12-.05,.15-.1,.29-.15,.46,.14-.1,.27-.19,.39-.29,.05-.04,.08-.04,.13,0,.12,.09,.25,.18,.39,.28-.06-.17-.1-.32-.15-.46-.02-.05,0-.08,.04-.11,.13-.09,.25-.18,.4-.29-.16,0-.3,0-.43,0-.11,.01-.15-.03-.18-.13-.03-.13-.08-.25-.13-.41-.06,.18-.11,.32-.15,.47-.01,.05-.04,.07-.09,.07-.15,0-.31,0-.49,0Zm-4.52,10.38c.14-.1,.26-.18,.37-.27,.07-.05,.11-.05,.17,0,.11,.09,.23,.17,.37,.27-.06-.17-.1-.32-.15-.46-.02-.05-.01-.08,.04-.11,.13-.09,.25-.18,.38-.27-.02,0-.02-.01-.03-.01-.1,0-.2,0-.3,0q-.21,0-.28-.2c-.03-.1-.07-.21-.11-.33-.06,.17-.11,.32-.15,.46-.02,.06-.05,.08-.11,.07-.15,0-.3,0-.48,0,.15,.11,.27,.2,.39,.28,.05,.04,.05,.07,.04,.12-.05,.15-.1,.29-.15,.46Zm-6.4,0c.15-.11,.27-.19,.39-.29,.05-.04,.08-.04,.13,0,.12,.09,.24,.18,.39,.28-.05-.16-.08-.29-.14-.42-.04-.09-.01-.14,.06-.19,.12-.07,.22-.16,.35-.26-.18,0-.33,0-.48,0-.07,0-.09-.02-.11-.08-.04-.15-.09-.29-.15-.45-.04,.11-.06,.2-.09,.29-.03,.08-.03,.18-.09,.23-.06,.05-.17,.01-.25,.02-.09,0-.18,0-.27,0,.12,.11,.24,.2,.36,.28,.05,.04,.06,.07,.04,.12-.05,.14-.09,.29-.15,.46Zm10.05-1.4c-.05,.15-.1,.28-.13,.41-.02,.11-.08,.14-.18,.13-.13-.01-.26,0-.39,0,.12,.11,.24,.2,.36,.28,.05,.03,.06,.06,.04,.12-.05,.14-.1,.29-.15,.46,.14-.1,.26-.18,.37-.27,.06-.05,.1-.05,.16,0,.11,.09,.23,.17,.38,.28-.05-.17-.1-.31-.15-.45-.02-.06-.01-.09,.04-.13,.12-.08,.24-.18,.39-.28-.18,0-.33,0-.48,0-.06,0-.09-.02-.11-.08-.04-.15-.1-.29-.15-.46Zm-5.94,1.4c-.05-.17-.09-.31-.15-.45-.02-.06-.01-.09,.04-.13,.12-.08,.24-.18,.38-.28-.18,0-.33,0-.49,0-.06,0-.08-.02-.1-.07-.04-.15-.09-.3-.15-.46-.05,.15-.1,.28-.13,.41-.02,.1-.07,.13-.17,.13-.13,0-.27,0-.43,0,.14,.1,.25,.19,.37,.27,.07,.04,.08,.09,.05,.16-.05,.13-.09,.27-.14,.44,.13-.1,.25-.17,.35-.26,.08-.07,.13-.07,.21,0,.1,.09,.22,.16,.35,.26Zm8.44-.86s0,.01,0,.02c.11,.08,.22,.17,.33,.24,.07,.05,.1,.09,.06,.18-.05,.13-.09,.27-.14,.43,.14-.1,.26-.19,.38-.28,.06-.04,.09-.05,.15,0,.12,.09,.24,.18,.38,.28-.05-.17-.1-.31-.15-.45-.02-.06,0-.09,.04-.13,.12-.08,.24-.18,.38-.28-.18,0-.33,0-.48,0-.07,0-.09-.02-.11-.08-.04-.15-.09-.29-.15-.46-.06,.17-.11,.32-.15,.47-.02,.06-.04,.07-.1,.07-.15,0-.3,0-.46,0Z"/>
      <path class="cls-2" d="M0,19.43s.09,0,.13,0c15.91,0,31.81,0,47.72,0q.13,0,.13,.13c0,.57,0,1.15,0,1.72,0,.07-.01,.1-.09,.09-.01,0-.02,0-.04,0-15.92,0-31.84,0-47.75,0-.03,0-.07,0-.1,0,0-.65,0-1.3,0-1.95Z"/>
      <path class="cls-2" d="M0,15.55s.09,0,.13,0c15.91,0,31.81,0,47.72,0q.13,0,.13,.13c0,.57,0,1.13,0,1.7,0,.09-.02,.12-.12,.12-3.18,0-6.37,0-9.55,0-12.73,0-25.46,0-38.19,0-.04,0-.08,0-.12,0,0-.65,0-1.3,0-1.95Z"/>
      <path class="cls-2" d="M0,23.32s.07,0,.11,0c15.91,0,31.83,0,47.74,0q.12,0,.12,.12c0,.57,0,1.14,0,1.71,0,.09-.03,.1-.11,.1-6.39,0-12.78,0-19.17,0-9.53,0-19.05,0-28.58,0-.04,0-.08,0-.12,0,0-.64,0-1.29,0-1.93Z"/>
      <path class="cls-2" d="M19.19,1.97c0-.65,0-1.29,0-1.94,.04,0,.07,0,.11,0,9.52,0,19.03,0,28.55,0q.12,0,.12,.12c0,.57,0,1.14,0,1.71,0,.09-.03,.11-.11,.11-9.51,0-19.03,0-28.54,0-.04,0-.09,0-.13,0Z"/>
      <path class="cls-2" d="M19.19,13.61c0-.61,0-1.21,0-1.82,0-.04,0-.08,0-.12,9.54,0,19.08,0,28.63,0q.16,0,.16,.16c0,.56,0,1.12,0,1.69,0,.08-.02,.1-.1,.1-.91,0-1.82,0-2.73,0-8.61,0-17.22,0-25.82,0-.05,0-.09,0-.14,0Z"/>
      <path class="cls-2" d="M19.2,5.85c0-.65,0-1.3,0-1.95,.04,0,.09,0,.13,0,9.51,0,19.02,0,28.52,0q.13,0,.13,.13c0,.57,0,1.14,0,1.7,0,.08-.02,.11-.1,.11-1.05,0-2.1,0-3.15,0-8.51,0-17.02,0-25.53,0Z"/>
      <path class="cls-2" d="M19.2,9.73c0-.65,0-1.29,0-1.94,.05,0,.09,0,.14,0,9.51,0,19.01,0,28.52,0q.13,0,.13,.13c0,.57,0,1.14,0,1.7,0,.09-.02,.11-.11,.11-9.51,0-19.03,0-28.54,0-.04,0-.09,0-.13,0Z"/>
      <path class="cls-1" d="M8.89,7.93c.15,0,.3,0,.46,0,.06,0,.09-.02,.1-.08,.04-.15,.09-.29,.15-.46,.05,.16,.11,.3,.14,.44,.02,.07,.05,.09,.12,.09,.15,0,.3,0,.47,0-.15,.11-.27,.2-.4,.29-.05,.04-.06,.07-.04,.12,.05,.15,.1,.29,.15,.46-.15-.11-.27-.2-.4-.29-.04-.03-.07-.03-.11,0-.13,.1-.25,.19-.4,.29,.06-.17,.1-.32,.16-.47,.02-.05,.01-.08-.03-.11-.13-.09-.25-.18-.38-.27,0,0,0-.01,0-.02Z"/>
      <path class="cls-1" d="M15.55,8.77c.05-.14,.09-.29,.14-.43,.02-.06,.01-.09-.04-.12-.13-.09-.25-.18-.39-.29,.18,0,.34,0,.49,0,.06,0,.08-.02,.1-.07,.04-.15,.1-.29,.15-.46,.05,.17,.1,.31,.15,.46,.02,.05,.04,.07,.1,.07,.15,0,.31,0,.47,0-.05,.07-.12,.1-.18,.15-.08,.07-.22,.1-.24,.2-.02,.09,.05,.19,.08,.29,.02,.07,.04,.14,.07,.23-.15-.11-.28-.2-.4-.29-.04-.03-.07-.03-.1,0-.12,.09-.25,.18-.38,.27,0,0-.01,0-.02,0Z"/>
      <path class="cls-1" d="M6.4,7.4c.05,.17,.11,.32,.15,.46,.02,.06,.04,.07,.1,.07,.15,0,.3,0,.49,0-.1,.07-.18,.13-.26,.19q-.19,.14-.12,.37c.03,.09,.06,.18,.1,.3-.14-.1-.27-.19-.38-.28-.06-.05-.09-.04-.15,0-.11,.09-.24,.17-.38,.27,.05-.16,.08-.29,.14-.42,.04-.09,.02-.13-.06-.18-.12-.08-.23-.16-.36-.26,.17,0,.31,0,.44,0,.1,0,.14-.03,.16-.12,.04-.13,.08-.27,.13-.42Z"/>
      <path class="cls-1" d="M13.23,8.77s-.04,0-.05-.02c-.11-.08-.23-.16-.34-.25-.04-.03-.06-.03-.1,0-.13,.1-.26,.19-.41,.3,.05-.15,.08-.29,.13-.41,.04-.1,.02-.15-.07-.2-.11-.07-.22-.15-.32-.25,.09,0,.19,0,.28,0,.06,0,.12,0,.18,0,.06,0,.09-.02,.1-.08,.04-.15,.09-.29,.15-.46,.05,.16,.11,.31,.15,.46,.02,.06,.04,.08,.1,.08,.15,0,.3,0,.46,.02-.12,.09-.24,.18-.36,.26-.06,.04-.07,.07-.04,.14,.05,.14,.1,.27,.13,.42h0Z"/>
      <path class="cls-1" d="M3.64,8.77s-.04,0-.05-.02c-.11-.08-.23-.16-.34-.25-.04-.03-.06-.03-.1,0-.13,.1-.26,.19-.41,.3,.05-.15,.08-.29,.13-.41,.04-.1,.02-.15-.07-.2-.11-.07-.22-.15-.32-.25,.09,0,.19,0,.28,0,.06,0,.12,0,.18,0,.06,0,.09-.02,.1-.08,.04-.15,.09-.29,.15-.46,.05,.16,.11,.31,.15,.46,.02,.06,.04,.08,.1,.08,.15,0,.3,0,.46,.02-.12,.09-.24,.18-.36,.26-.06,.04-.07,.07-.04,.14,.05,.14,.1,.27,.13,.42h0Z"/>
      <path class="cls-1" d="M8.89,5.22c.15,0,.3,0,.46,0,.06,0,.09-.02,.1-.08,.04-.14,.09-.29,.15-.46,.05,.17,.11,.3,.14,.45,.02,.07,.05,.09,.12,.09,.15,0,.29,0,.47,0-.1,.07-.18,.13-.25,.19-.07,.05-.17,.08-.19,.16-.02,.07,.04,.15,.06,.23,.03,.09,.06,.18,.1,.3-.14-.1-.27-.19-.4-.29-.04-.03-.07-.03-.12,0-.12,.1-.25,.18-.4,.29,.05-.16,.09-.31,.14-.44,.03-.07,.01-.11-.05-.15-.12-.08-.24-.17-.35-.26,0,0,0-.01,0-.02Z"/>
      <path class="cls-1" d="M15.56,6.05c.03-.15,.09-.29,.13-.44,.02-.06,0-.08-.04-.11-.13-.09-.25-.18-.4-.29,.18,0,.33,0,.48,0,.07,0,.09-.02,.11-.08,.04-.15,.09-.29,.15-.45,.05,.16,.1,.3,.14,.44,.02,.08,.06,.1,.14,.1,.14,0,.29,0,.46,0-.1,.07-.17,.13-.25,.18-.05,.04-.1,.08-.15,.11-.05,.03-.05,.06-.03,.11,.05,.15,.1,.29,.15,.47-.15-.11-.27-.2-.4-.29-.04-.03-.07-.03-.11,0-.1,.08-.2,.15-.31,.23-.02,.01-.04,.05-.07,.03h0Z"/>
      <path class="cls-1" d="M5.96,6.05c.03-.15,.09-.29,.13-.44,.02-.06,0-.08-.04-.11-.13-.09-.25-.18-.4-.29,.18,0,.33,0,.48,0,.07,0,.09-.02,.11-.08,.04-.15,.09-.29,.15-.45,.05,.16,.1,.3,.14,.44,.02,.08,.06,.1,.14,.1,.14,0,.29,0,.46,0-.1,.07-.17,.13-.25,.18-.05,.04-.1,.08-.15,.11-.05,.03-.05,.06-.03,.11,.05,.15,.1,.29,.15,.47-.15-.11-.27-.2-.4-.29-.04-.03-.07-.03-.11,0-.1,.08-.2,.15-.31,.23-.02,.01-.04,.05-.07,.03h0Z"/>
      <path class="cls-1" d="M13.24,6.05c-.09-.02-.15-.1-.23-.15-.07-.05-.14-.14-.21-.14-.07,0-.14,.09-.21,.14-.07,.05-.15,.11-.24,.17,.05-.17,.1-.31,.15-.46,.02-.06,.01-.09-.04-.12-.13-.09-.25-.18-.39-.29,.18,0,.33,0,.48,0,.07,0,.09-.02,.11-.08,.04-.15,.09-.29,.14-.45,.05,.16,.11,.31,.15,.45,.02,.06,.05,.08,.11,.08,.15,0,.3,0,.45,0,0,.04-.04,.05-.06,.06-.07,.05-.14,.1-.2,.15-.17,.12-.17,.12-.1,.32,.03,.1,.08,.2,.09,.3h0Z"/>
      <path class="cls-1" d="M3.64,6.05c-.09-.02-.15-.1-.23-.15-.07-.05-.14-.14-.21-.14-.07,0-.14,.09-.21,.14-.07,.05-.15,.11-.24,.17,.05-.17,.1-.31,.15-.46,.02-.06,.01-.09-.04-.12-.13-.09-.25-.18-.39-.29,.18,0,.33,0,.48,0,.07,0,.09-.02,.11-.08,.04-.15,.09-.29,.14-.45,.05,.16,.11,.31,.15,.45,.02,.06,.05,.08,.11,.08,.15,0,.3,0,.48,0-.14,.1-.25,.19-.37,.27-.07,.05-.09,.09-.06,.17,.05,.13,.1,.26,.12,.4h0Z"/>
      <path class="cls-1" d="M3.64,3.34c-.12-.05-.21-.14-.32-.21-.12-.08-.12-.08-.24,0-.11,.08-.21,.15-.33,.24,.05-.17,.1-.32,.15-.46,.02-.06,0-.09-.04-.12-.13-.09-.25-.18-.39-.29,.18,0,.34,0,.49,0,.06,0,.09-.02,.1-.08,.04-.15,.09-.29,.15-.46,.05,.15,.1,.28,.14,.41,.02,.09,.06,.13,.16,.12,.14-.01,.28,0,.45,0-.14,.1-.26,.19-.39,.28-.06,.04-.07,.08-.05,.14,.05,.14,.1,.27,.13,.42h0Z"/>
      <path class="cls-1" d="M5.96,3.34c.03-.15,.09-.29,.13-.43,.02-.05,.01-.08-.04-.12-.13-.09-.25-.18-.4-.29,.18,0,.34,0,.5,0,.05,0,.08-.01,.09-.07,.04-.15,.1-.3,.15-.47,.05,.17,.11,.32,.15,.47,.02,.05,.04,.07,.09,.07,.16,0,.31,0,.48,.02-.11,.08-.21,.15-.32,.23q-.12,.08-.07,.22c.04,.13,.08,.25,.13,.4-.14-.1-.27-.19-.39-.28-.05-.04-.09-.04-.13,0-.1,.08-.21,.16-.32,.23-.02,.01-.03,.04-.05,.02h0Z"/>
      <path class="cls-1" d="M13.23,3.34c-.12-.05-.21-.14-.32-.21-.12-.08-.12-.08-.24,0-.11,.08-.21,.15-.33,.24,.05-.17,.1-.32,.15-.46,.02-.06,0-.09-.04-.12-.13-.09-.25-.18-.39-.29,.18,0,.34,0,.49,0,.06,0,.09-.02,.1-.08,.04-.15,.09-.29,.15-.46,.05,.15,.1,.28,.14,.41,.02,.09,.06,.13,.16,.12,.14-.01,.28,0,.45,0-.14,.1-.26,.19-.39,.28-.06,.04-.07,.08-.05,.14,.05,.14,.1,.27,.13,.42h0Z"/>
      <path class="cls-1" d="M15.56,3.34c.03-.15,.09-.29,.13-.43,.02-.05,.01-.08-.04-.12-.13-.09-.25-.18-.4-.29,.18,0,.34,0,.5,0,.05,0,.08-.01,.09-.07,.04-.15,.1-.3,.15-.47,.05,.17,.11,.32,.15,.47,.02,.05,.04,.07,.09,.07,.16,0,.31,0,.48,.02-.11,.08-.21,.15-.32,.23q-.12,.08-.07,.22c.04,.13,.08,.25,.13,.4-.14-.1-.27-.19-.39-.28-.05-.04-.09-.04-.13,0-.1,.08-.21,.16-.32,.23-.02,.01-.03,.04-.05,.02h0Z"/>
      <path class="cls-1" d="M10.03,3.34c-.14-.08-.25-.18-.38-.27-.04-.03-.06-.03-.1,0-.13,.09-.24,.19-.38,.27,0,0,0,0-.01-.01,.04-.14,.08-.27,.13-.41,.03-.08,0-.11-.05-.15-.12-.08-.24-.17-.38-.27,.17,0,.32,0,.47,0,.07,0,.11-.02,.13-.09,.04-.14,.09-.28,.14-.44,.05,.17,.1,.31,.15,.45,.02,.06,.04,.08,.11,.08,.15,0,.3,0,.49,0-.14,.1-.26,.2-.39,.28-.06,.04-.07,.08-.04,.14,.05,.13,.09,.27,.13,.41,0,0,0,0-.01,.01Z"/>
      <path class="cls-1" d="M10.76,12.85c.02-.15,.09-.3,.13-.44,.02-.05,.01-.08-.03-.11-.13-.09-.26-.18-.4-.29,.17,0,.32,0,.46,0,.09,0,.12-.03,.14-.1,.04-.14,.09-.28,.14-.43,.05,.16,.1,.29,.14,.43,.02,.08,.06,.1,.14,.1,.14,0,.29,0,.46,0-.14,.1-.26,.2-.39,.28-.05,.04-.07,.07-.05,.14,.05,.14,.09,.28,.15,.45-.15-.11-.27-.19-.39-.29-.04-.03-.07-.03-.12,0-.13,.09-.24,.2-.38,.26h0Z"/>
      <path class="cls-1" d="M1.16,12.85c.02-.15,.09-.3,.13-.44,.02-.05,.01-.08-.03-.11-.13-.09-.26-.18-.4-.29,.17,0,.32,0,.46,0,.09,0,.12-.03,.14-.1,.04-.14,.09-.28,.14-.43,.05,.16,.1,.29,.14,.43,.02,.08,.06,.1,.14,.1,.14,0,.29,0,.46,0-.14,.1-.26,.2-.39,.28-.05,.04-.07,.07-.05,.14,.05,.14,.09,.28,.15,.45-.15-.11-.27-.19-.39-.29-.04-.03-.07-.03-.12,0-.13,.09-.24,.2-.38,.26h0Z"/>
      <path class="cls-1" d="M17.14,12.88c.06-.18,.1-.32,.15-.47,.02-.05,0-.08-.04-.11-.13-.09-.25-.18-.4-.29,.17,0,.31,0,.46,0,.09,0,.12-.03,.14-.11,.04-.14,.09-.27,.14-.42,.05,.16,.11,.31,.15,.45,.02,.06,.05,.08,.11,.08,.15,0,.3,0,.48,0-.15,.11-.27,.2-.4,.29-.04,.03-.05,.05-.03,.11,.05,.15,.1,.29,.15,.47-.15-.11-.27-.19-.39-.28-.05-.04-.08-.03-.13,0-.12,.09-.25,.18-.39,.29Z"/>
      <path class="cls-1" d="M7.26,12.01c.18,0,.33,0,.47,0,.08,0,.11-.03,.13-.1,.04-.14,.09-.28,.14-.44,.05,.16,.1,.29,.14,.43,.02,.07,.05,.1,.13,.1,.15,0,.29,0,.47,0-.14,.1-.26,.2-.39,.28-.06,.04-.06,.07-.04,.13,.05,.14,.09,.28,.12,.44-.12-.09-.24-.17-.36-.26-.05-.04-.09-.04-.14,0-.12,.09-.24,.18-.38,.28,.05-.15,.08-.28,.13-.4,.05-.1,.02-.16-.07-.22-.11-.07-.22-.15-.35-.25Z"/>
      <path class="cls-1" d="M13.95,12.84c.05-.14,.09-.28,.14-.42,.02-.05,0-.09-.04-.12-.13-.09-.25-.18-.4-.29,.16,0,.29,0,.42,0q.15,0,.19-.14c.04-.12,.08-.24,.13-.39,.05,.16,.1,.28,.13,.41,.02,.09,.06,.13,.16,.12,.14-.01,.28,0,.44,0-.15,.11-.27,.2-.4,.29-.05,.03-.06,.07-.04,.12,.04,.12,.08,.24,.12,.35,0,.03,.04,.05,0,.08h0c-.13-.08-.25-.18-.38-.27-.04-.03-.06-.03-.1,0-.13,.09-.24,.19-.38,.27,0,0,0,0-.01-.01Z"/>
      <path class="cls-1" d="M5.23,12.85c-.13-.08-.25-.18-.38-.27-.04-.03-.06-.03-.1,0-.13,.09-.24,.19-.38,.27,0,0,0,0-.01-.01,.05-.14,.09-.28,.14-.42,.02-.05,0-.09-.04-.12-.13-.09-.25-.18-.4-.29,.16,0,.29,0,.42,0q.15,0,.19-.14c.04-.12,.08-.24,.13-.39,.05,.16,.1,.28,.13,.41,.02,.09,.06,.13,.16,.12,.14-.01,.28,0,.44,0-.15,.11-.27,.2-.4,.29-.05,.03-.06,.07-.04,.12,.04,.12,.08,.24,.12,.35,0,.03,.04,.05,0,.08h0Z"/>
      <path class="cls-1" d="M4.06,9.29c.18,0,.34,0,.5,0,.05,0,.08-.02,.09-.07,.04-.15,.09-.29,.16-.44,.05,.15,.1,.29,.14,.44,.02,.05,.04,.07,.1,.07,.16,0,.31,0,.49,0-.14,.1-.27,.2-.39,.28-.05,.03-.06,.07-.04,.12,.05,.15,.1,.29,.15,.46-.12-.09-.24-.16-.34-.25-.08-.07-.15-.08-.24,0-.1,.09-.21,.16-.34,.25,.05-.17,.1-.32,.15-.47,.02-.05,0-.08-.04-.11-.13-.09-.25-.18-.4-.29Z"/>
      <path class="cls-1" d="M15.13,9.29c-.15,.11-.27,.2-.4,.28-.05,.03-.06,.07-.04,.12,.05,.15,.1,.29,.15,.46-.12-.09-.24-.16-.34-.25-.08-.07-.15-.08-.24,0-.1,.09-.21,.16-.34,.25,.05-.17,.1-.32,.15-.47,.02-.05,0-.08-.04-.11-.13-.09-.25-.18-.4-.29,.18,0,.34,0,.5,0,.05,0,.08-.02,.09-.07,.04-.15,.09-.29,.16-.44,.05,.15,.1,.29,.14,.44,.02,.05,.04,.07,.1,.07,.16,0,.31,0,.49,0Z"/>
      <path class="cls-1" d="M11.2,8.76c.05,.17,.11,.32,.15,.47,.02,.05,.04,.07,.09,.07,.16,0,.31,0,.5,0-.13,.1-.24,.18-.35,.25-.09,.05-.1,.11-.06,.2,.05,.12,.08,.25,.13,.41-.14-.1-.26-.18-.38-.27-.06-.05-.1-.04-.16,0-.11,.09-.23,.17-.36,.26,0-.1,.05-.18,.07-.26,.03-.09,.09-.19,.07-.26-.02-.07-.13-.11-.2-.17-.07-.05-.14-.1-.23-.17,.18,0,.33,0,.49,0,.06,0,.09-.02,.1-.08,.04-.15,.1-.29,.15-.46Z"/>
      <path class="cls-1" d="M1.6,8.76c.06,.17,.11,.32,.15,.47,.01,.05,.04,.06,.08,.06,.16,0,.32,0,.5,0-.13,.1-.24,.19-.36,.26-.09,.05-.1,.11-.06,.2,.05,.13,.09,.26,.14,.41-.14-.1-.27-.19-.39-.28-.05-.04-.09-.04-.14,0-.12,.09-.24,.18-.39,.28,.05-.16,.08-.29,.14-.42,.04-.09,.01-.14-.06-.19-.12-.07-.22-.16-.36-.26,.18,0,.32,0,.47,0,.07,0,.1-.02,.12-.09,.04-.14,.09-.28,.14-.45Z"/>
      <path class="cls-1" d="M16.86,9.29c.18,0,.34,0,.49,0,.06,0,.08-.02,.1-.07,.04-.15,.09-.3,.15-.46,.05,.16,.11,.31,.15,.45,.02,.06,.04,.08,.11,.08,.15,0,.3,0,.48,0-.14,.1-.26,.2-.39,.28-.06,.04-.07,.07-.04,.14,.05,.14,.09,.28,.12,.43-.1-.07-.2-.14-.3-.22q-.13-.09-.25,0c-.1,.07-.2,.15-.32,.21,.04-.11,.07-.22,.11-.33q.06-.17-.09-.28c-.1-.07-.19-.14-.31-.23Z"/>
      <path class="cls-1" d="M8.42,10.14c-.12-.09-.24-.17-.35-.26-.05-.04-.09-.05-.14,0-.12,.09-.24,.18-.39,.28,.05-.16,.09-.29,.14-.41,.04-.09,.02-.14-.06-.2-.12-.07-.22-.16-.36-.26,.17,0,.32,0,.46,0,.08,0,.11-.03,.13-.1,.04-.14,.09-.28,.14-.43,.05,.16,.11,.31,.15,.46,.02,.06,.04,.07,.1,.07,.15,0,.31,0,.49,0-.15,.11-.27,.2-.4,.29-.04,.03-.06,.06-.04,.11,.05,.14,.09,.29,.14,.43,0,0-.01,0-.02,.01Z"/>
      <path class="cls-1" d="M13.66,6.58c.18,0,.33,0,.48,0,.06,0,.09-.02,.11-.08,.04-.14,.09-.29,.15-.46,.06,.17,.11,.32,.15,.47,.02,.05,.04,.07,.1,.07,.15,0,.31,0,.49,0-.15,.11-.27,.2-.4,.29-.04,.03-.05,.06-.03,.11,.05,.15,.1,.3,.15,.47-.14-.1-.27-.19-.39-.28-.05-.04-.08-.04-.13,0-.12,.1-.25,.18-.39,.29,.05-.17,.1-.32,.15-.47,.02-.05,.01-.08-.04-.11-.13-.09-.25-.18-.4-.29Z"/>
      <path class="cls-1" d="M4.06,6.58c.18,0,.32,0,.47,0,.07,0,.1-.01,.12-.09,.04-.14,.09-.28,.15-.45,.06,.17,.1,.32,.15,.46,.02,.05,.04,.07,.1,.07,.15,0,.31,0,.49,0-.15,.11-.27,.2-.4,.29-.04,.03-.05,.06-.03,.11,.05,.15,.1,.3,.15,.47-.14-.1-.27-.19-.39-.28-.05-.04-.08-.04-.13,0-.12,.1-.25,.18-.39,.29,.05-.17,.1-.32,.15-.47,.02-.05,.01-.08-.04-.11-.13-.09-.25-.18-.4-.29Z"/>
      <path class="cls-1" d="M1.16,7.41c.05-.14,.09-.29,.14-.43,.02-.06,0-.09-.04-.12-.13-.09-.25-.18-.39-.28,.17,0,.31,0,.45,0,.09,0,.13-.03,.15-.11,.04-.14,.09-.27,.14-.42,.05,.17,.11,.32,.15,.47,.01,.05,.04,.07,.09,.07,.16,0,.31,0,.49,0-.14,.1-.25,.19-.37,.27-.07,.04-.08,.09-.05,.16,.05,.13,.09,.27,.14,.43-.14-.1-.26-.18-.37-.27-.06-.05-.1-.06-.17,0-.11,.09-.23,.17-.35,.25,0,0-.01,0-.02-.01Z"/>
      <path class="cls-1" d="M11.93,6.58c-.14,.1-.26,.2-.39,.28-.05,.04-.07,.07-.04,.13,.05,.14,.09,.29,.15,.45-.15-.11-.27-.19-.4-.29-.04-.03-.07-.03-.11,0-.12,.09-.25,.18-.39,.26,.05-.14,.09-.28,.14-.42,.02-.06,.01-.1-.04-.14-.12-.08-.24-.17-.39-.28,.17,0,.31,0,.45,0,.08,0,.12-.02,.14-.1,.04-.14,.09-.28,.14-.44,.06,.17,.11,.32,.15,.47,.02,.06,.04,.07,.1,.07,.15,0,.31,0,.49,0Z"/>
      <path class="cls-1" d="M8.73,6.58c-.14,.1-.26,.2-.39,.28-.06,.04-.06,.07-.04,.13,.05,.14,.09,.28,.12,.43-.12-.09-.24-.17-.36-.26-.05-.04-.08-.04-.13,0-.12,.09-.25,.18-.39,.29,.05-.17,.09-.31,.15-.45,.02-.07,0-.1-.05-.14-.12-.08-.24-.17-.38-.28,.18,0,.33,0,.48,0,.06,0,.09-.02,.1-.08,.04-.15,.09-.29,.15-.46,.05,.16,.1,.3,.14,.44,.02,.07,.05,.1,.13,.1,.15,0,.29,0,.47,0Z"/>
      <path class="cls-1" d="M16.86,6.58c.17,0,.32,0,.46,0,.09,0,.12-.03,.14-.11,.04-.14,.09-.27,.14-.43,.06,.17,.11,.32,.15,.47,.02,.05,.04,.07,.09,.07,.16,0,.31,0,.49,0-.13,.1-.24,.18-.36,.26-.07,.05-.1,.09-.06,.18,.05,.13,.09,.26,.11,.41-.12-.09-.25-.17-.37-.27-.05-.04-.08-.04-.13,0-.12,.09-.25,.18-.39,.28,.05-.17,.1-.31,.15-.45,.02-.06,.01-.09-.04-.13-.13-.08-.25-.18-.39-.28Z"/>
      <path class="cls-1" d="M14.85,4.72c-.14-.11-.27-.19-.4-.29-.05-.04-.08-.03-.12,0-.12,.09-.25,.18-.4,.29,.06-.17,.1-.32,.15-.47,.02-.05,.01-.08-.04-.11-.13-.09-.25-.18-.4-.29,.18,0,.33,0,.49,0,.06,0,.08-.02,.1-.07,.04-.15,.09-.29,.15-.47,.06,.17,.11,.32,.15,.46,.02,.06,.04,.08,.1,.07,.15,0,.3,0,.48,0-.15,.11-.27,.2-.4,.29-.04,.03-.05,.06-.03,.11,.05,.15,.1,.3,.15,.47Z"/>
      <path class="cls-1" d="M5.25,4.72c-.15-.11-.27-.19-.39-.29-.05-.04-.08-.03-.13,0-.12,.09-.25,.18-.39,.29,.06-.17,.1-.32,.15-.47,.02-.05,.01-.08-.03-.11-.13-.09-.25-.18-.4-.29,.17,0,.32,0,.47,0,.07,0,.1-.02,.11-.08,.04-.14,.09-.28,.15-.45,.05,.15,.09,.27,.13,.39,.05,.14,.04,.14,.19,.14h.41c-.13,.1-.24,.19-.36,.26-.08,.05-.09,.1-.06,.19,.05,.13,.09,.26,.14,.42Z"/>
      <path class="cls-1" d="M17.59,3.32c.05,.17,.11,.31,.15,.47,.02,.06,.04,.07,.1,.07,.15,0,.31,0,.49,0-.12,.09-.22,.16-.32,.23q-.13,.1-.08,.25c.04,.12,.08,.23,.1,.36-.12-.09-.25-.17-.37-.27-.05-.04-.08-.04-.13,0-.12,.09-.25,.18-.39,.28,.05-.16,.09-.29,.14-.42,.03-.09,.03-.14-.06-.19-.12-.07-.22-.16-.36-.26h.36q.2,0,.26-.19c.04-.11,.07-.22,.11-.35Z"/>
      <path class="cls-1" d="M10.74,4.72c.06-.17,.1-.32,.15-.46,.02-.06,.01-.09-.04-.12-.13-.08-.25-.18-.39-.28,.18,0,.33,0,.49,0,.05,0,.08-.01,.1-.07,.04-.15,.1-.3,.15-.47,.05,.17,.11,.32,.15,.47,.02,.05,.04,.07,.09,.07,.16,0,.31,0,.49,0-.14,.1-.26,.19-.39,.28-.05,.04-.06,.07-.04,.13,.05,.14,.09,.29,.15,.45-.15-.1-.27-.19-.4-.29-.04-.03-.07-.03-.11,0-.12,.09-.25,.18-.4,.29Z"/>
      <path class="cls-1" d="M8,3.32c.05,.16,.1,.3,.14,.44,.02,.07,.05,.1,.13,.1,.14,0,.29,0,.46,0-.15,.11-.27,.2-.4,.29-.05,.03-.05,.06-.04,.11,.05,.14,.09,.29,.13,.44-.12-.09-.24-.17-.36-.26-.05-.04-.09-.05-.14,0-.12,.09-.24,.18-.38,.28,.05-.16,.09-.3,.14-.43,.03-.08,.02-.12-.06-.17-.12-.08-.23-.17-.37-.26,.17,0,.32,0,.47,0,.07,0,.1-.03,.12-.09,.04-.14,.09-.28,.14-.45Z"/>
      <path class="cls-1" d="M2.34,3.86c-.14,.1-.25,.19-.37,.26-.08,.05-.09,.1-.06,.18,.05,.13,.09,.26,.12,.41-.12-.09-.24-.17-.35-.26-.06-.05-.1-.04-.16,0-.11,.09-.23,.17-.36,.26,0-.1,.05-.17,.07-.25,.03-.09,.09-.19,.07-.26-.02-.07-.13-.11-.2-.17-.07-.05-.14-.1-.23-.17,.18,0,.33,0,.49,0,.06,0,.08-.02,.1-.07,.04-.15,.1-.29,.15-.46,.05,.16,.1,.3,.14,.44,.02,.08,.06,.11,.14,.1,.14,0,.28,0,.45,0Z"/>
      <path class="cls-1" d="M5.51,1.16c-.13,.09-.25,.19-.38,.27-.04,.03-.05,.05-.03,.1,.05,.15,.1,.3,.16,.47-.14-.1-.27-.19-.39-.28-.05-.04-.08-.04-.13,0-.12,.09-.25,.18-.39,.29,.06-.17,.1-.32,.15-.46,.02-.06,.01-.09-.04-.12-.13-.08-.24-.18-.39-.28,.18,0,.34,0,.49,0,.05,0,.08-.02,.09-.07,.05-.15,.09-.29,.15-.47,.05,.16,.1,.29,.13,.42,.02,.09,.06,.13,.16,.12,.14-.01,.27,0,.41,0v.02Z"/>
      <path class="cls-1" d="M13.66,1.14c.18,0,.34,0,.49,0,.05,0,.08-.02,.09-.07,.05-.15,.09-.3,.15-.47,.05,.15,.1,.28,.13,.41,.03,.1,.07,.14,.18,.13,.13-.01,.27,0,.43,0-.15,.11-.27,.2-.4,.29-.05,.03-.06,.06-.04,.11,.05,.15,.1,.29,.15,.46-.14-.1-.27-.19-.39-.28-.05-.04-.08-.04-.13,0-.12,.09-.25,.18-.39,.29,.06-.17,.1-.32,.15-.46,.02-.06,.01-.09-.04-.12-.13-.08-.24-.18-.39-.28Z"/>
      <path class="cls-1" d="M10.77,2s0-.06,0-.09c.04-.12,.07-.24,.12-.35,.02-.06,.02-.1-.04-.14-.12-.08-.24-.17-.38-.28,.18,0,.33,0,.48,0,.07,0,.09-.02,.11-.08,.04-.15,.09-.29,.15-.45,.05,.16,.1,.29,.14,.43,.02,.09,.07,.11,.15,.11,.14,0,.28,0,.44,0-.14,.1-.26,.2-.39,.28-.05,.03-.06,.06-.04,.12,.05,.14,.09,.29,.15,.46-.14-.1-.27-.19-.39-.28-.04-.03-.07-.04-.12,0-.12,.1-.25,.19-.37,.28,0,0,0,0,0,0Z"/>
      <path class="cls-1" d="M8.43,2c-.13-.11-.27-.2-.4-.3-.04-.03-.06,0-.09,.01-.13,.09-.25,.18-.4,.29,.05-.16,.09-.3,.14-.43,.03-.08,.02-.12-.05-.17-.12-.08-.23-.17-.37-.26,.18,0,.33,0,.48,0,.06,0,.09-.01,.11-.07,.04-.15,.09-.3,.15-.46,.06,.17,.11,.31,.15,.46,.02,.06,.04,.07,.1,.07,.15,0,.31,0,.49,0-.14,.1-.25,.19-.37,.27-.06,.04-.08,.08-.05,.15,.04,.11,.08,.23,.11,.34,0,.03,.03,.06,0,.09h0Z"/>
      <path class="cls-1" d="M1.17,2s0-.06,0-.09c.04-.12,.07-.24,.12-.35,.02-.06,.02-.1-.04-.14-.12-.08-.24-.17-.38-.28,.18,0,.33,0,.48,0,.07,0,.09-.02,.11-.08,.04-.15,.09-.29,.15-.45,.05,.16,.1,.29,.14,.43,.02,.09,.07,.11,.15,.11,.14,0,.28,0,.44,0-.14,.1-.26,.2-.39,.28-.05,.03-.06,.06-.04,.12,.05,.14,.09,.29,.15,.46-.14-.1-.27-.19-.39-.28-.04-.03-.07-.04-.12,0-.12,.1-.25,.19-.37,.28h0Z"/>
      <path class="cls-1" d="M18.02,2c-.13-.11-.27-.2-.4-.3-.04-.03-.06,0-.09,.01-.13,.09-.25,.18-.4,.29,.05-.16,.09-.3,.14-.43,.03-.08,.02-.12-.05-.17-.12-.08-.23-.17-.37-.26,.18,0,.33,0,.48,0,.06,0,.09-.01,.11-.07,.04-.15,.09-.3,.15-.46,.06,.17,.11,.31,.15,.46,.02,.06,.04,.07,.1,.07,.15,0,.31,0,.49,0-.14,.1-.25,.19-.37,.27-.06,.04-.08,.08-.05,.15,.04,.11,.08,.23,.11,.34,0,.03,.03,.06,0,.09h0Z"/>
      <path class="cls-1" d="M9.14,11.52c.05-.17,.1-.31,.15-.46,.02-.05,.02-.09-.04-.12-.13-.08-.25-.18-.39-.28,.18,0,.33,0,.48,0,.06,0,.09-.02,.11-.07,.04-.15,.09-.29,.15-.46,.04,.13,.08,.23,.11,.33q.07,.2,.28,.2c.1,0,.2,0,.3,0,0,0,.01,0,.03,.01-.13,.09-.25,.19-.38,.27-.05,.03-.06,.06-.04,.11,.05,.15,.1,.29,.15,.46-.13-.1-.25-.18-.37-.27-.06-.05-.11-.06-.17,0-.11,.09-.23,.17-.37,.27Z"/>
      <path class="cls-1" d="M2.74,11.52c.05-.17,.1-.32,.15-.46,.02-.06,.01-.09-.04-.12-.12-.08-.24-.17-.36-.28,.09,0,.18,0,.27,0,.09,0,.19,.04,.25-.02,.05-.05,.06-.15,.09-.23,.03-.09,.06-.18,.09-.29,.05,.16,.11,.31,.15,.45,.02,.06,.04,.08,.11,.08,.15,0,.3,0,.48,0-.13,.1-.24,.18-.35,.26-.08,.05-.1,.09-.06,.19,.05,.13,.09,.26,.14,.42-.14-.1-.27-.19-.39-.28-.05-.04-.08-.04-.13,0-.12,.09-.25,.18-.39,.29Z"/>
      <path class="cls-1" d="M12.79,10.12c.05,.16,.11,.31,.15,.46,.02,.06,.05,.08,.11,.08,.15,0,.3,0,.48,0-.14,.1-.26,.2-.39,.28-.05,.04-.06,.07-.04,.13,.05,.14,.09,.29,.15,.45-.14-.1-.26-.18-.38-.28-.06-.05-.1-.04-.16,0-.11,.09-.24,.17-.37,.27,.05-.17,.1-.32,.15-.46,.02-.06,0-.09-.04-.12-.12-.08-.24-.17-.36-.28,.13,0,.26,0,.39,0,.11,0,.16-.02,.18-.13,.03-.13,.08-.26,.13-.41Z"/>
      <path class="cls-1" d="M6.85,11.52c-.13-.09-.24-.17-.35-.26-.08-.07-.13-.06-.21,0-.1,.09-.21,.16-.35,.26,.05-.16,.09-.3,.14-.44,.03-.07,.02-.12-.05-.16-.12-.08-.23-.17-.37-.27,.16,0,.3,0,.43,0,.1,0,.15-.02,.17-.13,.03-.13,.08-.26,.13-.41,.06,.17,.11,.32,.15,.46,.02,.05,.04,.07,.1,.07,.15,0,.31,0,.49,0-.14,.1-.26,.19-.38,.28-.05,.04-.06,.07-.04,.13,.05,.14,.09,.29,.15,.45Z"/>
      <path class="cls-1" d="M15.29,10.65c.15,0,.3,0,.46,0,.06,0,.08-.02,.1-.07,.04-.15,.1-.29,.15-.47,.05,.17,.1,.31,.15,.46,.02,.06,.04,.08,.11,.08,.15,0,.3,0,.48,0-.14,.1-.26,.19-.38,.28-.05,.04-.07,.07-.04,.13,.05,.14,.09,.29,.15,.45-.14-.1-.26-.19-.38-.28-.06-.05-.1-.04-.15,0-.11,.09-.24,.17-.38,.28,.05-.16,.09-.3,.14-.43,.04-.09,.01-.13-.06-.18-.11-.07-.22-.16-.33-.24,0,0,0-.01,0-.02Z"/>
      <path class="cls-1" d="M15.55,6.05s0,0,0,.01c0,0,0,0,0,0,0,0,0,0,0-.01,0,0,0,0,0,0Z"/>
      <path class="cls-1" d="M3.64,8.77s0,0,0,.01c0,0,0,0,0,0,0,0,0,0,0-.01,0,0,0,0,0,0Z"/>
      <path class="cls-1" d="M5.96,6.05s0,0,0,.01c0,0,0,0,0,0,0,0,0,0,0-.01,0,0,0,0,0,0Z"/>
      <path class="cls-1" d="M13.23,8.77s0,0,0,.01c0,0,0,0,0,0,0,0,0,0,0-.01,0,0,0,0,0,0Z"/>
      <path class="cls-1" d="M3.64,6.05s0,0,0,.01c0,0,0,0,0,0,0,0,0,0,0-.01,0,0,0,0,0,0Z"/>
      <path class="cls-1" d="M15.55,3.34s0,0,0,.01c0,0,0,0,0,0,0,0,0,0,.01,0,0,0,0,0,0,0Z"/>
      <path class="cls-1" d="M13.23,3.34s0,0,.01,0c0,0,0,0,0,0,0,0,0,0,0-.01,0,0,0,0,0,0Z"/>
      <path class="cls-1" d="M10.04,3.33s0,.02,0,.02c-.01,0-.01,0-.01-.01,0,0,0,0,.01-.01Z"/>
      <path class="cls-1" d="M9.17,3.34s0,.02-.01,.01c0,0,0-.01,0-.02,0,0,0,0,.01,.01Z"/>
      <path class="cls-1" d="M5.96,3.34s0,0,0,.01c0,0,0,0,0,0,0,0,0,0,.01,0,0,0,0,0,0,0Z"/>
      <path class="cls-1" d="M3.64,3.34s0,0,.01,0c0,0,0,0,0,0,0,0,0,0,0-.01,0,0,0,0,0,0Z"/>
      <polygon class="cls-1" points="18.02 2 18.03 1.99 18.02 2 18.02 2"/>
      <polygon class="cls-1" points="10.77 2 10.76 1.99 10.76 1.99 10.77 2 10.77 2"/>
      <polygon class="cls-1" points="8.43 2 8.43 1.99 8.43 2 8.43 2"/>
      <polygon class="cls-1" points="1.17 2 1.16 1.99 1.16 1.99 1.17 2 1.17 2"/>
      <path class="cls-1" d="M1.16,12.85s0,0,0,.01c0,0,0,0,0,0,0,0,0,0,.01,0,0,0,0,0,0,0Z"/>
      <path class="cls-1" d="M4.37,12.85s0,.02-.01,.01c0,0,0-.01,0-.02,0,0,0,0,.01,.01Z"/>
      <path class="cls-1" d="M5.23,12.85s0,0,.01,0c0,0,0,0,0,.01,0,0,0,0,0-.01,0,0,0,0,0,0Z"/>
      <path class="cls-1" d="M10.76,12.85s0,0,0,.01c0,0,0,0,0,0,0,0,0,0,.01,0,0,0,0,0,0,0Z"/>
      <path class="cls-1" d="M13.96,12.85s0,.02-.01,.01c0,0,0-.01,0-.02,0,0,0,0,.01,.01Z"/>
      <path class="cls-1" d="M14.82,12.85s0,0,.01,0c0,0,0,0,0,.01,0,0,0,0,0-.01,0,0,0,0,0,0Z"/>
      <path class="cls-1" d="M13.23,6.05h0s0,.01,0,.01c0,0,0,0,0-.01,0,0,0,0,0,0Z"/>
    </g>
  </g>
</svg>